<svg width="855" height="1192" viewBox="0 0 855 1192" fill="none" xmlns="http://www.w3.org/2000/svg">
<path d="M866.428 548.528C855.675 599.901 840.084 649.433 820.589 697.708C810.101 723.679 798.287 749.095 780.911 771.4C774.637 779.455 767.514 786.623 757.856 790.825C747.296 795.419 738.359 793.422 731.312 784.211C724.781 775.675 721.534 765.626 719.691 755.273C711.413 708.784 715.124 662.414 721.624 616.103C722.272 611.485 722.799 606.851 723.338 602.219C723.39 601.774 723.133 601.293 722.882 600.264C713.463 605.904 703.899 610.894 695.134 617.026C674.264 631.631 651.157 641.915 628.267 652.624C617.382 657.717 606.785 657.335 597.944 648.119C594.099 644.111 591.063 644.238 586.525 647.372C578.35 653.018 570.442 659.425 560.66 662.216C549.389 665.431 539.23 663.865 531.353 654.163C527.996 650.028 524.378 646.105 520.967 642.012C519.063 639.727 517.278 639.341 514.521 640.929C509.775 643.663 504.855 646.166 499.804 648.279C492.991 651.129 486.114 650.734 479.539 647.253C471.576 643.037 463.356 639.392 455.009 636.023C446.933 632.764 441.486 627.183 439.102 618.665C437.854 614.207 436.271 609.843 434.607 604.724C427.347 609.36 420.65 613.568 414.022 617.883C403.978 624.423 393.823 630.777 383.221 636.382C370.609 643.049 357.396 639.527 351.457 627.791C347.993 620.946 349.349 614.164 352.588 607.651C357.742 597.287 365.526 589.019 374.539 582.052C392.317 568.309 410.497 555.075 429.802 543.531C442.864 535.719 453.739 524.994 466.55 516.865C489.038 502.595 508.419 484.544 527.415 466.072C534.391 459.289 540.105 451.523 544.351 442.715C547.236 436.732 547.025 435.691 540.897 432.765C528.622 426.902 515.45 425.168 502.033 424.71C488.896 424.261 476.155 421.853 464.342 415.965C449.199 408.418 435.769 398.872 428.162 382.938C422.755 371.614 426.735 358.071 437.447 352.107C442.136 349.497 447.302 349.439 452.016 351.024C473.793 358.347 496.688 360.11 518.952 364.96C537.15 368.924 555.332 368.356 573.512 365.055C579.329 363.999 585.135 363.894 590.903 364.857C614.24 368.755 637.671 371.921 661.205 374.347C679.5 376.234 696.233 382.825 709.503 395.258C722.246 407.197 737.014 412.591 753.571 415.281C763.874 416.955 763.752 417.243 766.892 407.399C777.872 372.975 791.945 339.924 811.369 309.352C818.444 298.216 826.689 287.935 837.414 279.961C841.032 277.272 844.843 274.788 849.314 273.831C858.699 271.82 866.976 275.46 872.46 283.887C880.116 295.653 882.842 309.029 884.63 322.61C890.323 365.864 887.326 409.01 882.466 452.087C878.822 484.383 873.112 516.356 866.428 548.528ZM454.94 556.768C453.678 555.223 452.525 553.572 451.137 552.151C444.056 544.9 437.817 544.131 429.221 549.329C427.799 550.189 426.332 550.974 424.911 551.836C416.597 556.88 408.627 562.4 400.446 568.919C408.055 571.484 413.731 575.362 417.666 581.497C418.383 582.616 419.431 583.855 418.124 585.03C416.545 586.449 415.333 585.135 414.407 583.952C411.817 580.647 408.955 577.641 405.263 575.58C399.951 572.615 394.892 571.965 389.51 576.048C381.673 581.992 374.021 588.109 367.179 595.177C362.043 600.482 357.789 606.45 355.204 613.414C351.189 624.228 357.813 634.27 369.314 635.03C374.307 635.36 378.851 633.842 383.142 631.507C399.217 622.76 414.103 612.107 429.634 602.488C433.222 600.266 432.857 597.407 432.156 594.29C430.876 588.593 429.89 582.865 430.11 577.014C430.47 567.443 437.44 559.611 446.925 558.111C449.706 557.671 452.543 557.583 455.981 557.565C465.696 559.338 473.926 563.619 479.779 571.814C481.235 573.852 482.608 574.747 485.137 573.225C492.119 569.024 499.189 564.965 506.312 561.008C509.311 559.342 510.142 557.286 509.01 554.031C507.313 549.153 505.806 544.215 503.47 539.582C502.821 538.295 502.693 536.922 504.277 536.189C505.629 535.562 506.465 536.47 507.083 537.544C507.91 538.98 508.901 540.367 509.454 541.907C510.974 546.139 512.298 550.442 513.71 554.713C514.284 556.451 514.622 558.107 517.287 557.907C535.288 556.561 543.412 561.434 551.882 577.617C554.169 581.986 554.987 586.924 557.518 591.464C558.835 590.562 559.697 589.711 560.734 589.306C565.253 587.54 567.219 584.845 566.612 579.531C565.97 573.907 569.476 569.659 574.352 567.106C581.976 563.114 589.747 562.996 597.151 567.748C603.452 571.794 607.847 577.572 611.599 584.004C613.838 587.842 614.581 592.441 617.604 596.09C619.685 595.235 621.512 594.5 623.325 593.734C630.156 590.849 636.999 591.138 643.708 593.973C645.806 594.86 649.41 595.75 647.943 598.89C646.617 601.729 644.261 598.822 642.372 598.338C639.8 597.678 637.262 596.685 634.65 596.419C629.404 595.886 624.674 597.268 620.236 601.173C626.125 605.521 630.068 610.587 632.521 616.725C633.181 618.377 634.081 620.674 631.941 621.609C629.505 622.674 629.106 620.121 628.388 618.531C626.506 614.36 624.474 610.313 620.045 607.137C619.925 608.53 619.872 609.144 619.82 609.758C619.661 611.629 620.616 614.439 617.904 614.691C615.019 614.958 615.794 611.917 615.296 610.162C615.119 609.538 615.283 608.823 615.157 608.176C612.584 595.016 608.162 582.734 597.521 573.783C591.442 568.669 584.494 567.176 577.038 570.758C573.505 572.456 571.083 575.285 571.306 579.383C571.527 583.449 574.936 584.668 578.177 585.641C579.908 586.16 581.775 586.475 583.579 586.466C594.176 586.414 594.184 586.372 595.637 596.906C595.796 598.055 595.774 599.229 595.891 600.386C596.362 605.023 594.045 607.455 589.754 608.68C585.208 609.977 580.996 608.321 576.628 607.25C577.86 622.038 580.998 628.155 591.797 637.117C595.386 640.095 599.05 642.988 602.581 646.035C608.891 651.482 616.064 652.732 623.552 649.503C635.296 644.44 646.828 638.882 658.42 633.471C671.738 627.254 683.462 618.36 696.064 610.943C724.24 594.362 752.713 578.179 770.843 549.392C771.628 548.144 772.83 546.815 774.533 548.063C776.179 549.27 775.36 550.839 774.525 552.058C771.258 556.828 767.88 561.523 764.535 566.259C764.882 566.499 765.125 566.809 765.393 566.832C790.467 568.997 814.407 576.318 838.418 583.183C843.107 584.523 844.807 583.208 846.671 579.27C857.398 556.618 863.017 532.775 863.222 507.77C863.416 484.214 859.624 461.382 849.087 439.99C847.599 436.967 845.472 435.542 842.191 435.092C816.276 431.536 790.422 427.456 764.829 422.129C724.794 413.795 724.628 418.38 703.341 396.184C702.55 395.359 701.438 394.845 700.492 394.165C687.262 384.655 672.308 380.14 656.243 378.611C637.168 376.796 618.143 374.445 599.3 370.981C587.663 368.842 576.204 368.62 564.596 370.826C560.207 371.66 555.684 371.893 551.207 372.141C525.25 373.575 500.514 365.516 475.187 362.069C467.015 360.957 459.196 357.46 451.093 355.584C438.614 352.695 429.577 361.169 430.688 374.043C431.295 381.088 434.574 386.788 439.183 391.681C455.03 408.5 474.441 418.315 497.628 419.709C511.642 420.552 525.542 421.468 538.829 426.562C547.084 429.726 553.283 435.301 558.361 442.331C559.156 443.433 560.088 444.622 558.707 445.822C557.382 446.974 556.309 446.032 555.241 445.118C553.677 443.78 553.031 441.351 550.203 440.974C543.525 456.864 531.806 468.779 519.465 480.367C499.849 498.786 478.33 514.685 456.216 529.877C451.377 533.201 446.826 536.945 442.143 540.495C442.134 541.1 442.125 541.705 442.116 542.31C444.735 543.323 447.473 544.112 449.942 545.41C452.616 546.816 454.635 549.139 456.39 551.588C457.979 553.805 459.121 556.105 454.94 556.768ZM534.346 583.506C537.442 587.036 539.295 601.52 536.171 604.716C528.623 612.439 520.114 609.128 511.189 605.056C512.138 610.443 512.702 615.199 513.839 619.814C517.596 635.053 529.017 644.952 539.595 655.18C543.832 659.277 550.227 660.074 556.17 658.82C568.627 656.192 577.677 647.538 587.786 641.149C587.238 638.844 585.87 638.03 584.809 637.041C579.026 631.653 575.244 625.104 573.516 617.433C571.872 610.138 570.315 602.815 569.02 595.451C568.468 592.311 567.356 591.459 564.352 592.629C556.928 595.521 555.761 601.987 561.968 607.058C565.419 609.878 567.978 613.334 569.633 617.359C570.392 619.204 572.841 622.033 569.631 623.312C567.053 624.339 566.396 621.141 565.607 619.246C564.382 616.297 562.994 613.532 560.243 611.782C558.477 611.959 557.905 614.807 555.912 613.653C554.23 612.678 554.561 610.816 554.51 609.146C554.229 599.934 552.712 590.981 549.374 582.321C544.487 569.646 533.862 561.282 522.689 561.64C514.849 561.891 508.911 566.981 508.048 574.043C507.717 576.755 508.369 578.674 510.68 580.467C517.773 585.973 525.455 585.672 534.346 583.506ZM472.846 570.646C465.689 564.651 457.829 560.771 448.126 562.367C441.417 563.47 435.801 568.84 434.925 575.022C434.162 580.41 437.962 585.814 444.678 588.588C448.885 590.325 453.214 591.234 457.842 590.185C464.583 588.658 465.623 589.389 466.975 596.034C467.274 597.5 467.407 598.998 467.64 600.478C468.84 608.131 466.412 611.431 458.586 612.102C453.178 612.566 447.973 611.556 443.278 608.56C442.272 607.917 441.476 606.666 439.905 606.933C440.727 609.463 441.654 611.784 442.233 614.19C444.5 623.612 450.406 629.524 459.429 632.688C466.521 635.175 473.295 638.452 479.788 642.195C487.864 646.85 495.682 646.112 503.582 642.012C504.909 641.323 506.211 640.578 507.575 639.969C515.014 636.645 515.014 636.659 511.987 629.094C511.616 628.167 511.328 627.206 511.011 626.258C507.66 616.23 507.049 605.731 505.656 595.362C504.81 589.066 503.732 582.801 502.641 575.763C497.763 580.423 493.539 584.458 489.22 588.584C504.369 598.664 504.369 598.664 503.639 603.121C498.437 601.492 496.102 594.817 489.953 595.109C488.582 597.836 490.107 600.509 489.588 603.091C489.31 604.472 488.995 605.832 487.221 605.684C485.812 605.567 485.371 604.428 485.261 603.182C485.173 602.188 485.186 601.184 485.092 600.19C484.064 589.356 481.213 579.255 472.846 570.646ZM531.139 603.444C534.673 598.953 532.698 594.089 532.643 588.912C524.334 589.172 516.361 590.392 508.965 584.68C509.4 587.801 509.537 589.79 509.969 591.713C512.147 601.407 516.8 605.081 526.085 604.477C527.566 604.38 529.03 604.036 531.139 603.444ZM460.405 594.888C452.274 595.286 444.265 595.062 436.906 588.992C439.082 601.465 444.125 606.702 453.943 607.589C457.097 607.873 461.023 608.338 462.566 605.228C464.139 602.057 463.807 598.149 460.405 594.888ZM587.982 590.567C583.203 591.596 578.578 590.123 573.455 589.234C574.155 592.466 574.545 595.229 575.366 597.858C576.972 602.999 582.928 605.974 588.175 604.497C589.508 604.122 591.03 603.592 591.088 602.171C591.252 598.187 592.294 593.933 587.982 590.567ZM491.103 580.594C495.53 576.393 499.956 572.192 504.383 567.99C498.433 570.643 492.937 573.666 487.502 576.796C483.668 579.003 483.602 580.559 487.19 583.865C488.303 582.953 489.442 582.02 491.103 580.594Z" fill="#205683"/>
<path d="M596.099 499.394C580.164 499.811 564.766 498.465 549.477 495.739C548.493 495.564 547.484 495.468 546.534 495.179C544.707 494.625 541.89 494.557 542.481 491.834C543.101 488.982 545.675 490.325 547.489 490.667C582.476 497.271 617.378 496.362 652.093 488.967C672.871 484.54 693.01 478.25 710.125 464.836C711.392 463.842 712.993 462.472 714.452 464.364C715.941 466.294 714.103 467.434 712.844 468.39C704.307 474.873 694.995 480.077 685.01 483.873C656.521 494.704 626.876 499.198 596.099 499.394Z" fill="#205683"/>
<path d="M624.418 543.185C634.828 545.547 644.929 547.633 654.56 551.496C664.649 555.543 673.212 561.677 680.303 569.866C681.286 571.002 683.19 572.418 681.556 574.108C679.696 576.033 678.179 574.211 677.017 572.873C666.765 561.065 653.504 554.252 638.543 551.217C616.168 546.677 594.787 538.412 572.347 534.235C569.734 533.748 567.084 533.461 564.456 533.045C562.673 532.763 560.349 532.736 560.7 530.141C561.042 527.606 563.185 527.996 565.054 528.309C574.739 529.932 584.366 531.789 593.809 534.549C603.869 537.489 613.976 540.266 624.418 543.185Z" fill="#205683"/>
<path d="M797.218 511.49C797.335 514.556 797.473 517.216 797.35 519.864C797.282 521.337 796.964 523.096 794.922 523.002C792.826 522.905 792.958 521.188 792.91 519.654C792.797 516.009 792.948 512.319 792.42 508.731C789.49 488.807 778.051 474.937 761.049 465.047C758.967 463.836 754.666 462.973 756.493 459.843C758.28 456.783 761.274 460.071 763.302 461.246C782.547 472.402 794.864 488.352 797.218 511.49Z" fill="#205683"/>
<path d="M514.544 392.682C517.423 390.275 518.738 391.746 518.616 394.422C518.208 403.415 514.701 411.133 508.268 417.463C507.162 418.551 505.765 419.489 504.422 417.897C503.149 416.388 504.191 415.026 505.285 413.984C511.287 408.261 513.603 400.961 514.544 392.682Z" fill="#205683"/>
</svg>
