<svg width="681" height="660" viewBox="0 0 681 660" fill="none" xmlns="http://www.w3.org/2000/svg">
<path d="M545.754 569.699C579.409 540.368 604.415 500.306 623.292 461.459C651.336 403.748 666.263 331.742 627.12 275.629C604.538 243.263 569.262 222.829 530.104 215.134C492.431 207.742 455.794 209.339 423.392 186.199C390.622 162.769 362.102 133.545 332.764 106.339C257.337 36.3793 120.292 56.4433 56.6459 150.639C-7.00033 244.834 10.3379 367.198 71.6279 423.958C126.666 474.949 203.456 484.915 264.228 524.779C294.342 544.579 315.399 573.712 347.31 591.096C384.425 611.305 429.929 619.595 471.743 609.272C500.208 602.237 524.67 588.073 545.754 569.699Z" fill="#205683"/>
<path opacity="0.7" d="M545.754 569.699C579.409 540.368 604.415 500.306 623.292 461.459C651.336 403.748 666.263 331.742 627.12 275.629C604.538 243.263 569.262 222.829 530.104 215.134C492.431 207.742 455.794 209.339 423.392 186.199C390.622 162.769 362.102 133.545 332.764 106.339C257.337 36.3793 120.292 56.4433 56.6459 150.639C-7.00033 244.834 10.3379 367.198 71.6279 423.958C126.666 474.949 203.456 484.915 264.228 524.779C294.342 544.579 315.399 573.712 347.31 591.096C384.425 611.305 429.929 619.595 471.743 609.272C500.208 602.237 524.67 588.073 545.754 569.699Z" fill="white"/>
<path d="M608.487 585.882L603.216 537.927" stroke="#263238" stroke-width="0.985332" stroke-linecap="round" stroke-linejoin="round"/>
<path d="M603.189 539.273C603.189 539.273 593.723 532.132 593.723 515.803C593.723 499.475 606.348 486.222 606.348 486.222C606.348 486.222 620.036 502.551 616.877 518.866C613.717 535.181 603.189 539.273 603.189 539.273Z" fill="#205683" stroke="#263238" stroke-width="0.985332" stroke-linecap="round" stroke-linejoin="round"/>
<path d="M603.216 537.927L605.627 501.891" stroke="#263238" stroke-width="0.985332" stroke-linecap="round" stroke-linejoin="round"/>
<path d="M613.349 582.344C617.943 570.866 623.553 559.794 630.115 549.252" stroke="#263238" stroke-width="0.985332" stroke-linecap="round" stroke-linejoin="round"/>
<path d="M625.157 557.925C625.157 557.925 619.9 547.457 627.336 532.845C634.773 518.232 652.152 511.725 652.152 511.725C652.152 511.725 656.987 532.224 646.704 545.517C636.421 558.809 625.157 557.925 625.157 557.925Z" fill="#205683" stroke="#263238" stroke-width="0.985332" stroke-linecap="round" stroke-linejoin="round"/>
<path d="M625.157 557.925L644.321 527.393" stroke="#263238" stroke-width="0.985332" stroke-linecap="round" stroke-linejoin="round"/>
<path d="M599.947 586.621C597.092 577.401 593.21 568.509 588.37 560.103L581.002 547.8" stroke="#263238" stroke-width="0.985332" stroke-linecap="round" stroke-linejoin="round"/>
<path d="M586.926 557.317C581.112 559.048 574.94 559.324 568.986 558.119C563.032 556.914 557.49 554.268 552.876 550.427C536.532 537.121 537.445 509.969 537.445 509.969C537.445 509.969 569.125 505.587 581.914 522.984C585.622 527.855 588.021 533.544 588.896 539.537C589.771 545.53 589.094 551.641 586.926 557.317Z" fill="#205683" stroke="#263238" stroke-width="0.985332" stroke-linecap="round" stroke-linejoin="round"/>
<path d="M586.926 557.317L549.376 519.394" stroke="#263238" stroke-width="0.985332" stroke-linecap="round" stroke-linejoin="round"/>
<path d="M625.811 575.613H585.728V613.708H625.811V575.613Z" fill="#263238" stroke="#263238" stroke-width="0.985332" stroke-linecap="round" stroke-linejoin="round"/>
<path d="M558.842 38.28H290.719V257.202H558.842V38.28Z" fill="white" stroke="#263238" stroke-width="0.985332" stroke-linecap="round" stroke-linejoin="round"/>
<path d="M346.371 161.357H344.191L343.824 158.954H341.181L340.8 161.357H338.825L341.018 148.064H344.178L346.371 161.357ZM341.454 157.146H343.524L342.489 150.414L341.454 157.146Z" fill="#263238"/>
<path d="M349.421 148.064V158.321C349.421 159.271 349.857 159.641 350.538 159.641C351.219 159.641 351.669 159.298 351.669 158.321V148.064H353.698V158.189C353.698 160.314 352.609 161.528 350.484 161.528C348.359 161.528 347.27 160.314 347.27 158.189V148.064H349.421Z" fill="#263238"/>
<path d="M354.542 148.064H361.202V149.965H358.955V161.357H356.844V149.965H354.596L354.542 148.064Z" fill="#263238"/>
<path d="M364.308 161.357H362.143V148.064H364.308V153.767H366.746V148.064H368.953V161.357H366.746V155.668H364.308V161.357Z" fill="#263238"/>
<path d="M372.67 153.661H375.626V155.562H372.67V159.522H376.389V161.423H370.464V148.064H376.334V149.965H372.616L372.67 153.661Z" fill="#263238"/>
<path d="M379.644 151.8V161.423H377.71V148.064H380.434L382.654 155.984V148.064H384.574V161.357H382.354L379.644 151.8Z" fill="#263238"/>
<path d="M385.446 148.064H392.12V149.965H389.859V161.357H387.707V149.965H385.446V148.064Z" fill="#263238"/>
<path d="M393.073 148.064H395.225V161.357H393.073V148.064Z" fill="#263238"/>
<path d="M403.043 156.407V158.176C403.043 160.301 401.953 161.515 399.829 161.515C397.704 161.515 396.614 160.301 396.614 158.176V151.259C396.614 149.12 397.717 147.906 399.829 147.906C401.94 147.906 403.043 149.12 403.043 151.259V152.579H401.013V151.153C401.013 150.203 400.578 149.833 399.897 149.833C399.216 149.833 398.78 150.203 398.78 151.153V158.334C398.78 159.284 399.202 159.654 399.897 159.654C400.591 159.654 401.013 159.324 401.013 158.334V156.433L403.043 156.407Z" fill="#263238"/>
<path d="M411.324 161.357H409.145L408.777 158.954H406.148L405.767 161.357H403.792L405.985 148.064H409.145L411.324 161.357ZM406.407 157.146H408.477L407.442 150.414L406.407 157.146Z" fill="#263238"/>
<path d="M410.956 148.064H417.63V149.965H415.41V161.357H413.258V149.965H410.997L410.956 148.064Z" fill="#263238"/>
<path d="M420.722 153.661H423.678V155.562H420.722V159.522H424.454V161.423H418.57V148.064H424.454V149.965H420.722V153.661Z" fill="#263238"/>
<path d="M430.841 156.948L428.117 148.064H430.392L432.04 154.123L433.688 148.064H435.744L433.02 156.948V161.357H430.868L430.841 156.948Z" fill="#263238"/>
<path d="M436.112 151.259C436.112 150.419 436.457 149.613 437.07 149.019C437.683 148.425 438.514 148.091 439.381 148.091C440.248 148.091 441.079 148.425 441.692 149.019C442.306 149.613 442.65 150.419 442.65 151.259V158.176C442.65 159.016 442.306 159.822 441.692 160.416C441.079 161.01 440.248 161.344 439.381 161.344C438.514 161.344 437.683 161.01 437.07 160.416C436.457 159.822 436.112 159.016 436.112 158.176V151.259ZM438.264 158.308C438.264 159.258 438.7 159.628 439.381 159.628C440.062 159.628 440.498 159.271 440.498 158.308V151.127C440.498 150.176 440.062 149.807 439.381 149.807C438.7 149.807 438.264 150.176 438.264 151.127V158.308Z" fill="#263238"/>
<path d="M446.096 148.064V158.321C446.096 159.271 446.532 159.641 447.213 159.641C447.894 159.641 448.33 159.298 448.33 158.321V148.064H450.373V158.189C450.373 160.314 449.283 161.528 447.159 161.528C445.034 161.528 443.944 160.314 443.944 158.189V148.064H446.096Z" fill="#263238"/>
<path d="M456.352 161.357C456.171 160.83 456.106 160.273 456.162 159.72V157.634C456.162 156.407 455.726 155.945 454.8 155.945H454.05V161.357H451.898V148.064H455.154C457.387 148.064 458.341 149.068 458.341 151.127V152.17C458.411 152.691 458.319 153.221 458.076 153.691C457.833 154.162 457.451 154.551 456.979 154.81C458.055 155.245 458.409 156.248 458.409 157.634V159.72C458.367 160.267 458.445 160.816 458.64 161.33L456.352 161.357ZM453.996 149.965V154.044H454.908C455.712 154.044 456.202 153.701 456.202 152.645V151.325C456.202 150.374 455.875 150.005 455.113 150.005L453.996 149.965Z" fill="#263238"/>
<path d="M469.74 161.357H467.561L467.193 158.954H464.537L464.169 161.357H462.194L464.442 148.064H467.601L469.74 161.357ZM464.823 157.146H466.893L465.804 150.48L464.823 157.146Z" fill="#263238"/>
<path d="M476.973 156.407V158.176C476.973 160.301 475.869 161.515 473.758 161.515C471.647 161.515 470.544 160.301 470.544 158.176V151.259C470.544 149.12 471.634 147.906 473.758 147.906C475.883 147.906 476.973 149.12 476.973 151.259V152.579H474.93V151.153C474.93 150.203 474.494 149.833 473.813 149.833C473.132 149.833 472.696 150.203 472.696 151.153V158.334C472.696 159.284 473.132 159.654 473.813 159.654C474.494 159.654 474.93 159.324 474.93 158.334V156.433L476.973 156.407Z" fill="#263238"/>
<path d="M484.531 156.407V158.176C484.531 160.301 483.442 161.515 481.317 161.515C479.192 161.515 478.103 160.301 478.103 158.176V151.259C478.103 149.12 479.206 147.906 481.317 147.906C483.428 147.906 484.531 149.12 484.531 151.259V152.579H482.488V151.153C482.488 150.203 482.066 149.833 481.371 149.833C480.677 149.833 480.254 150.203 480.254 151.153V158.334C480.254 159.284 480.69 159.654 481.371 159.654C482.052 159.654 482.488 159.324 482.488 158.334V156.433L484.531 156.407Z" fill="#263238"/>
<path d="M485.662 151.259C485.633 150.825 485.696 150.389 485.848 149.98C486 149.571 486.236 149.196 486.543 148.878C486.85 148.561 487.221 148.308 487.633 148.135C488.045 147.962 488.489 147.873 488.938 147.873C489.387 147.873 489.831 147.962 490.242 148.135C490.654 148.308 491.025 148.561 491.332 148.878C491.639 149.196 491.876 149.571 492.027 149.98C492.179 150.389 492.242 150.825 492.213 151.259V158.176C492.242 158.61 492.179 159.045 492.027 159.454C491.876 159.864 491.639 160.239 491.332 160.556C491.025 160.874 490.654 161.127 490.242 161.299C489.831 161.472 489.387 161.562 488.938 161.562C488.489 161.562 488.045 161.472 487.633 161.299C487.221 161.127 486.85 160.874 486.543 160.556C486.236 160.239 486 159.864 485.848 159.454C485.696 159.045 485.633 158.61 485.662 158.176V151.259ZM487.828 158.308C487.828 159.258 488.25 159.628 488.945 159.628C489.639 159.628 490.061 159.271 490.061 158.308V151.127C490.061 150.176 489.626 149.807 488.945 149.807C488.264 149.807 487.828 150.176 487.828 151.127V158.308Z" fill="#263238"/>
<path d="M495.659 148.064V158.321C495.659 159.271 496.095 159.641 496.776 159.641C497.457 159.641 497.892 159.298 497.892 158.321V148.064H499.935V158.189C499.935 160.314 498.846 161.528 496.721 161.528C494.596 161.528 493.507 160.314 493.507 158.189V148.064H495.659Z" fill="#263238"/>
<path d="M503.328 151.8V161.423H501.394V148.064H504.118L506.338 155.984V148.064H508.258V161.357H506.038L503.328 151.8Z" fill="#263238"/>
<path d="M509.143 148.064H515.816V149.965H513.555V161.357H511.404V149.965H509.143V148.064Z" fill="#263238"/>
<path d="M456.4 107.299C459.101 91.0469 447.697 75.7503 430.928 73.1326C414.159 70.515 398.376 81.5676 395.675 97.8193C392.974 114.071 404.378 129.368 421.147 131.985C437.916 134.603 453.699 123.55 456.4 107.299Z" fill="#F3D977"/>
<path d="M439.45 95.6868C439.45 98.2584 438.663 100.772 437.189 102.91C435.715 105.049 433.619 106.715 431.168 107.699C428.716 108.683 426.019 108.941 423.417 108.439C420.814 107.937 418.424 106.699 416.548 104.881C414.671 103.062 413.394 100.746 412.876 98.2234C412.358 95.7012 412.624 93.087 413.639 90.7112C414.655 88.3354 416.374 86.3047 418.581 84.876C420.787 83.4474 423.38 82.6848 426.034 82.6848C429.592 82.6848 433.004 84.0547 435.52 86.493C438.036 88.9314 439.45 92.2385 439.45 95.6868Z" fill="#263238"/>
<path d="M403.956 123.288C406.821 126.157 410.252 128.438 414.045 129.995C417.837 131.553 421.915 132.356 426.034 132.356C430.153 132.356 434.231 131.553 438.023 129.995C441.816 128.438 445.247 126.157 448.112 123.288V122.43C448.114 120.924 447.809 119.433 447.216 118.041C446.623 116.65 445.752 115.385 444.654 114.32C443.556 113.254 442.252 112.409 440.817 111.833C439.382 111.256 437.844 110.959 436.29 110.959H415.792C412.653 110.959 409.642 112.168 407.423 114.319C405.203 116.47 403.956 119.388 403.956 122.43V123.288Z" fill="#263238"/>
<path d="M518.201 185.315H332.669V207.174H518.201V185.315Z" stroke="#263238" stroke-width="0.985332" stroke-miterlimit="10"/>
<path d="M518.201 218.09H332.669V239.95H518.201V218.09Z" fill="#7BBB41" stroke="#263238" stroke-width="0.985332" stroke-miterlimit="10"/>
<path d="M394.898 196.865V198.185H391.548V202.91H395.634V204.23H389.995V190.978H395.634V192.298H391.548V196.838L394.898 196.865Z" fill="#BDBDBD"/>
<path d="M398.426 204.283H397.064V190.978H399.067L402.24 200.587V190.978H403.602V204.283H402.009L398.495 193.525L398.426 204.283Z" fill="#BDBDBD"/>
<path d="M407.088 204.283V192.324H404.514V191.004H411.106V192.324H408.6V204.283H407.088Z" fill="#BDBDBD"/>
<path d="M417.086 196.865V198.185H413.735V202.91H417.821V204.23H412.183V190.978H417.821V192.298H413.735V196.838L417.086 196.865Z" fill="#BDBDBD"/>
<path d="M422.316 190.978C424.481 190.978 425.38 192.047 425.38 194.014V195.096C425.474 195.674 425.355 196.267 425.044 196.769C424.732 197.27 424.249 197.65 423.678 197.842C424.931 198.198 425.394 199.162 425.394 200.614V202.686C425.354 203.232 425.447 203.779 425.666 204.283H424.127C423.909 203.77 423.82 203.213 423.868 202.66V200.64C423.868 199.135 423.147 198.66 421.866 198.66H420.858V204.349H419.333V190.978H422.316ZM421.934 197.248C423.147 197.248 423.868 196.865 423.868 195.426V194.106C423.868 192.918 423.419 192.284 422.275 192.284H420.858V197.208L421.934 197.248Z" fill="#BDBDBD"/>
<path d="M436.085 194.185V195.36H434.627V194.04C434.627 192.839 434.137 192.113 433.02 192.113C431.903 192.113 431.413 192.839 431.413 194.04V201.062C431.413 202.264 431.917 202.99 433.02 202.99C434.124 202.99 434.627 202.264 434.627 201.062V199.333H436.085V200.983C436.085 203.003 435.091 204.336 432.979 204.336C430.868 204.336 429.901 203.016 429.901 200.983V194.106C429.901 192.1 430.882 190.766 432.979 190.766C435.077 190.766 436.085 192.179 436.085 194.185Z" fill="#BDBDBD"/>
<path d="M437.352 194.185C437.352 192.153 438.387 190.846 440.484 190.846C442.582 190.846 443.644 192.166 443.644 194.185V201.063C443.644 203.082 442.609 204.415 440.484 204.415C438.359 204.415 437.352 203.095 437.352 201.063V194.185ZM438.863 201.142C438.863 202.356 439.395 203.069 440.484 203.069C441.574 203.069 442.119 202.356 442.119 201.142V194.119C442.119 192.918 441.601 192.192 440.484 192.192C439.367 192.192 438.863 192.918 438.863 194.119V201.142Z" fill="#BDBDBD"/>
<path d="M448.302 190.978C450.441 190.978 451.421 192.232 451.421 194.291V200.996C451.421 203.029 450.441 204.283 448.302 204.283H445.088V190.978H448.302ZM448.302 202.858C449.392 202.858 449.923 202.198 449.923 200.983V194.146C449.923 192.931 449.392 192.258 448.275 192.258H446.627V202.818L448.302 202.858Z" fill="#BDBDBD"/>
<path d="M457.727 196.865V198.185H454.377V202.91H458.463V204.23H452.811V190.978H458.463V192.298H454.377V196.838L457.727 196.865Z" fill="#BDBDBD"/>
<path d="M412.958 223.872C415.083 223.872 416.064 225.192 416.064 227.185V233.891C416.064 235.924 415.083 237.178 412.958 237.178H409.73V223.872H412.958ZM412.958 235.831C414.062 235.831 414.593 235.158 414.593 233.944V227.106C414.593 225.892 414.062 225.232 412.945 225.232H411.324V235.792L412.958 235.831Z" fill="#263238"/>
<path d="M417.385 227.04C417.385 225.007 418.42 223.687 420.517 223.687C422.615 223.687 423.677 225.007 423.677 227.04V233.917C423.74 234.346 423.704 234.784 423.572 235.198C423.44 235.612 423.215 235.992 422.912 236.311C422.61 236.631 422.239 236.881 421.824 237.045C421.41 237.208 420.964 237.281 420.517 237.257C418.42 237.257 417.385 235.937 417.385 233.917V227.04ZM418.883 233.996C418.883 235.211 419.414 235.91 420.517 235.91C421.621 235.91 422.138 235.211 422.138 233.996V227.04C422.138 225.839 421.634 225.113 420.517 225.113C419.401 225.113 418.883 225.839 418.883 227.04V233.996Z" fill="#263238"/>
<path d="M426.469 237.178H425.107V223.872H427.041L430.215 233.495V223.872H431.577V237.178H429.983L426.469 226.42V237.178Z" fill="#263238"/>
<path d="M438.019 229.772V231.092H434.669V235.831H438.755V237.151H433.116V223.872H438.769V225.192H434.683V229.733L438.019 229.772Z" fill="#263238"/>
<path d="M558.842 38.28H290.719V48.8664H558.842V38.28Z" fill="#205683" stroke="#263238" stroke-width="0.985332" stroke-linecap="round" stroke-linejoin="round"/>
<path d="M111.303 376.556V374.603" stroke="#263238" stroke-width="0.985332" stroke-linecap="round" stroke-linejoin="round"/>
<path d="M111.303 370.735V203.372C111.303 199.991 111.99 196.643 113.326 193.519C114.661 190.395 116.619 187.557 119.086 185.167C121.554 182.776 124.484 180.881 127.707 179.588C130.931 178.295 134.386 177.631 137.875 177.632H264.228" stroke="#263238" stroke-width="0.985332" stroke-linecap="round" stroke-linejoin="round" stroke-dasharray="2.93 2.93"/>
<path d="M266.285 177.632H268.287" stroke="#263238" stroke-width="0.985332" stroke-linecap="round" stroke-linejoin="round"/>
<path d="M281.567 178.702L259.856 166.544V190.846L281.567 178.702Z" fill="#263238"/>
<path d="M488.822 539.563H490.838" stroke="#263238" stroke-width="0.985332" stroke-linecap="round" stroke-linejoin="round"/>
<path d="M494.828 539.563H502.278C509.347 539.563 516.127 536.842 521.126 531.997C526.124 527.153 528.933 520.582 528.933 513.731V269.531" stroke="#263238" stroke-width="0.985332" stroke-linecap="round" stroke-linejoin="round" stroke-dasharray="2.93 2.93"/>
<path d="M528.933 267.604V265.663" stroke="#263238" stroke-width="0.985332" stroke-linecap="round" stroke-linejoin="round"/>
<path d="M481.222 538.428L502.932 550.572V526.271L481.222 538.428Z" fill="#263238"/>
<path d="M367.455 379.975C368.612 377.839 370.352 376.052 372.484 374.807C374.616 373.562 377.06 372.907 379.549 372.913H496.068C496.068 372.913 504.485 372.913 501.966 388.423C499.446 403.933 464.906 498.63 456.475 527.195C448.044 555.76 446.369 616.176 446.369 616.176H306.546C306.546 616.176 317.755 471.94 367.455 379.975Z" fill="white" stroke="#263238" stroke-width="0.985332" stroke-linecap="round" stroke-linejoin="round"/>
<path d="M475.856 399.855C464.074 426.492 439.082 531.855 435.104 616.176H446.368C446.368 616.176 448.098 555.72 456.474 527.195C464.851 498.67 499.432 403.933 501.965 388.423C504.498 372.913 496.068 372.913 496.068 372.913C496.068 372.913 485.294 378.497 475.856 399.855Z" fill="#263238" stroke="#263238" stroke-width="0.985332" stroke-linecap="round" stroke-linejoin="round"/>
<path d="M254.286 375.052C254.286 375.052 232.902 372.531 218.778 358.143C204.655 343.755 249.478 292.446 273.408 280.355C297.339 268.264 307.199 271.577 332.86 289.912C358.52 308.246 383.567 337.669 383.254 357.403C382.94 377.137 371.854 386.575 387.34 396.304C402.826 406.032 446.655 433.66 453.056 452.641C459.457 471.623 448.357 495.238 422.656 508.081C396.955 520.925 354.788 520.331 314.173 507.606C273.558 494.881 264.719 454.621 269.949 438.24C275.179 421.859 289.017 410.599 284.849 398.138C280.681 385.678 254.286 375.052 254.286 375.052Z" fill="#263238" stroke="#263238" stroke-width="0.985332" stroke-linecap="round" stroke-linejoin="round"/>
<path d="M272.618 431.64C272.618 431.64 250.499 428.657 240.284 435.059C230.069 441.461 179.594 525.07 179.594 525.07L151.714 488.704L127.538 499.224C127.538 499.224 138.87 541.728 152.054 562.874C165.238 584.021 172.756 586.159 177.278 585.46C190.735 583.387 229.715 539.682 229.715 539.682L243.88 585.354L234.264 618.552H413.367L391.643 583.44C391.643 583.44 419.987 456.72 412.768 443.296C405.549 429.871 363.491 431.64 350.266 431.64H312.402C306.664 432.743 300.832 433.326 294.982 433.382C287.502 433.171 280.037 432.59 272.618 431.64Z" fill="#205683"/>
<path d="M392.256 435.917L392.624 436.062L389.192 444.537L388.81 444.391L392.256 435.917ZM391.316 445.342L391.684 445.487L395.13 437.013L394.749 436.867L391.316 445.342ZM406.939 472.309L406.544 472.204L405.032 477.418H405.454L406.939 472.309ZM409.526 473.022L409.131 472.917L407.769 477.418H408.178L409.526 473.022ZM393.182 473.313L394.463 477.418H394.885L393.523 473.194L393.182 473.313ZM396.151 472.455L395.757 472.56L397.268 477.418H397.691L396.151 472.455ZM407.116 453.064L411.787 445.144L411.447 444.946L406.775 452.866L407.116 453.064ZM409.458 454.384L413.83 446.979C413.83 446.754 413.83 446.556 413.749 446.345L409.104 454.199L409.458 454.384ZM412.523 465.643L413.299 464.653L413.381 463.927L412.196 465.406L412.523 465.643ZM400.959 457.605L407.47 464.205L407.756 463.941L401.245 457.341L400.959 457.605ZM398.903 459.36L405.399 465.96L405.699 465.696L399.189 459.096L398.903 459.36ZM391.725 459.36L391.834 458.977L386.808 457.776V458.172L391.725 459.36ZM386.74 455.4L392.392 456.786L392.488 456.403L386.808 455.083L386.74 455.4ZM393.046 467.188L392.924 466.818L386.808 468.877V469.287L393.046 467.188ZM392.079 464.337L386.74 466.053V466.462L392.188 464.706L392.079 464.337ZM389.124 538.085L392.556 529.611L392.188 529.465L388.742 537.94L389.124 538.085ZM394.681 530.416L391.248 538.89L391.616 539.035L395.062 530.561L394.681 530.416ZM394.503 570.148L393.455 566.755L393.06 566.861L394.34 570.953L394.503 570.148ZM401.313 513.15L400.932 513.282L404.119 521.849H404.201L404.323 521.255L401.313 513.15ZM403.452 512.398L405.127 516.873C405.127 516.622 405.222 516.371 405.263 516.107L403.833 512.266L403.452 512.398ZM409.417 490.09L409.635 490.789L409.758 489.997L409.417 490.09ZM400.455 489.575L399.911 498.657H400.306L400.85 489.562L400.455 489.575ZM402.594 498.815H402.989L403.534 489.72H403.139L402.594 498.815ZM391.139 489.179L391.33 488.836L386.699 486.42V486.869L391.139 489.179ZM386.699 483.899L392.406 486.869L392.597 486.526L386.808 483.556L386.699 483.899ZM390.268 497.64L390.009 497.35L386.808 500.28V500.795L390.268 497.64ZM388.511 495.673L388.252 495.37L386.699 496.69V497.205L388.511 495.673ZM386.808 511.289V511.698L395.28 508.491L395.13 508.134L386.808 511.289ZM386.808 508.491V508.913L394.299 506.075L394.149 505.705L386.808 508.491ZM391.807 525.017L391.902 524.634L386.808 523.525V523.921L391.807 525.017ZM392.392 522.483L392.488 522.1L386.808 520.859V521.255L392.392 522.483ZM391.725 553.08L391.834 552.711L386.74 551.457V551.866L391.725 553.08ZM386.808 549.12L392.46 550.519L392.556 550.137L386.808 548.737V549.12ZM393.114 560.908L392.992 560.538L386.808 562.518V562.941L393.114 560.908ZM392.27 558.439L392.147 558.07L386.808 559.786V560.195L392.27 558.439ZM404.378 481.061L405.454 477.405H405.032L403.997 480.955L404.378 481.061ZM408.232 477.405H407.824L406.584 481.655L406.966 481.774L408.232 477.405ZM395.838 482.011L396.233 481.906L394.871 477.405H394.449L395.838 482.011ZM398.794 481.153L397.636 477.405H397.214L398.412 481.272L398.794 481.153ZM401.041 607.015L404.228 615.569L404.609 615.437L401.422 606.883L401.041 607.015ZM407.129 614.553L403.942 605.999L403.561 606.131L406.761 614.685L407.129 614.553ZM411.637 616.665L411.242 616.559L410.67 618.539H411.093L411.637 616.665ZM386.808 580.602L391.248 582.912L391.439 582.569L386.808 580.153V580.602ZM386.808 577.645L392.256 580.536L392.338 580.14L386.808 577.21V577.645ZM390.309 591.36L390.05 591.057L386.808 593.868V594.37L390.309 591.36ZM388.552 589.38L388.293 589.09L386.74 590.41V590.925L388.552 589.38ZM395.062 601.735L386.808 604.93V605.352L395.28 602.131L395.062 601.735ZM386.74 602.514L394.231 599.676L394.081 599.32L386.74 602.092V602.514ZM386.74 617.127V617.536L391.248 618.513H391.766L391.834 618.249L386.74 617.127ZM392.324 616.084L392.42 615.701L386.74 614.46V614.869L392.324 616.084ZM292.122 444.352L292.49 444.497L295.936 436.023L295.554 435.877L292.122 444.352ZM294.614 445.302L294.996 445.447L298.428 436.973L298.06 436.828L294.614 445.302ZM382.627 457.116L386.713 458.133V457.737L382.695 456.747L382.627 457.116ZM383.39 454.225L383.281 454.595L386.74 455.453V455.044L383.39 454.225ZM386.808 469.287V468.877L384.084 469.762L384.207 470.131L386.808 469.287ZM383.158 467.28L383.281 467.65L386.74 466.541V466.132L383.158 467.28ZM375.912 477.418H376.375L378.146 474.435L377.805 474.237L375.912 477.418ZM379.018 477.418H379.481L380.475 475.728L380.134 475.53L379.018 477.418ZM358.765 473.775L358.451 474.025L361.325 477.418H361.843L358.765 473.775ZM360.535 472.375L364.798 477.418H365.316L360.848 472.138L360.535 472.375ZM350.375 476.824L350.007 476.956L350.17 477.418H350.606L350.375 476.824ZM352.527 476.071L353.031 477.391H353.453L352.908 475.913L352.527 476.071ZM337.79 477.391L338.948 472.969L338.553 472.877L337.368 477.391H337.79ZM341.154 473.511L340.132 477.391H340.5L341.494 473.616L341.154 473.511ZM310.277 472.283L309.882 472.177L308.357 477.391H308.779L310.277 472.283ZM312.852 472.996L312.47 472.89L311.108 477.391H311.53L312.852 472.996ZM296.508 473.286L297.788 477.391H298.21L296.848 473.167L296.508 473.286ZM299.463 472.428L299.082 472.534L300.594 477.391H301.002L299.463 472.428ZM310.441 453.037L315.113 445.117L314.758 444.919L310.087 452.839L310.441 453.037ZM312.429 454.146L312.77 454.331L317.442 446.411L317.087 446.213L312.429 454.146ZM365.724 459.954L374.373 463.505L374.523 463.149L365.874 459.598L365.724 459.954ZM364.676 462.343L373.324 465.894L373.474 465.538L364.757 462L364.676 462.343ZM371.962 448.668L372.344 448.774L374.904 440.022L374.509 439.903L371.962 448.668ZM374.537 449.381L374.932 449.487L377.478 440.722L377.097 440.616L374.537 449.381ZM360.481 433.092L363.205 441.804L363.586 441.699L360.93 432.96L360.481 433.092ZM363.041 432.34L365.765 441.052L366.147 440.946L363.423 432.234L363.041 432.34ZM333.363 469.656L330.639 460.944L330.258 461.05L332.982 469.775L333.363 469.656ZM335.937 468.904L333.213 460.192L332.819 460.297L335.543 469.023L335.937 468.904ZM346.561 463.861L355.864 462.541V462.159L346.561 463.479V463.861ZM346.942 466.435L356.245 465.115V464.733L346.942 466.053V466.435ZM353.752 455.334L354.147 455.427L356.245 446.556L355.85 446.464L353.752 455.334ZM358.465 447.045L356.367 455.915L356.762 456.007L358.86 447.137L358.465 447.045ZM325.518 450.279L325.859 450.49L330.884 442.794L330.544 442.596L325.518 450.279ZM333.159 444.193L332.819 443.982L327.793 451.678L328.133 451.889L333.159 444.193ZM324.429 435.336L333.036 431.693V431.601H332.301L324.306 434.98L324.429 435.336ZM325.341 437.356L325.505 437.712L334.112 434.082L333.949 433.726L325.341 437.356ZM317.169 431.601H316.747L314.622 438.755L315.017 438.861L317.169 431.601ZM312.47 438.201L314.377 431.601H313.955L312.075 438.042L312.47 438.201ZM349.326 434.399L348.4 431.64H347.978L348.863 434.491L349.326 434.399ZM346.37 435.257L346.765 435.151L345.676 431.653H345.254L346.37 435.257ZM315.535 465.432L315.848 465.67L321.568 458.449L321.242 458.212L315.535 465.432ZM317.659 467.016L317.986 467.254L323.693 460.02L323.38 459.783L317.659 467.016ZM304.285 457.631L310.795 464.231L311.095 463.967L304.584 457.367L304.285 457.631ZM302.269 459.36L308.779 465.96L309.065 465.696L302.568 459.096L302.269 459.36ZM337.926 447.691L337.763 448.048L346.411 451.612L346.575 451.242L337.926 447.691ZM338.811 445.659L347.46 449.209L347.623 448.853L338.975 445.302L338.811 445.659ZM295.105 459.36L295.2 458.977L290.106 457.776V458.172L295.105 459.36ZM290.12 455.4L295.758 456.786L295.867 456.403L290.106 455.083L290.12 455.4ZM296.426 467.188L296.29 466.818L290.106 468.877V469.287L296.426 467.188ZM295.445 464.337L290.12 466.053V466.462L295.568 464.706L295.445 464.337ZM295.554 529.465L292.122 537.94L292.49 538.085L295.936 529.611L295.554 529.465ZM298.06 530.416L294.614 538.89L294.996 539.035L298.428 530.561L298.06 530.416ZM382.913 484.863L386.74 486.869V486.42L383.104 484.519L382.913 484.863ZM384.37 482.223L384.18 482.553L386.74 483.873V483.424L384.37 482.223ZM386.808 500.28L383.008 503.475L383.267 503.765L386.808 500.795V500.28ZM381.51 501.798L386.808 497.363V496.848L381.251 501.495L381.51 501.798ZM386.386 511.513L386.522 511.883L386.808 511.764V511.355L386.386 511.513ZM385.405 509.098L385.542 509.454L386.808 508.979V508.557L385.405 509.098ZM386.767 523.618L382.681 522.72L382.586 523.103L386.754 524.014L386.767 523.618ZM386.767 520.978L383.281 520.212L383.199 520.595L386.767 521.374V520.978ZM386.767 551.536L382.722 550.44L382.627 550.823L386.713 551.839L386.767 551.536ZM383.417 548.025L383.308 548.407L386.808 549.12V548.724L383.417 548.025ZM386.808 562.941V562.518L384.084 563.403L384.207 563.772L386.808 562.941ZM386.808 560.195V559.786L383.226 560.934L383.349 561.304L386.808 560.195ZM331.511 482.038L322.862 478.474L322.712 478.83L331.361 482.394L331.511 482.038ZM321.664 481.233L330.312 484.783L330.462 484.427L321.814 480.876L321.664 481.233ZM378.119 568.075L377.778 567.891L375.912 571.072H376.375L378.119 568.075ZM380.448 569.395L380.107 569.197L378.99 571.098H379.453L380.448 569.395ZM358.424 567.693L361.298 571.098H361.815L358.737 567.442L358.424 567.693ZM360.508 566.043L364.771 571.098H365.289L360.821 565.818L360.508 566.043ZM350.347 570.504L349.98 570.636L350.143 571.098H350.579L350.347 570.504ZM352.499 569.752L353.003 571.072H353.426L352.881 569.593L352.499 569.752ZM338.879 566.676L338.484 566.571L337.299 571.098H337.776L338.879 566.676ZM341.086 567.217L340.064 571.098H340.5L341.494 567.31L341.086 567.217ZM310.209 565.977L309.814 565.871L308.289 571.151H308.711L310.209 565.977ZM312.783 566.689L312.402 566.584L311.04 571.098H311.462L312.783 566.689ZM296.439 566.98L297.72 571.098H298.142L296.78 566.874L296.439 566.98ZM299.014 566.241L300.525 571.098H300.934L299.395 566.122L299.014 566.241ZM314.69 538.653L310.019 546.573L310.373 546.771L315.044 538.851L314.69 538.653ZM317.414 540.131L317.06 539.933L312.402 547.853L312.743 548.051L317.414 540.131ZM355.4 496.756L349.408 489.72L349.108 489.971L355.046 497.02L355.4 496.756ZM353.33 498.406L347.31 491.331L346.997 491.581L352.949 498.63L353.33 498.406ZM338.607 494.551L341.794 503.105L342.175 502.973L338.988 494.419L338.607 494.551ZM341.14 493.667L344.327 502.221L344.695 502.089L341.508 493.535L341.14 493.667ZM374.496 556.842L365.847 553.291L365.697 553.648L374.346 557.199L374.496 556.842ZM373.447 559.245L364.798 555.681L364.648 556.05L373.297 559.601L373.447 559.245ZM374.482 533.61L371.935 542.375L372.316 542.481L374.877 533.716L374.482 533.61ZM377.451 534.429L377.07 534.323L374.509 543.075L374.904 543.18L377.451 534.429ZM363.6 535.366L360.876 526.654L360.494 526.759L363.218 535.485L363.6 535.366ZM366.174 534.613L363.45 525.901L363.055 526.007L365.779 534.732L366.174 534.613ZM338.934 511.817L334.262 519.737L334.603 519.922L339.274 512.002L338.934 511.817ZM336.945 510.721L336.591 510.523L331.933 518.443L332.274 518.628L336.945 510.721ZM321.078 517.915L315.126 510.84L314.813 511.091L320.765 518.14L321.078 517.915ZM323.148 516.265L317.21 509.217L316.897 509.467L322.835 516.516L323.148 516.265ZM304.353 513.401L307.54 521.968L307.921 521.836L304.72 513.269L304.353 513.401ZM306.872 512.517L310.059 521.083L310.441 520.951L307.254 512.385L306.872 512.517ZM371.826 519.447L372.221 519.539L374.537 510.721L374.142 510.616L371.826 519.447ZM377.138 511.355L376.743 511.263L374.428 520.08L374.823 520.173L377.138 511.355ZM361.775 518.76L353.126 515.209L352.976 515.566L361.625 519.13L361.775 518.76ZM362.823 516.371L354.12 512.82L353.97 513.177L362.619 516.727L362.823 516.371ZM333.363 563.31L330.639 554.585L330.258 554.704L332.982 563.416L333.363 563.31ZM335.937 562.558L333.213 553.833L332.819 553.951L335.543 562.663L335.937 562.558ZM355.864 556.235V555.852L346.561 557.172V557.555L355.864 556.235ZM356.245 558.809V558.426L346.942 559.746V560.129L356.245 558.809ZM354.12 549.12L356.218 540.25L355.823 540.157L353.725 549.041L354.12 549.12ZM356.735 549.701L358.833 540.831L358.438 540.738L356.34 549.622L356.735 549.701ZM330.857 536.501L330.517 536.29L325.518 543.933L325.859 544.144L330.857 536.501ZM333.132 537.887L332.791 537.676L327.765 545.371L328.106 545.583L333.132 537.887ZM333.009 525.387L332.859 525.03L324.238 528.673L324.401 529.03L333.009 525.387ZM334.085 527.776L333.922 527.419L325.314 531.063L325.477 531.419L334.085 527.776ZM317.537 523.816L317.156 523.697L314.622 532.396L315.017 532.501L317.537 523.816ZM312.402 531.868L314.949 523.103L314.568 522.997L312.007 531.762L312.402 531.868ZM349.244 528L346.52 519.288L346.125 519.394L348.849 528.119L349.244 528ZM343.592 520.08L346.316 528.792L346.711 528.687L343.987 519.975L343.592 520.08ZM330.53 497.64L323.026 503.131L323.271 503.435L330.775 497.957L330.53 497.64ZM324.892 505.56L332.383 500.069L332.151 499.765L324.646 505.243L324.892 505.56ZM318.409 498.023L315.807 489.271L315.412 489.39L318.027 498.129L318.409 498.023ZM312.838 490.103L315.439 498.96L315.834 498.855L313.26 490.077L312.838 490.103ZM303.876 489.588L303.331 498.67H303.726L304.271 489.575L303.876 489.588ZM306.001 498.828H306.409L306.954 489.733H306.546L306.001 498.828ZM321.432 552.037L321.105 551.8L315.399 559.033L315.712 559.271L321.432 552.037ZM323.557 553.621L323.244 553.384L317.523 560.617L317.85 560.855L323.557 553.621ZM304.148 551.219L310.659 557.819L310.958 557.542L304.448 550.942L304.148 551.219ZM302.269 553.08L308.779 559.68L309.065 559.416L302.568 552.816L302.269 553.08ZM370.668 502.379L370.355 502.141L364.444 509.217L364.757 509.467L370.668 502.379ZM368.271 500.505L362.36 507.58L362.674 507.831L368.571 500.742L368.271 500.505ZM369.919 487.08H369.524L368.462 496.122H368.871L369.919 487.08ZM366.855 486.737L365.806 495.792H366.201L367.25 486.75L366.855 486.737ZM346.575 544.949L337.926 541.398L337.763 541.755L346.411 545.305L346.575 544.949ZM338.811 539.352L347.46 542.903L347.623 542.547L338.975 538.996L338.811 539.352ZM294.56 489.311L294.751 488.968L290.12 486.552V487.001L294.56 489.311ZM290.12 484.031L295.827 487.001L296.017 486.658L290.106 483.556L290.12 484.031ZM293.688 497.772L293.416 497.482L290.106 500.28V500.795L293.688 497.772ZM291.931 495.805L291.659 495.502L290.12 496.822V497.337L291.931 495.805ZM298.428 508.161L290.12 511.315V511.725L298.578 508.517L298.428 508.161ZM297.597 506.101L297.461 505.732L290.106 508.491V508.913L297.597 506.101ZM295.118 525.043L295.2 524.661L290.12 523.552V523.948L295.118 525.043ZM290.106 521.255L295.69 522.483L295.786 522.1L290.106 520.859V521.255ZM295.105 553.08L295.2 552.711L290.12 551.457V551.866L295.105 553.08ZM290.106 549.12L295.745 550.519L295.854 550.137L290.106 548.737V549.12ZM296.412 560.908L296.276 560.538L290.106 562.518V562.941L296.412 560.908ZM295.568 558.439L295.432 558.07L290.106 559.786V560.195L295.568 558.439ZM373.093 482.13L373.433 482.315L376.334 477.405H375.912L373.093 482.13ZM375.422 483.45L375.762 483.635L379.44 477.431H378.977L375.422 483.45ZM364.676 480.81L361.802 477.405H361.284L364.362 481.048L364.676 480.81ZM366.446 479.411L366.76 479.16L365.275 477.405H364.757L366.446 479.411ZM353.535 485.377L350.565 477.457H350.13L353.153 485.562L353.535 485.377ZM355.673 484.625L356.054 484.493L353.412 477.405H352.99L355.673 484.625ZM336.196 481.708L336.591 481.8L337.749 477.405H337.327L336.196 481.708ZM338.798 482.355L339.193 482.447L340.555 477.405H340.132L338.798 482.355ZM307.676 481.035L308.738 477.378H308.316L307.281 480.929L307.676 481.035ZM311.53 477.378H311.108L309.869 481.629L310.264 481.747L311.53 477.378ZM299.136 481.985L299.518 481.879L298.156 477.378H297.733L299.136 481.985ZM302.092 481.127L300.92 477.378H300.512L301.697 481.246L302.092 481.127ZM383.09 578.213L382.899 578.556L386.726 580.563V580.114L383.09 578.213ZM384.357 575.929L384.166 576.273L386.726 577.593V577.157L384.357 575.929ZM386.808 594.37V593.868L383.008 597.049L383.267 597.34L386.808 594.37ZM386.808 590.938V590.423L381.251 595.083L381.51 595.373L386.808 590.938ZM386.386 605.088L386.522 605.458L386.808 605.352V604.93L386.386 605.088ZM385.405 602.673L385.542 603.042L386.808 602.554V602.131L385.405 602.673ZM382.681 616.282L382.586 616.665L386.754 617.575V617.166L382.681 616.282ZM386.767 614.5L383.281 613.734L383.199 614.117L386.767 614.909V614.5ZM331.511 575.679L322.862 572.128L322.712 572.484L331.361 576.035L331.511 575.679ZM321.664 574.873L330.312 578.437L330.462 578.068L321.814 574.517L321.664 574.873ZM349.108 583.572L355.046 590.621L355.36 590.37L349.408 583.335L349.108 583.572ZM353.289 592.02L347.31 584.985L346.997 585.222L352.949 592.271L353.289 592.02ZM342.135 596.64L338.948 588.073L338.566 588.205L341.753 596.772L342.135 596.64ZM344.654 595.756L341.467 587.189L341.099 587.321L344.287 595.888L344.654 595.756ZM339.206 605.669L338.866 605.471L334.194 613.391L334.535 613.589L339.206 605.669ZM336.877 604.349L336.523 604.164L331.865 612.084L332.206 612.282L336.877 604.349ZM321.01 611.543L315.126 604.56L314.813 604.798L320.765 611.847L321.01 611.543ZM323.08 609.893L317.142 602.857L316.829 603.095L322.767 610.144L323.08 609.893ZM307.853 615.463L304.652 606.91L304.285 607.042L307.472 615.595L307.853 615.463ZM310.373 614.579L307.186 606.025L306.804 606.157L309.991 614.711L310.373 614.579ZM374.387 604.375L373.992 604.283L371.676 613.101L372.071 613.193L374.387 604.375ZM376.988 605.009L376.593 604.917L374.278 613.747L374.673 613.84L376.988 605.009ZM361.775 612.48L353.126 608.929L352.976 609.286L361.625 612.837L361.775 612.48ZM362.823 610.078L354.12 606.461L353.97 606.817L362.619 610.381L362.823 610.078ZM317.142 617.351L316.761 618.671H317.183L317.523 617.509L317.142 617.351ZM314.935 616.744L314.554 616.638L313.968 618.618H314.391L314.935 616.744ZM346.152 613.101L347.869 618.618H348.291L346.547 612.982L346.152 613.101ZM343.973 613.734L343.592 613.84L345.063 618.618H345.485L343.973 613.734ZM330.775 591.783L330.53 591.479L323.026 596.957L323.271 597.274L330.775 591.783ZM332.383 593.868L332.151 593.551L324.646 599.029L324.892 599.346L332.383 593.868ZM318.027 591.928L318.409 591.809L315.807 583.071L315.412 583.176L318.027 591.928ZM315.834 592.535L313.26 583.731L312.879 583.836L315.48 592.575L315.834 592.535ZM303.726 592.535L304.271 583.453H303.876L303.331 592.548L303.726 592.535ZM306.45 592.693L306.995 583.599H306.586L306.042 592.68L306.45 592.693ZM370.709 596.099L370.396 595.848L364.485 602.923L364.798 603.174L370.709 596.099ZM368.312 594.211L362.401 601.287L362.714 601.537L368.612 594.462L368.312 594.211ZM369.96 580.8H369.565L368.503 589.842H368.911L369.96 580.8ZM366.896 580.47L365.847 589.512H366.242L367.291 580.457L366.896 580.47ZM294.601 583.031L294.791 582.688L290.161 580.272V580.721L294.601 583.031ZM296.058 580.391L290.106 577.21V577.645L295.813 580.629L296.058 580.391ZM293.688 591.36L293.416 591.057L290.106 593.855V594.37L293.688 591.36ZM291.931 589.38L291.659 589.09L290.12 590.41V590.925L291.931 589.38ZM298.428 601.735L290.12 604.89V605.313L298.578 602.092L298.428 601.735ZM290.12 602.514L297.597 599.676L297.461 599.32L290.12 602.092V602.514ZM290.12 617.127V617.536L294.628 618.513H295.132L295.2 618.249L290.12 617.127ZM295.704 616.084L295.799 615.701L290.12 614.46V614.869L295.704 616.084ZM373.447 575.943L376.348 571.032H375.912L373.188 575.745L373.447 575.943ZM378.99 571.032L375.435 577.038L375.776 577.236L379.453 571.032H378.99ZM364.376 574.675L364.689 574.425L361.815 571.032H361.298L364.376 574.675ZM366.46 573.025L366.773 572.775L365.289 571.032H364.771L366.46 573.025ZM353.548 578.992L350.579 571.072H350.143L353.167 579.163L353.548 578.992ZM355.686 578.253L356.068 578.107L353.426 571.032H353.003L355.686 578.253ZM336.618 575.428L337.776 571.032H337.354L336.224 575.335L336.618 575.428ZM338.825 575.969L339.22 576.061L340.582 571.032H340.16L338.825 575.969ZM307.703 574.649L308.766 571.006H308.343L307.308 574.543L307.703 574.649ZM311.135 571.006L309.896 575.256L310.291 575.362L311.558 571.006H311.135ZM299.163 575.613L299.545 575.494L298.183 571.006H297.761L299.163 575.613ZM301.724 574.86L302.119 574.755L300.948 571.006H300.539L301.724 574.86ZM286.02 457.156L290.106 458.172V457.776L286.088 456.786L286.02 457.156ZM286.783 454.265L286.688 454.635L290.147 455.493V455.083L286.783 454.265ZM290.106 469.287V468.877L287.382 469.762L287.518 470.131L290.106 469.287ZM286.538 467.28L286.66 467.65L290.12 466.541V466.132L286.538 467.28ZM279.21 477.418H279.673L281.444 474.435L281.09 474.237L279.21 477.418ZM282.302 477.418H282.765L283.773 475.728L283.419 475.53L282.302 477.418ZM262.063 473.775L261.749 474.025L264.623 477.418H265.141L262.063 473.775ZM263.833 472.375L268.083 477.418H268.614L264.146 472.138L263.833 472.375ZM253.673 476.824L253.291 476.956L253.468 477.418H253.891L253.673 476.824ZM255.825 476.071L256.315 477.391H256.751L256.206 475.913L255.825 476.071ZM241.074 477.391L242.232 472.969L241.851 472.877L240.666 477.391H241.074ZM244.452 473.511L243.43 477.391H243.853L244.833 473.616L244.452 473.511ZM212.077 477.391L213.562 472.283L213.18 472.177L211.655 477.391H212.077ZM216.163 472.996L215.768 472.89L214.406 477.391H214.828L216.163 472.996ZM268.982 459.954L277.63 463.505L277.794 463.149L269.145 459.598L268.982 459.954ZM267.933 462.343L276.622 465.96L276.786 465.604L268.137 462L267.933 462.343ZM275.22 448.668L275.615 448.774L278.161 440.022L277.78 439.903L275.22 448.668ZM277.807 449.381L278.189 449.487L280.749 440.722L280.368 440.616L277.807 449.381ZM263.847 433.092L266.571 441.804L266.952 441.699L264.228 432.96L263.847 433.092ZM266.421 432.34L269.145 441.052L269.526 440.946L266.802 432.234L266.421 432.34ZM233.651 461.05L236.375 469.775L236.757 469.656L234.033 460.944L233.651 461.05ZM239.317 468.97L236.593 460.258L236.212 460.363L238.936 469.089L239.317 468.97ZM249.941 463.927L259.243 462.607V462.225L249.941 463.545V463.927ZM250.254 466.119V466.501L259.557 465.181V464.799L250.254 466.119ZM259.597 446.622L259.202 446.53L257.119 455.4L257.5 455.493L259.597 446.622ZM261.831 447.111L259.734 455.981L260.115 456.073L262.212 447.203L261.831 447.111ZM228.816 450.279L229.157 450.49L234.182 442.794L233.842 442.596L228.816 450.279ZM231.091 451.678L231.431 451.889L236.457 444.193L236.116 443.982L231.091 451.678ZM252.583 434.346L251.711 431.535H251.303L252.202 434.399L252.583 434.346ZM249.628 435.204L250.009 435.099L249.042 431.957L248.647 432.036L249.628 435.204ZM218.792 465.379L219.105 465.617L224.812 458.397L224.499 458.159L218.792 465.379ZM226.964 459.967L226.637 459.73L220.93 466.963L221.257 467.201L226.964 459.967ZM241.265 447.705L241.115 448.061L249.764 451.625L249.914 451.255L241.265 447.705ZM242.164 445.672L250.812 449.223L250.962 448.866L242.314 445.315L242.164 445.672ZM198.907 529.558L195.474 538.032L195.842 538.177L199.274 529.703L198.907 529.558ZM201.399 530.508L197.967 538.983L198.335 539.128L201.78 530.653L201.399 530.508ZM286.252 484.955L290.093 486.961V486.513L286.442 484.612L286.252 484.955ZM287.723 482.315L287.532 482.645L290.093 483.965V483.516L287.723 482.315ZM290.106 500.28L286.293 503.475L286.565 503.765L290.106 500.795V500.28ZM284.808 501.798L290.106 497.363V496.848L284.549 501.495L284.808 501.798ZM289.67 511.513L289.82 511.883L290.106 511.764V511.355L289.67 511.513ZM290.106 508.557L288.744 509.098L288.894 509.454L290.161 508.979L290.106 508.557ZM290.106 523.591L286.02 522.694L285.938 523.077L290.106 523.987V523.591ZM286.619 520.159L286.524 520.542L290.106 521.321V520.925L286.619 520.159ZM290.106 551.417L286.088 550.427L285.979 550.81L290.065 551.826L290.106 551.417ZM286.742 547.906L286.647 548.289L290.106 549.12V548.724L286.742 547.906ZM290.106 562.941V562.518L287.382 563.403L287.518 563.772L290.106 562.941ZM290.106 560.195V559.786L286.524 560.934L286.647 561.304L290.106 560.195ZM226.092 478.83L234.741 482.394L234.904 482.038L226.256 478.474L226.092 478.83ZM225.043 481.233L233.692 484.783L233.856 484.427L225.207 480.876L225.043 481.233ZM281.512 568.075L281.158 567.891L279.21 571.072H279.673L281.512 568.075ZM283.841 569.395L283.487 569.197L282.37 571.098H282.833L283.841 569.395ZM261.817 567.693L264.691 571.098H265.209L262.131 567.442L261.817 567.693ZM263.901 566.043L268.151 571.098H268.682L264.215 565.818L263.901 566.043ZM253.741 570.504L253.359 570.636L253.536 571.098H253.959L253.741 570.504ZM255.893 569.752L256.383 571.072H256.819L256.274 569.593L255.893 569.752ZM240.734 571.072H241.142L242.3 566.65L241.919 566.544L240.734 571.072ZM244.52 567.191L243.499 571.072H243.921L244.901 567.283L244.52 567.191ZM200.214 566.848L199.833 566.953L200.582 569.356L200.909 569.065L200.214 566.848ZM202.788 566.095L202.393 566.214L202.761 567.349L203.074 567.046L202.788 566.095ZM218.438 538.811L218.084 538.626L213.412 546.546L213.766 546.744L218.438 538.811ZM216.095 548.051L220.767 540.131L220.413 539.933L215.741 547.853L216.095 548.051ZM258.78 496.729L252.787 489.72L252.474 489.971L258.426 497.02L258.78 496.729ZM256.696 498.379L250.744 491.331L250.445 491.581L256.383 498.63L256.696 498.379ZM241.987 494.525L245.174 503.079L245.555 502.947L242.368 494.393L241.987 494.525ZM244.506 493.641L247.693 502.194L248.075 502.062L244.888 493.509L244.506 493.641ZM277.848 556.816L269.199 553.265L269.036 553.621L277.685 557.172L277.848 556.816ZM276.799 559.218L268.151 555.654L267.987 556.024L276.636 559.575L276.799 559.218ZM277.835 533.584L275.274 542.349L275.669 542.454L278.216 533.689L277.835 533.584ZM280.804 534.402L280.422 534.297L277.848 543.048L278.23 543.154L280.804 534.402ZM266.952 535.339L264.228 526.627L263.847 526.733L266.571 535.458L266.952 535.339ZM269.526 534.587L266.802 525.875L266.421 525.981L269.145 534.706L269.526 534.587ZM242.286 511.791L237.615 519.711L237.969 519.895L242.64 511.975L242.286 511.791ZM239.957 510.471L235.286 518.391L235.64 518.575L240.311 510.655L239.957 510.471ZM218.165 511.065L224.117 518.113L224.417 517.863L218.506 510.84L218.165 511.065ZM220.236 509.415L226.188 516.463L226.501 516.213L220.644 509.19L220.236 509.415ZM207.692 513.375L210.879 521.941L211.26 521.809L208.073 513.243L207.692 513.375ZM210.225 512.49L213.412 521.057L213.78 520.925L210.593 512.358L210.225 512.49ZM275.124 519.447L275.519 519.539L277.821 510.721L277.44 510.616L275.124 519.447ZM280.436 511.355L280.041 511.263L277.726 520.08L278.121 520.173L280.436 511.355ZM265.154 518.76L256.506 515.209L256.342 515.566L264.991 519.13L265.154 518.76ZM266.203 516.371L257.554 512.82L257.391 513.177L266.04 516.727L266.203 516.371ZM236.239 553.951L238.963 562.663L239.344 562.558L236.62 553.833L236.239 553.951ZM259.257 556.235V555.852L249.954 557.172V557.555L259.257 556.235ZM259.625 558.809V558.426L250.322 559.746V560.129L259.625 558.809ZM257.5 549.12L259.597 540.25L259.202 540.157L257.119 549.041L257.5 549.12ZM260.115 549.701L262.212 540.831L261.831 540.738L259.734 549.622L260.115 549.701ZM233.883 536.29L230.342 541.715L230.491 542.217L234.264 536.448L233.883 536.29ZM236.157 537.676L231.363 545.015L231.513 545.503L236.498 537.887L236.157 537.676ZM227.604 528.673L227.767 529.03L236.375 525.387L236.212 525.03L227.604 528.673ZM237.451 527.776L237.288 527.419L228.68 531.063L228.83 531.419L237.451 527.776ZM220.903 523.816L220.508 523.697L217.92 532.396L218.302 532.501L220.903 523.816ZM215.755 531.868L218.315 523.103L217.934 522.997L215.373 531.762L215.755 531.868ZM252.624 528L249.9 519.288L249.519 519.394L252.243 528.119L252.624 528ZM246.958 520.08L249.682 528.792L250.063 528.687L247.339 519.975L246.958 520.08ZM233.896 497.64L226.405 503.131L226.651 503.435L234.142 497.957L233.896 497.64ZM228.013 505.204L228.258 505.521L235.762 500.029L235.517 499.726L228.013 505.204ZM218.792 489.364L221.393 498.102L221.788 497.997L219.173 489.245L218.792 489.364ZM216.218 490.077L218.819 498.828L219.2 498.723L216.558 490.077H216.218ZM206.684 498.643H207.092L207.637 489.549H207.228L206.684 498.643ZM210.307 489.733H209.912L209.367 498.828H209.762L210.307 489.733ZM213.603 556.644L207.855 550.849L207.569 551.113L213.33 556.921L213.603 556.644ZM205.921 552.684L205.662 553.08L211.492 558.954L211.764 558.677L205.921 552.684ZM274.021 502.26L273.708 502.023L267.81 509.098L268.123 509.349L274.021 502.26ZM271.624 500.386L265.713 507.461L266.026 507.712L271.937 500.623L271.624 500.386ZM273.299 487.08H272.89L271.842 496.122H272.237L273.299 487.08ZM270.221 486.737L269.172 495.792H269.581L270.63 486.75L270.221 486.737ZM249.941 544.949L241.292 541.398L241.142 541.755L249.791 545.305L249.941 544.949ZM250.99 542.547L242.341 538.996L242.191 539.352L250.84 542.903L250.99 542.547ZM197.054 497.785L196.796 497.495L196.482 497.759L195.801 498.841L197.054 497.785ZM201.808 508.174L193.5 511.329V511.738L201.958 508.53L201.808 508.174ZM200.977 506.115L200.827 505.745L193.5 508.53V508.953L200.977 506.115ZM198.484 525.057L198.58 524.674L193.5 523.565V523.961L198.484 525.057ZM199.084 522.522L199.165 522.139L193.5 520.899V521.295L199.084 522.522ZM198.471 553.08L198.58 552.711L193.5 551.457V551.866L198.471 553.08ZM193.5 549.12L199.138 550.519L199.234 550.137L193.5 548.724V549.12ZM199.792 560.908L199.669 560.538L193.5 562.505V562.927L199.792 560.908ZM198.948 558.439L198.825 558.07L193.5 559.773V560.182L198.948 558.439ZM276.486 482.143L276.84 482.328L279.741 477.418H279.21L276.486 482.143ZM278.815 483.463L279.169 483.648L282.833 477.444H282.37L278.815 483.463ZM268.083 480.823L265.209 477.418H264.691L267.769 481.061L268.083 480.823ZM269.84 479.424L270.153 479.173L268.682 477.418H268.151L269.84 479.424ZM256.928 485.391L253.959 477.471H253.536L256.546 485.575L256.928 485.391ZM259.08 484.638L259.461 484.506L256.819 477.418H256.383L259.08 484.638ZM239.603 481.721L239.998 481.813L241.142 477.418H240.734L239.603 481.721ZM242.205 482.368L242.586 482.46L243.948 477.418H243.526L242.205 482.368ZM210.688 480.969L211.083 481.074L212.145 477.418H211.723L210.688 480.969ZM214.937 477.418H214.515L213.276 481.668L213.657 481.787L214.937 477.418ZM286.293 578.596L290.133 580.602V580.153L286.483 578.253L286.293 578.596ZM287.764 575.956L287.573 576.299L290.133 577.619V577.183L287.764 575.956ZM290.106 594.37V593.855L286.293 597.049L286.565 597.34L290.106 594.37ZM290.106 590.938V590.423L284.549 595.083L284.808 595.373L290.106 590.938ZM289.67 605.088L289.82 605.458L290.106 605.352V604.93L289.67 605.088ZM288.69 602.673L288.84 603.042L290.106 602.554V602.131L288.69 602.673ZM285.966 616.282L285.884 616.665L290.052 617.575V617.166L285.966 616.282ZM290.052 614.5L286.565 613.734L286.47 614.117L290.052 614.909V614.5ZM252.474 583.572L258.426 590.621L258.739 590.37L252.787 583.335L252.474 583.572ZM256.655 592.02L250.704 584.985L250.404 585.222L256.342 592.271L256.655 592.02ZM245.514 596.64L242.79 589.275L242.6 589.921L245.147 596.772L245.514 596.64ZM248.034 595.756L244.847 587.189L244.466 587.321L247.653 595.888L248.034 595.756ZM242.586 605.669L242.232 605.471L237.56 613.391L237.914 613.589L242.586 605.669ZM239.862 604.191L236.988 609.18L236.539 610.725L240.311 604.336L239.862 604.191ZM277.739 604.402L277.358 604.309L275.042 613.127L275.437 613.219L277.739 604.402ZM280.354 605.035L279.959 604.943L277.644 613.774L278.039 613.866L280.354 605.035ZM265.154 612.48L256.506 608.929L256.342 609.286L264.991 612.837L265.154 612.48ZM266.203 610.078L257.554 606.527L257.391 606.883L266.04 610.447L266.203 610.078ZM249.532 613.101L251.248 618.618H251.671L249.914 612.982L249.532 613.101ZM247.353 613.734L246.958 613.84L248.443 618.618H248.865L247.353 613.734ZM274.035 596.046L273.721 595.795L267.824 602.871L268.137 603.121L274.035 596.046ZM271.637 594.159L265.726 601.234L266.04 601.485L271.951 594.409L271.637 594.159ZM273.299 580.747H272.89L271.842 589.789H272.237L273.299 580.747ZM270.221 580.417L269.172 589.459H269.581L270.63 580.404L270.221 580.417ZM276.827 576.048L279.728 571.138H279.21L276.486 575.85L276.827 576.048ZM282.356 571.138L278.802 577.144L279.156 577.342L282.819 571.138H282.356ZM267.756 574.781L268.069 574.53L265.195 571.138H264.678L267.756 574.781ZM269.826 573.131L270.139 572.88L268.668 571.138H268.137L269.826 573.131ZM256.914 579.097L253.945 571.177H253.523L256.533 579.269L256.914 579.097ZM259.066 578.358L259.448 578.213L256.805 571.138H256.369L259.066 578.358ZM240.134 573.329L240.366 574.055L241.129 571.138H240.72L240.134 573.329ZM242.191 576.075L242.572 576.167L243.934 571.138H243.512L242.191 576.075ZM193.064 511.513L193.213 511.883L193.5 511.764V511.355L193.064 511.513ZM193.5 508.557L192.138 509.098L192.287 509.454L193.554 508.979L193.5 508.557ZM189.318 523.077L193.5 523.987V523.591L189.414 522.694L189.318 523.077ZM189.917 520.542L193.5 521.321V520.925L189.999 520.08L189.917 520.542ZM193.5 551.483L189.414 550.493L189.318 550.876L193.404 551.892L193.5 551.483ZM190.135 547.972L190.04 548.355L193.5 549.199V548.803L190.135 547.972ZM193.5 563.007V562.584L190.776 563.469L190.898 563.838L193.5 563.007ZM193.5 560.261V559.852L189.904 561L190.026 561.37L193.5 560.261ZM184.864 568.181L184.524 567.996L182.644 571.177H183.107L184.864 568.181ZM187.193 569.501L186.853 569.303L185.736 571.204H186.199L187.193 569.501ZM165.184 567.798L168.044 571.204H168.575L165.497 567.547L165.184 567.798ZM167.254 566.148L171.517 571.204H172.034L167.567 565.924L167.254 566.148ZM159.627 569.725L159.245 569.857L159.749 571.177H160.185L159.627 569.725ZM153.77 491.713L155.132 493.403L153.77 491.647V491.713ZM145.312 494.657L148.513 503.211L148.88 503.079L145.734 494.393L145.312 494.657ZM147.845 493.773L151.032 502.326L151.414 502.194L148.227 493.641L147.845 493.773ZM181.146 556.816L172.497 553.265L172.348 553.621L180.996 557.172L181.146 556.816ZM180.097 559.218L171.462 555.654L171.299 556.024L179.948 559.575L180.097 559.218ZM181.146 533.584L178.586 542.349L178.967 542.454L181.528 533.689L181.146 533.584ZM184.115 534.402L183.72 534.297L181.173 543.048L181.555 543.154L184.115 534.402ZM170.264 535.339L167.54 526.627L167.158 526.733L169.882 535.458L170.264 535.339ZM172.824 534.587L170.1 525.875L169.719 525.981L172.443 534.706L172.824 534.587ZM145.966 511.989L145.625 511.791L140.954 519.711L141.308 519.895L145.966 511.989ZM143.637 510.669L143.296 510.471L138.625 518.391L138.979 518.575L143.637 510.669ZM168.52 518.76L159.872 515.209L159.722 515.566L168.371 519.13L168.52 518.76ZM169.569 516.371L160.92 512.82L160.771 513.177L169.419 516.727L169.569 516.371ZM153.307 557.502L162.609 556.182V555.799L153.307 557.119V557.502ZM153.688 560.076L162.991 558.756V558.373L153.688 559.693V560.076ZM160.498 548.988L160.893 549.067L162.991 540.197L162.596 540.105L160.498 548.988ZM165.211 540.685L163.113 549.569L163.508 549.648L165.606 540.778L165.211 540.685ZM139.605 524.977L136.023 526.495L136.159 526.865L139.769 525.334L139.605 524.977ZM140.668 527.367L136.895 528.964L137.031 529.333L140.831 527.723L140.668 527.367ZM152.926 519.447L155.65 528.172L156.045 528.053L153.321 519.341L152.926 519.447ZM150.351 520.199L153.075 528.911L153.47 528.805L150.746 520.093L150.351 520.199ZM129.785 503.316L130.03 503.62L137.535 498.142L137.29 497.825L129.785 503.316ZM139.156 500.214L138.911 499.911L131.406 505.389L131.651 505.705L139.156 500.214ZM153.334 544.975L144.685 541.425L144.522 541.781L153.171 545.332L153.334 544.975ZM145.571 539.379L154.219 542.929L154.383 542.573L145.734 538.956L145.571 539.379ZM189.863 578.319L189.672 578.662L190.013 578.398L189.863 578.319ZM191.13 576.035L190.939 576.378L191.933 576.893L192.26 576.616L191.13 576.035ZM175.698 585.565H176.107L176.665 580.681H176.27L175.698 585.565ZM172.974 585.117L173.369 585.235L173.928 580.391H173.533L172.974 585.117ZM183.039 571.072H182.576L179.852 575.784L180.193 575.982L183.039 571.072ZM186.131 571.072H185.668L182.113 577.078L182.467 577.276L186.131 571.072ZM171.067 574.715L171.367 574.464L168.507 571.072H167.976L171.067 574.715ZM173.138 573.065L173.451 572.814L171.966 571.072H171.449L173.138 573.065ZM159.681 571.072L161.629 576.352L162.378 577.197L160.117 571.125L159.681 571.072Z" fill="white"/>
<path d="M272.618 431.64C272.618 431.64 250.499 428.657 240.284 435.059C230.069 441.461 179.594 525.07 179.594 525.07L151.714 488.704L127.538 499.224C127.538 499.224 138.87 541.728 152.054 562.874C165.238 584.021 172.756 586.159 177.278 585.46C190.735 583.387 229.715 539.682 229.715 539.682L243.88 585.354L234.264 618.552H413.367L391.643 583.44C391.643 583.44 419.987 456.72 412.768 443.296C405.549 429.871 363.491 431.64 350.266 431.64H312.402C306.664 432.743 300.832 433.326 294.982 433.382C287.502 433.171 280.037 432.59 272.618 431.64Z" stroke="#263238" stroke-width="0.985332"/>
<path d="M229.729 539.682C224.544 529.641 222.53 518.341 223.941 507.197C226.569 489.416 237.928 469.946 237.928 469.946C237.928 469.946 215.265 501.626 215.265 512.186C215.265 522.746 222.007 538.19 222.007 538.19L216.123 554.466L229.729 539.682Z" fill="#263238" stroke="#263238" stroke-width="0.985332" stroke-linecap="round" stroke-linejoin="round"/>
<path d="M291.373 414.124L291.972 432.762L275.751 433.343C275.751 433.343 272.4 501.732 286.837 513.968C301.275 526.205 344.859 431.64 344.859 431.64L329.877 428.723L325.069 390.865L291.373 414.124Z" fill="#CFCFCF" stroke="#263238" stroke-width="0.985332" stroke-linecap="round" stroke-linejoin="round"/>
<path d="M326.799 398.257L292.108 429.937V418.731L326.799 398.257Z" fill="#263238" stroke="#263238" stroke-width="0.985332" stroke-linecap="round" stroke-linejoin="round"/>
<path d="M286.838 513.969C286.838 513.969 288.581 502.96 297.312 488.572L286.838 513.969Z" fill="white"/>
<path d="M286.838 513.969C286.838 513.969 288.581 502.96 297.312 488.572" stroke="#263238" stroke-width="0.985332" stroke-linecap="round" stroke-linejoin="round"/>
<path d="M284.386 309.025L244.888 348.823C247.991 357.294 249.495 366.236 249.328 375.223C248.865 389.321 262.09 410.058 272.904 419.694C283.718 429.33 305.783 414.52 314.023 409.293C319.526 405.678 324.657 401.558 329.345 396.99C332.351 396.864 335.274 396.001 337.842 394.482C340.41 392.963 342.538 390.838 344.028 388.305C344.028 388.305 286.633 328.865 284.386 309.025Z" fill="#CFCFCF" stroke="#263238" stroke-width="0.985332" stroke-linecap="round" stroke-linejoin="round"/>
<path d="M273.681 349.893C275.046 352.589 275.93 355.49 276.296 358.473C276.418 362.155 269.758 379.408 270.712 380.556C271.665 381.705 274.648 385.506 276.977 385.018" stroke="#263238" stroke-width="0.985332" stroke-linecap="round" stroke-linejoin="round"/>
<path d="M290.106 368.755C295.672 366.735 301.791 366.664 307.404 368.557" stroke="#263238" stroke-width="0.492666" stroke-linecap="round" stroke-linejoin="round"/>
<path d="M259.366 370.128C262.341 369.318 265.415 368.901 268.505 368.887" stroke="#263238" stroke-width="0.492666" stroke-linecap="round" stroke-linejoin="round"/>
<path d="M268.696 340.138C267.17 340.028 265.638 340.261 264.22 340.82C262.803 341.379 261.538 342.248 260.524 343.358C257.105 347.173 255.443 350.5 254.585 347.807C253.727 345.114 257.541 340.164 258.889 339.161C260.238 338.158 266.557 334.224 268.696 340.138Z" fill="#263238"/>
<path d="M285.598 337.92C289.604 337.906 293.557 338.81 297.134 340.56C302.35 343.332 299.858 337.709 296.194 336.098C292.53 334.488 286.183 334.646 285.598 337.92Z" fill="#263238"/>
<path d="M346.071 404.118C346.316 408.078 344.205 411.378 341.386 411.536C338.567 411.695 336.074 408.632 335.829 404.699C335.584 400.765 337.286 390.614 340.106 390.456C342.925 390.298 345.84 400.171 346.071 404.118Z" fill="#205683" stroke="#263238" stroke-width="0.985332" stroke-linecap="round" stroke-linejoin="round"/>
<path d="M267.075 363C267.266 365.64 266.23 367.778 264.773 367.871C263.316 367.963 262.049 365.944 261.818 363.356C261.586 360.769 262.662 358.578 264.119 358.486C265.577 358.393 266.952 360.466 267.075 363Z" fill="#263238"/>
<path d="M296.466 361.984C296.657 364.624 295.622 366.749 294.178 366.855C292.734 366.96 291.454 364.927 291.209 362.327C290.964 359.727 292.067 357.562 293.511 357.469C294.955 357.377 296.289 359.397 296.466 361.984Z" fill="#263238"/>
<path d="M276.786 392.529C276.786 392.529 283.719 394.68 293.13 386.879" stroke="#263238" stroke-width="0.985332" stroke-linecap="round" stroke-linejoin="round"/>
<path d="M151.713 488.73L139.033 472.269C138.447 467.887 137.317 458.832 137.126 452.72C136.867 444.404 137.289 439.322 132.414 431.943C127.538 424.565 113.931 412.909 112.651 410.203C111.371 407.497 107.666 415.127 109.995 420.077C112.324 425.027 114.449 426.545 114.449 426.545C114.449 426.545 89.4016 414.48 88.5707 416.447C87.7399 418.413 100.229 453.195 105.95 462.369C108.333 466.197 114.939 471.319 118.126 475.754C119.685 477.943 121.021 480.272 122.117 482.711C125.086 494.947 128.545 508.411 130.289 508.899C134.252 510.021 151.073 510.285 151.713 488.73Z" fill="#CFCFCF" stroke="#263238" stroke-width="0.985332" stroke-miterlimit="10"/>
<path d="M116.111 450.912C115.882 450.972 115.643 450.987 115.408 450.957C115.173 450.927 114.946 450.852 114.741 450.737C114.536 450.621 114.356 450.468 114.213 450.285C114.069 450.102 113.964 449.894 113.904 449.671L93.978 378.273C93.8715 377.841 93.939 377.386 94.1668 377.001C94.3946 376.616 94.7655 376.329 95.2038 376.2C95.6643 376.083 96.1539 376.146 96.5668 376.375C96.9798 376.605 97.2827 376.983 97.4103 377.428L117.391 448.8C117.503 449.244 117.433 449.714 117.194 450.108C116.954 450.503 116.566 450.791 116.111 450.912Z" fill="#263238" stroke="#263238" stroke-width="0.985332" stroke-miterlimit="10"/>
<path d="M101.742 405.491C101.742 405.491 82.5102 415.338 83.6952 417.265C84.8801 419.192 88.3941 426.07 90.0012 425.911C91.6084 425.753 103.281 416.513 104.125 415.351C104.97 414.19 101.742 405.491 101.742 405.491Z" fill="#CFCFCF" stroke="#263238" stroke-width="0.985332" stroke-miterlimit="10"/>
<path d="M105.174 417.582C105.174 417.582 89.1979 429 89.7154 430.663C90.233 432.326 98.0645 452.008 99.4265 453.605C100.788 455.202 113.292 449.645 113.292 449.645L105.174 417.582Z" fill="#CFCFCF" stroke="#263238" stroke-width="0.985332" stroke-miterlimit="10"/>
<path d="M107.599 428.195C107.599 428.195 92.3035 439.837 93.3114 440.207" stroke="#263238" stroke-width="0.985332" stroke-miterlimit="10"/>
<path d="M110.486 440.814L97.6289 448.114" stroke="#263238" stroke-width="0.985332" stroke-miterlimit="10"/>
<path d="M114.408 426.545L121.463 433.224C121.463 433.224 112.093 452.615 121.068 463.32" stroke="#263238" stroke-width="0.985332" stroke-miterlimit="10"/>
<path d="M392.787 435.772C392.787 435.772 409.908 433.607 417.303 447.322C424.699 461.036 470.912 582.252 471.661 593.842C472.41 605.431 441.125 608.269 430.706 603.227C420.286 598.184 391.208 538.283 388.266 530.336" fill="#205683"/>
<path d="M398.23 519.708L395.692 528.452L396.085 528.559L398.622 519.815L398.23 519.708Z" fill="white"/>
<path d="M404.147 495.053L401.545 486.301L401.15 486.42L403.765 495.158L404.147 495.053Z" fill="white"/>
<path d="M402.873 520.576L400.308 529.338L400.701 529.446L403.266 520.684L402.873 520.576Z" fill="white"/>
<path d="M406.816 514.84L400.864 507.791L400.551 508.042L406.503 515.077L406.816 514.84Z" fill="white"/>
<path d="M419.662 524.284L411.048 527.926L411.211 528.289L419.825 524.647L419.662 524.284Z" fill="white"/>
<path d="M418.857 534.785L418.516 534.574L413.49 542.269L413.831 542.481L418.857 534.785Z" fill="white"/>
<path d="M398.576 487.133L401.178 495.885L401.573 495.766L398.958 487.027L398.576 487.133Z" fill="white"/>
<path d="M411.215 540.87L411.555 541.081L416.581 533.399L416.241 533.188L411.215 540.87Z" fill="white"/>
<path d="M408.886 513.19L402.948 506.141L402.635 506.392L408.573 513.427L408.886 513.19Z" fill="white"/>
<path d="M417.894 496.76L410.382 502.233L410.627 502.549L418.14 497.077L417.894 496.76Z" fill="white"/>
<path d="M416.01 458.001L418.72 466.726L419.101 466.607L416.405 457.895L416.01 458.001Z" fill="white"/>
<path d="M416.513 495.026L416.268 494.709L408.764 500.187L409.009 500.504L416.513 495.026Z" fill="white"/>
<path d="M411.555 447.48L414.375 443.163C414.279 443.071 414.198 442.965 414.102 442.86L411.215 447.269L411.555 447.48Z" fill="white"/>
<path d="M403.315 463.914L403.642 464.152L409.349 456.918L409.036 456.681L403.315 463.914Z" fill="white"/>
<path d="M408.437 475.781L417.085 479.332L417.249 478.975L408.6 475.424L408.437 475.781Z" fill="white"/>
<path d="M418.584 457.248L421.294 465.973L421.676 465.855L418.979 457.143L418.584 457.248Z" fill="white"/>
<path d="M418.011 515.539L422.683 507.633L422.329 507.448L417.671 515.341L418.011 515.539Z" fill="white"/>
<path d="M407.562 477.852L407.408 478.205L416.06 481.762L416.214 481.41L407.562 477.852Z" fill="white"/>
<path d="M418.565 521.951L409.95 525.592L410.114 525.955L418.728 522.314L418.565 521.951Z" fill="white"/>
<path d="M439.926 603.412L439.776 603.768L444.121 605.563H445.183L439.926 603.412Z" fill="white"/>
<path d="M441.806 575.098L439.163 568.009L438.619 566.544L438.237 566.676L438.741 568.009L441.424 575.23L441.806 575.098Z" fill="white"/>
<path d="M432.762 582.173L438.714 589.221L439.013 588.971L433.075 581.922L432.762 582.173Z" fill="white"/>
<path d="M439.273 575.982L436.317 568.01L436.085 567.429L435.718 567.548L435.881 568.01L438.905 576.114L439.273 575.982Z" fill="white"/>
<path d="M441.915 555.377L432.612 556.644L432.667 557.027L441.969 555.76L441.915 555.377Z" fill="white"/>
<path d="M468.936 594.291L471.456 592.179L471.374 591.743L468.65 594L468.936 594.291Z" fill="white"/>
<path d="M401.191 462.33L401.505 462.568L407.225 455.334L406.898 455.097L401.191 462.33Z" fill="white"/>
<path d="M390.469 510.201L390.085 510.335L393.276 518.902L393.66 518.767L390.469 510.201Z" fill="white"/>
<path d="M467.166 592.324L470.762 589.314C470.717 589.175 470.681 589.034 470.653 588.892L466.907 592.033L467.166 592.324Z" fill="white"/>
<path d="M441.097 587.321L435.145 580.285L434.832 580.523L440.784 587.572L441.097 587.321Z" fill="white"/>
<path d="M392.31 486.795L391.764 495.887L392.172 495.91L392.717 486.818L392.31 486.795Z" fill="white"/>
<path d="M434.982 524.938L432.286 516.226L431.891 516.331L434.601 525.056L434.982 524.938Z" fill="white"/>
<path d="M427.21 490.433L426.839 490.563L430.028 499.13L430.4 499L427.21 490.433Z" fill="white"/>
<path d="M425.843 474.369L424.549 479.319L424.944 479.411L426.265 474.369L427.259 470.58L426.864 470.488L425.843 474.369Z" fill="white"/>
<path d="M423.079 474.368L421.948 478.672L422.343 478.764L423.487 474.368L424.659 469.946L424.264 469.854L423.079 474.368Z" fill="white"/>
<path d="M429.316 517.084L432.027 525.796L432.408 525.69L429.711 516.965L429.316 517.084Z" fill="white"/>
<path d="M424.664 491.354L424.292 491.484L427.483 500.051L427.855 499.921L424.664 491.354Z" fill="white"/>
<path d="M393.011 509.292L392.627 509.427L395.817 517.994L396.201 517.86L393.011 509.292Z" fill="white"/>
<path d="M413.831 448.8L416.119 445.302L415.874 444.933L413.49 448.602L413.831 448.8Z" fill="white"/>
<path d="M424.549 536.263L433.198 539.814L433.347 539.458L424.699 535.907L424.549 536.263Z" fill="white"/>
<path d="M400.783 442.121L400.428 441.923L395.757 449.816L396.111 450.014L400.783 442.121Z" fill="white"/>
<path d="M464.443 569.316L464.266 568.828L461.201 574.028L461.542 574.213L464.443 569.316Z" fill="white"/>
<path d="M455.658 577.632L455.263 577.592L454.2 586.634L454.609 586.674L455.658 577.632Z" fill="white"/>
<path d="M450.513 552.649L450.358 553.001L459.01 556.558L459.164 556.206L450.513 552.649Z" fill="white"/>
<path d="M462.086 568.009L463.271 566.016L463.108 565.515L461.623 568.009L458.831 572.735L459.185 572.92L462.086 568.009Z" fill="white"/>
<path d="M456.406 592.931L456.093 592.68L450.182 599.755L450.495 600.006L456.406 592.931Z" fill="white"/>
<path d="M458.736 553.173L451.544 550.216L451.395 550.572L458.913 553.661L458.736 553.173Z" fill="white"/>
<path d="M454.309 591.294L453.996 591.043L448.099 598.119L448.412 598.369L454.309 591.294Z" fill="white"/>
<path d="M444.584 537.729L444.189 537.636L442.092 546.507L442.487 546.599L444.584 537.729Z" fill="white"/>
<path d="M450.114 571.666L450.427 571.415L447.554 568.009L444.475 564.366L444.162 564.617L447.036 568.009L450.114 571.666Z" fill="white"/>
<path d="M398.086 451.11L398.44 451.308L403.112 443.401L402.758 443.216L398.086 451.11Z" fill="white"/>
<path d="M424.662 584.989L424.29 585.119L427.481 593.686L427.853 593.556L424.662 584.989Z" fill="white"/>
<path d="M460.22 601.313L459.825 601.207L459.104 603.953L459.553 603.834L460.22 601.313Z" fill="white"/>
<path d="M427.219 584.073L426.848 584.203L430.037 592.771L430.409 592.641L427.219 584.073Z" fill="white"/>
<path d="M439.763 510.127L443.358 511.606C443.358 511.434 443.222 511.263 443.168 511.104L439.912 509.784L439.763 510.127Z" fill="white"/>
<path d="M462.821 601.92L462.426 601.828L462.1 603.055L462.563 602.897L462.821 601.92Z" fill="white"/>
<path d="M416.2 575.018L409.063 572.088L409.363 572.629L416.037 575.375L416.2 575.018Z" fill="white"/>
<path d="M391.807 456.404L396.451 461.09L396.751 460.825L391.834 455.875L391.807 456.404Z" fill="white"/>
<path d="M432.762 488.532L435.949 492.294L435.499 491.159L433.116 488.281L432.762 488.532Z" fill="white"/>
<path d="M394.517 462.898L394.803 462.621L391.671 459.453L391.644 459.994L394.517 462.898Z" fill="white"/>
<path d="M446.205 523.684L448.915 532.409L449.297 532.29L446.6 523.578L446.205 523.684Z" fill="white"/>
<path d="M417.249 572.629L408.6 569.065L408.437 569.422L417.085 572.986L417.249 572.629Z" fill="white"/>
<path d="M407.225 548.988L406.898 548.75L401.191 555.971L401.505 556.208L407.225 548.988Z" fill="white"/>
<path d="M421.676 559.508L418.979 550.783L418.584 550.902L421.294 559.614L421.676 559.508Z" fill="white"/>
<path d="M419.101 560.261L416.405 551.536L416.01 551.654L418.72 560.366L419.101 560.261Z" fill="white"/>
<path d="M409.349 550.559L409.036 550.334L403.315 557.555L403.642 557.792L409.349 550.559Z" fill="white"/>
<path d="M395.62 478.619L396.015 478.724L397.282 474.368L398.562 469.973L398.181 469.854L396.86 474.368L395.62 478.619Z" fill="white"/>
<path d="M394.067 474.368L393.032 477.919L393.427 478.025L394.49 474.368L395.974 469.26L395.593 469.154L394.067 474.368Z" fill="white"/>
<path d="M400.783 535.761L400.428 535.563L395.757 543.47L396.111 543.655L400.783 535.761Z" fill="white"/>
<path d="M403.112 537.055L402.758 536.857L398.086 544.764L398.44 544.949L403.112 537.055Z" fill="white"/>
<path d="M424.672 508.741L420 516.635L420.341 516.833L425.012 508.926L424.672 508.741Z" fill="white"/>
<path d="M441.574 537.055L439.477 545.926L439.872 546.018L441.969 537.148L441.574 537.055Z" fill="white"/>
<path d="M444.434 514.444L438.864 512.16L438.714 512.517L444.625 514.945C444.557 514.8 444.502 514.615 444.434 514.444Z" fill="white"/>
<path d="M441.601 553.186L441.547 552.803L432.244 554.07L432.299 554.453L441.601 553.186Z" fill="white"/>
<path d="M446.559 562.716L446.246 562.967L450.509 568.01L452.198 570.016L452.511 569.765L451.027 568.01L446.559 562.716Z" fill="white"/>
<path d="M426.265 568.009L427.259 564.234L426.864 564.142L425.843 568.009L424.549 572.959L424.944 573.052L426.265 568.009Z" fill="white"/>
<path d="M423.658 538.341L423.504 538.693L432.155 542.251L432.31 541.898L423.658 538.341Z" fill="white"/>
<path d="M423.487 568.009L424.659 563.587L424.264 563.495L423.079 568.009L421.948 572.313L422.343 572.418L423.487 568.009Z" fill="white"/>
<path d="M451.939 586.384L452.988 577.342L452.593 577.302L451.53 586.344L451.939 586.384Z" fill="white"/>
<path d="M392.787 435.772C392.787 435.772 409.908 433.607 417.303 447.322C424.699 461.036 470.912 582.252 471.661 593.842C472.41 605.431 441.125 608.269 430.706 603.227C420.286 598.184 391.208 538.283 388.266 530.336" stroke="#263238" stroke-width="0.985332"/>
<path d="M289.289 601.022C289.289 601.022 254.299 596.693 248.333 597.405C242.368 598.118 215.577 615.45 215.577 615.45H291.468L289.289 601.022Z" fill="#CFCFCF" stroke="#263238" stroke-width="0.985332" stroke-linecap="round" stroke-linejoin="round"/>
<path d="M433.729 577.923L289.357 601.023L291.469 615.45H469.482C470.866 608.31 471.614 601.067 471.716 593.802C471.716 582.978 465.015 570.715 465.015 570.715" fill="#205683"/>
<path d="M445.688 601.749L448.398 610.461L448.779 610.355L446.082 601.63L445.688 601.749Z" fill="white"/>
<path d="M455.576 577.091L449.665 584.166L449.978 584.417L455.889 577.342L455.576 577.091Z" fill="white"/>
<path d="M447.581 582.529L447.894 582.78L453.792 575.705L453.479 575.454L447.581 582.529Z" fill="white"/>
<path d="M428.799 595.135L431.509 603.861L431.891 603.742L429.194 595.03L428.799 595.135Z" fill="white"/>
<path d="M451.353 609.603L448.643 600.877L448.262 600.996L450.972 609.708L451.353 609.603Z" fill="white"/>
<path d="M434.465 603.003L431.768 594.277L431.373 594.396L434.083 603.108L434.465 603.003Z" fill="white"/>
<path d="M459.317 585.624L457.004 594.452L457.4 594.549L459.713 585.721L459.317 585.624Z" fill="white"/>
<path d="M457.659 615.45H458.081L460.056 608.692L459.661 608.586L457.659 615.45Z" fill="white"/>
<path d="M424.181 613.958L424.031 614.315L426.783 615.45H427.818L424.181 613.958Z" fill="white"/>
<path d="M461.883 586.201L459.568 595.028L459.964 595.126L462.279 586.298L461.883 586.201Z" fill="white"/>
<path d="M392.482 587.343L392.098 587.478L395.287 596.045L395.672 595.911L392.482 587.343Z" fill="white"/>
<path d="M438.196 590.582L446.831 594.132L446.995 593.776L438.346 590.212L438.196 590.582Z" fill="white"/>
<path d="M441.056 615.12L440.975 615.45H441.383L441.451 615.199L441.056 615.12Z" fill="white"/>
<path d="M439.396 587.852L439.242 588.204L447.894 591.761L448.048 591.409L439.396 587.852Z" fill="white"/>
<path d="M400.033 586.093L405.985 593.142L406.298 592.891L400.346 585.842L400.033 586.093Z" fill="white"/>
<path d="M408.369 591.241L402.417 584.206L402.117 584.443L408.056 591.492L408.369 591.241Z" fill="white"/>
<path d="M466.662 576.734L467.493 576.035L467.329 575.652L466.403 576.444L466.662 576.734Z" fill="white"/>
<path d="M399.771 597.926L397.206 606.688L397.599 606.796L400.164 598.034L399.771 597.926Z" fill="white"/>
<path d="M468.392 595.479L471.674 596.205C471.674 596.073 471.674 595.941 471.674 595.809L468.46 595.096L468.392 595.479Z" fill="white"/>
<path d="M417.998 612.639L416.159 615.45H416.636L418.338 612.837L417.998 612.639Z" fill="white"/>
<path d="M471.579 598.449L467.888 597.644L467.793 598.013L471.552 598.845C471.566 598.713 471.579 598.581 471.579 598.449Z" fill="white"/>
<path d="M468.419 578.701L468.514 578.622L468.364 578.226L468.16 578.411L468.419 578.701Z" fill="white"/>
<path d="M418.042 599.993L409.428 603.634L409.591 603.997L418.205 600.356L418.042 599.993Z" fill="white"/>
<path d="M416.064 611.45L415.724 611.239L412.973 615.45H413.449L416.064 611.45Z" fill="white"/>
<path d="M402.384 598.704L399.818 607.466L400.211 607.574L402.777 598.812L402.384 598.704Z" fill="white"/>
<path d="M419.144 602.346L410.53 605.988L410.694 606.351L419.307 602.709L419.144 602.346Z" fill="white"/>
<path d="M424.495 586.991L424.154 586.793L419.482 594.7L419.823 594.898L424.495 586.991Z" fill="white"/>
<path d="M417.153 593.406L417.494 593.591L422.165 585.697L421.811 585.499L417.153 593.406Z" fill="white"/>
<path d="M321.427 600.001L312.812 603.641L312.976 604.004L321.59 600.364L321.427 600.001Z" fill="white"/>
<path d="M303.645 613.813L303.291 613.628L302.215 615.45H302.678L303.645 613.813Z" fill="white"/>
<path d="M300.975 606.804L303.318 598.778L302.882 598.844L300.594 606.698L300.975 606.804Z" fill="white"/>
<path d="M305.974 615.107L305.62 614.922L305.307 615.45H305.77L305.974 615.107Z" fill="white"/>
<path d="M351.26 591.73L351.424 591.373L350.906 591.175L350.171 591.281L351.26 591.73Z" fill="white"/>
<path d="M361.039 615.45H361.461L363.423 608.692L363.041 608.586L361.039 615.45Z" fill="white"/>
<path d="M364.567 588.984L362.974 595.082L363.355 595.188L365.003 588.918L364.567 588.984Z" fill="white"/>
<path d="M319.443 611.45L319.103 611.239L316.352 615.45H316.828L319.443 611.45Z" fill="white"/>
<path d="M321.718 612.837L321.378 612.639L319.525 615.45H320.002L321.718 612.837Z" fill="white"/>
<path d="M402.24 614.922L401.927 615.45H402.39L402.594 615.107L402.24 614.922Z" fill="white"/>
<path d="M462.249 609.299L460.451 615.45H460.873L462.63 609.404L462.249 609.299Z" fill="white"/>
<path d="M389.953 588.246L389.568 588.381L392.759 596.948L393.144 596.813L389.953 588.246Z" fill="white"/>
<path d="M365.615 609.299L363.831 615.45H364.24L366.01 609.404L365.615 609.299Z" fill="white"/>
<path d="M327.561 613.958L327.397 614.315L330.162 615.45H331.184L327.561 613.958Z" fill="white"/>
<path d="M400.265 613.813L399.911 613.628L398.835 615.45H399.298L400.265 613.813Z" fill="white"/>
<path d="M303.68 598.095L301.143 606.839L301.535 606.946L304.072 598.202L303.68 598.095Z" fill="white"/>
<path d="M381.156 604.718L380.775 604.573L377.343 613.048L377.711 613.193L381.156 604.718Z" fill="white"/>
<path d="M322.499 602.381L313.885 606.021L314.048 606.384L322.663 602.744L322.499 602.381Z" fill="white"/>
<path d="M383.649 605.655L383.267 605.523L379.835 613.998L380.216 614.13L383.649 605.655Z" fill="white"/>
<path d="M371.173 598.026L375.341 598.937L380.325 600.02L380.421 599.637L375.341 598.528L371.255 597.644L371.173 598.026Z" fill="white"/>
<path d="M380.924 597.485L381.019 597.102L375.34 595.861L371.853 595.096L371.758 595.479L375.34 596.257L380.924 597.485Z" fill="white"/>
<path d="M360.767 594.541L362.115 589.38L361.68 589.446L360.372 594.449L360.767 594.541Z" fill="white"/>
<path d="M350.375 593.776L345.962 591.954L345.227 592.073L350.211 594.132L350.375 593.776Z" fill="white"/>
<path d="M337.45 603.108L337.845 603.003L335.134 594.277L334.753 594.396L337.45 603.108Z" fill="white"/>
<path d="M335.27 603.742L332.56 595.03L332.179 595.135L334.889 603.861L335.27 603.742Z" fill="white"/>
<path d="M349.067 601.749L351.778 610.461L352.159 610.355L349.449 601.63L349.067 601.749Z" fill="white"/>
<path d="M344.423 615.12L344.341 615.45H344.763L344.818 615.199L344.423 615.12Z" fill="white"/>
<path d="M354.733 609.603L352.023 600.877L351.642 600.996L354.338 609.708L354.733 609.603Z" fill="white"/>
<path d="M433.729 577.923L289.357 601.023L291.469 615.45H469.482C470.866 608.31 471.614 601.067 471.716 593.802C471.716 582.978 465.015 570.715 465.015 570.715" stroke="#263238" stroke-width="0.985332"/>
<path d="M465.477 613.114H286.02L280.136 517.44C279.976 516.508 280.027 515.554 280.286 514.643C280.545 513.732 281.005 512.887 281.635 512.166C282.265 511.445 283.049 510.865 283.933 510.468C284.818 510.07 285.781 509.864 286.755 509.863H464.714C465.69 509.862 466.654 510.066 467.539 510.463C468.425 510.86 469.21 511.44 469.841 512.161C470.471 512.883 470.931 513.729 471.189 514.641C471.447 515.552 471.496 516.508 471.334 517.44L465.477 613.114Z" fill="#263238" stroke="#263238" stroke-width="0.985332" stroke-linecap="round" stroke-linejoin="round"/>
<path d="M294.832 512.16H463.42C464.372 512.15 465.315 512.342 466.182 512.722C467.05 513.102 467.821 513.661 468.442 514.36C469.064 515.059 469.52 515.881 469.779 516.769C470.039 517.656 470.095 518.588 469.944 519.499" stroke="white" stroke-width="0.985332" stroke-linecap="round" stroke-linejoin="round"/>
<path d="M281.471 518.034C281.598 516.428 282.35 514.929 283.573 513.838C284.796 512.748 286.401 512.148 288.063 512.16" stroke="white" stroke-width="0.985332" stroke-linecap="round" stroke-linejoin="round"/>
<path d="M466.226 603.794H285.243V613.114H466.226V603.794Z" fill="white" stroke="#263238" stroke-width="0.985332" stroke-linecap="round" stroke-linejoin="round"/>
<path d="M387.925 561.871C387.925 565.989 382.177 569.329 375.095 569.329C368.012 569.329 362.278 565.989 362.278 561.871C362.278 557.753 368.026 554.413 375.095 554.413C382.164 554.413 387.925 557.753 387.925 561.871Z" fill="white" stroke="#263238" stroke-width="0.985332" stroke-linecap="round" stroke-linejoin="round"/>
<path d="M107.517 603.504C103.713 603.321 99.9772 602.457 96.4981 600.956C95.6119 600.543 94.9246 599.814 94.5799 598.921C94.2352 598.029 94.2596 597.041 94.648 596.166C95.0365 595.29 95.759 594.594 96.6646 594.222C97.5702 593.851 98.589 593.832 99.5081 594.172C103.022 595.624 107.53 596.521 108.742 596.02C110.949 593.604 114.368 579.018 109.955 572.062C109.723 571.571 109.373 571.141 108.935 570.808C108.496 570.475 107.982 570.248 107.435 570.148C104.929 569.818 101.224 572.312 99.9167 573.5C99.1712 574.129 98.2031 574.452 97.2165 574.402C96.2298 574.353 95.3015 573.934 94.6271 573.234C93.9528 572.534 93.5849 571.608 93.6011 570.651C93.6173 569.693 94.0162 568.78 94.7139 568.102C95.4085 567.468 101.728 561.964 108.443 562.822C110.11 563.063 111.697 563.671 113.083 564.6C114.469 565.53 115.617 566.754 116.438 568.181C122.934 578.424 118.494 597.96 113.496 601.788C111.76 602.999 109.653 603.604 107.517 603.504Z" fill="#263238" stroke="#263238" stroke-width="0.985332" stroke-linecap="round" stroke-linejoin="round"/>
<path d="M100.775 559.812H58.7568V613.866H100.775V559.812Z" fill="#263238" stroke="#263238" stroke-width="0.985332" stroke-linecap="round" stroke-linejoin="round"/>
<path d="M62.5703 556.855C62.5703 556.855 62.5703 552.354 71.0828 547.853C79.5953 543.352 84.2397 536.606 79.5953 523.855C74.9509 511.104 75.7272 502.102 85.0433 494.591" stroke="#263238" stroke-width="0.985332" stroke-linecap="round" stroke-linejoin="round"/>
<path d="M64.5049 508.873C64.9407 503.395 67.4604 498.762 72.6769 494.591" stroke="#263238" stroke-width="0.985332" stroke-linecap="round" stroke-linejoin="round"/>
<path d="M67.2148 523.855C66.3644 521.581 65.6773 519.252 65.1582 516.886" stroke="#263238" stroke-width="0.985332" stroke-linecap="round" stroke-linejoin="round"/>
<path d="M97.1379 528.251C96.8116 526.758 96.3793 525.29 95.844 523.855L95.1357 521.822" stroke="#263238" stroke-width="0.985332" stroke-linecap="round" stroke-linejoin="round"/>
<path d="M78.8193 556.855C78.8193 556.855 78.8193 552.354 87.3318 547.853C92.916 544.896 96.8658 540.976 97.5605 535.036" stroke="#263238" stroke-width="0.985332" stroke-linecap="round" stroke-linejoin="round"/>
<path d="M653.8 612.942H19.8711V626.538H653.8V612.942Z" fill="#263238"/>
</svg>
