<svg width="673" height="715" viewBox="0 0 673 715" fill="none" xmlns="http://www.w3.org/2000/svg">
<path opacity="0.7" d="M55.14 238.939C55.14 238.939 15.2716 341.899 71.299 445.574C127.326 549.249 242.727 604.018 335.091 650.85C427.455 697.683 523.365 674.874 568.939 598.169C614.513 521.464 552.008 466.709 551.922 357.328C551.836 247.948 568.296 218.99 509.022 126.583C449.749 34.1769 304.446 13.7136 194.565 82.2535C84.6838 150.793 55.14 238.939 55.14 238.939Z" fill="white"/>
<path d="M115.3 160.832C134.548 137.838 160.56 120.12 191.562 120.42C244.472 121.078 273.072 167.911 303.417 204.032C319.147 222.765 337.007 240.841 360.374 249.649C395.423 262.848 434.462 255.141 468.61 242.885C483.911 237.394 502.029 229.672 519.261 233.619C571.642 245.602 566.193 309.523 557.542 350.007C545.859 404.69 526.868 462.834 488.387 504.79C396.252 605.305 230.444 543.686 147.332 463.477C141.226 457.571 135.377 451.422 129.872 444.887C115.569 428.212 103.463 409.772 93.8502 390.018C67.0806 334.32 63.3912 266.623 86.7002 209.066C93.6995 191.614 103.346 175.346 115.3 160.832Z" fill="#205683"/>
<path opacity="0.7" d="M115.3 160.832C134.548 137.838 160.56 120.12 191.562 120.42C244.472 121.078 273.072 167.911 303.417 204.032C319.147 222.765 337.007 240.841 360.374 249.649C395.423 262.848 434.462 255.141 468.61 242.885C483.911 237.394 502.029 229.672 519.261 233.619C571.642 245.602 566.193 309.523 557.542 350.007C545.859 404.69 526.868 462.834 488.387 504.79C396.252 605.305 230.444 543.686 147.332 463.477C141.226 457.571 135.377 451.422 129.872 444.887C115.569 428.212 103.463 409.772 93.8502 390.018C67.0806 334.32 63.3912 266.623 86.7002 209.066C93.6995 191.614 103.346 175.346 115.3 160.832Z" fill="white"/>
<path d="M35.291 634.105H595.708" stroke="#263238" stroke-width="1.43" stroke-linecap="round" stroke-linejoin="round"/>
<path d="M375.518 344.344V133.934H388.545" stroke="#263238" stroke-width="1.43" stroke-linecap="round" stroke-linejoin="round"/>
<path d="M375.518 369.383V363.806" stroke="#263238" stroke-width="1.43" stroke-linecap="round" stroke-linejoin="round"/>
<path d="M422.05 133.934H556.484V389.003H375.518" stroke="#263238" stroke-width="1.43" stroke-linecap="round" stroke-linejoin="round"/>
<path d="M405.576 133.934H417.388" stroke="#263238" stroke-width="1.43" stroke-linecap="round" stroke-linejoin="round"/>
<path d="M549.677 140.726H382.324V382.21H549.677V140.726Z" stroke="#263238" stroke-width="1.43" stroke-linecap="round" stroke-linejoin="round"/>
<path d="M541.898 153.653V253.939H390.104V247.39" stroke="#263238" stroke-width="1.43" stroke-linecap="round" stroke-linejoin="round"/>
<path d="M390.104 232.06V147.848H541.898" stroke="#263238" stroke-width="1.43" stroke-linecap="round" stroke-linejoin="round"/>
<path d="M390.104 242.37V236.007" stroke="#263238" stroke-width="1.43" stroke-linecap="round" stroke-linejoin="round"/>
<path d="M516.258 261.461H549.677" stroke="#263238" stroke-width="1.43" stroke-linecap="round" stroke-linejoin="round"/>
<path d="M504.375 261.461H509.108" stroke="#263238" stroke-width="1.43" stroke-linecap="round" stroke-linejoin="round"/>
<path d="M382.324 261.461H498.741" stroke="#263238" stroke-width="1.43" stroke-linecap="round" stroke-linejoin="round"/>
<path d="M457.585 253.939V250.479H471.585V252.438H466.008V253.939" stroke="#263238" stroke-width="1.43" stroke-linecap="round" stroke-linejoin="round"/>
<path d="M382.61 351.78C382.61 351.78 384.941 353.539 386.571 364.178C386.571 364.178 389.431 347.189 392.778 346.932C396.124 346.675 395.495 357.972 395.495 357.972C395.495 357.972 396.067 352.409 398.726 352.666C401.386 352.924 398.726 364.106 398.726 364.106C398.726 364.106 401.93 355.326 404.961 355.526C407.993 355.727 402.959 371.428 402.959 371.428C402.959 371.428 410.738 365.794 413.884 368.568C417.03 371.342 412.14 378.263 412.14 378.263C412.14 378.263 423.294 375.847 425.01 382.396" stroke="#263238" stroke-width="1.43" stroke-linecap="round" stroke-linejoin="round"/>
<path d="M425.024 376.09C425.024 376.09 429.886 372.901 433.719 374.388C433.719 374.388 431.288 370.684 433.719 368.425C436.15 366.166 439.267 374.388 439.267 374.388C439.267 374.388 439.625 360.589 444.487 361.289C449.349 361.99 444.487 374.388 444.487 374.388C444.487 374.388 453.167 366.695 455.255 369.369C457.342 372.043 453.825 376.09 453.825 376.09C455.394 375.644 457.052 375.614 458.637 376.003C460.221 376.391 461.677 377.185 462.862 378.306C462.862 378.306 468.682 372.372 475.146 371.514C475.146 371.514 470.856 359.03 472.929 356.513C475.003 353.996 478.807 367.41 478.807 367.41C478.807 367.41 480.466 358.687 485.957 358C485.957 358 481.424 355.541 482.768 351.808C484.112 348.076 490.361 352.695 490.361 352.695C490.361 352.695 487.787 346.131 491.863 344.329C495.938 342.528 497.583 349.821 497.583 349.821C497.583 349.821 498.727 342.185 503.503 342.671C508.279 343.157 506.735 351.88 506.735 351.88C506.735 351.88 511.239 344.901 513.656 345.602C518.475 347.032 517.016 358.072 517.016 358.072C517.016 358.072 523.737 353.396 525.482 355.555C527.227 357.714 518.475 363.863 518.475 363.863C518.475 363.863 525.153 364.593 529.314 368.497" stroke="#263238" stroke-width="1.43" stroke-linecap="round" stroke-linejoin="round"/>
<path d="M549.677 354.354C549.677 354.354 548.905 347.347 541.898 346.975C534.891 346.603 543.829 362.347 543.829 362.347C543.829 362.347 538.037 357.557 535.964 359.03C533.89 360.503 541.898 368.625 541.898 368.625C541.898 368.625 538.051 365.064 534.005 366.165C529.958 367.266 536.307 378.549 536.307 378.549C530.32 377.35 524.106 378.081 518.561 380.637" stroke="#263238" stroke-width="1.43" stroke-linecap="round" stroke-linejoin="round"/>
<path d="M310.767 571.5V633.733" stroke="#263238" stroke-width="1.43" stroke-linecap="round" stroke-linejoin="round"/>
<path d="M310.767 551.136V564.464" stroke="#263238" stroke-width="1.43" stroke-linecap="round" stroke-linejoin="round"/>
<path d="M48.791 634.105V518.132H310.767V543.586" stroke="#263238" stroke-width="1.43" stroke-linecap="round" stroke-linejoin="round"/>
<path d="M86.9577 530.816H64.2207V623.466" stroke="#263238" stroke-width="1.43" stroke-linecap="round" stroke-linejoin="round"/>
<path d="M295.337 633.734V530.816H100.156" stroke="#263238" stroke-width="1.43" stroke-linecap="round" stroke-linejoin="round"/>
<path d="M284.44 506.12H277.219" stroke="#263238" stroke-width="1.43" stroke-linecap="round" stroke-linejoin="round"/>
<path d="M266.851 506.12H42.2842V518.046H317.273V506.12H289.045" stroke="#263238" stroke-width="1.43" stroke-linecap="round" stroke-linejoin="round"/>
<path d="M57.7715 429.701C57.7715 429.701 79.2215 431.403 80.1939 447.276C80.1939 447.276 58.3864 457.314 57.7715 429.701Z" stroke="#263238" stroke-width="1.43" stroke-linecap="round" stroke-linejoin="round"/>
<path d="M100.342 433.648C100.342 433.648 112.368 417.389 131.802 425.725C131.802 425.725 119.933 445.374 100.342 433.648Z" stroke="#263238" stroke-width="1.43" stroke-linecap="round" stroke-linejoin="round"/>
<path d="M130.157 382.311C130.157 382.311 133.618 413.585 105.146 404.976C105.146 404.976 114.184 381.982 130.157 382.311Z" stroke="#263238" stroke-width="1.43" stroke-linecap="round" stroke-linejoin="round"/>
<path d="M95.194 364.893C95.194 364.893 117.716 377.048 101.157 395.466C101.157 395.466 85.3699 382.31 95.194 364.893Z" stroke="#263238" stroke-width="1.43" stroke-linecap="round" stroke-linejoin="round"/>
<path d="M67.4951 392.85C67.4951 392.85 91.9767 390.39 91.9767 413.041C91.9767 413.041 67.4951 414.014 67.4951 392.85Z" stroke="#263238" stroke-width="1.43" stroke-linecap="round" stroke-linejoin="round"/>
<path d="M85.8415 460.074C85.484 452.467 85.484 442.685 90.1315 432.347C100.842 408.494 104.432 388.403 98.8688 374.246" stroke="#263238" stroke-width="1.43" stroke-linecap="round" stroke-linejoin="round"/>
<path d="M75.5312 398.97C75.5312 398.97 90.2031 404.805 95.1938 419.92" stroke="#263238" stroke-width="1.43" stroke-linecap="round" stroke-linejoin="round"/>
<path d="M122.45 394.823C122.45 394.823 113.97 406.377 99.5703 405.133" stroke="#263238" stroke-width="1.43" stroke-linecap="round" stroke-linejoin="round"/>
<path d="M122.45 429C122.45 429 98.9547 435.764 89.5596 433.547" stroke="#263238" stroke-width="1.43" stroke-linecap="round" stroke-linejoin="round"/>
<path d="M64.7783 436.851C64.7783 436.851 75.2888 448.377 85.8422 448.191" stroke="#263238" stroke-width="1.43" stroke-linecap="round" stroke-linejoin="round"/>
<path d="M113.77 460.074H62.7334C62.4034 460.074 62.087 460.205 61.8536 460.439C61.6203 460.672 61.4893 460.988 61.4893 461.318V465.194C61.4892 465.356 61.5215 465.517 61.5842 465.668C61.6469 465.818 61.7388 465.954 61.8545 466.068C61.9702 466.183 62.1075 466.273 62.2583 466.334C62.4092 466.395 62.5707 466.425 62.7334 466.423H64.1634L68.7108 506.12H107.721L112.269 466.423H113.77C113.932 466.425 114.093 466.395 114.243 466.334C114.393 466.273 114.529 466.182 114.644 466.067C114.759 465.953 114.849 465.817 114.91 465.666C114.971 465.516 115.002 465.356 115 465.194V461.318C115.002 461.156 114.971 460.994 114.91 460.843C114.849 460.692 114.759 460.555 114.645 460.439C114.53 460.324 114.394 460.232 114.244 460.169C114.094 460.106 113.933 460.074 113.77 460.074Z" stroke="#263238" stroke-width="1.43" stroke-miterlimit="10"/>
<path d="M67.4951 466.423H97.1819" stroke="#263238" stroke-width="1.43" stroke-linecap="round" stroke-linejoin="round"/>
<path d="M102.773 466.423H107.235" stroke="#263238" stroke-width="1.43" stroke-linecap="round" stroke-linejoin="round"/>
<path d="M428.055 301.858L422.335 332.947L375.688 361.289L382.138 373.13C382.138 373.13 436.063 356.685 437.379 352.838C438.694 348.991 451.121 308.25 451.121 308.25L428.055 301.858Z" fill="#263238"/>
<path d="M448.489 249.292L445.372 286.986L443.727 306.763C434.732 311.139 425.938 304.561 425.395 304.132C427.84 296.953 430.686 256.442 448.489 249.292Z" fill="#999999" stroke="#263238" stroke-width="1.43" stroke-linecap="round" stroke-linejoin="round"/>
<path d="M445.315 286.986L443.671 306.763C434.676 311.139 425.881 304.561 425.338 304.132C425.724 304.304 430.457 306.306 433.532 304.132C432.456 302.971 431.498 301.706 430.672 300.357C430.486 299.613 433.532 299.413 433.532 299.413C433.532 299.413 431.53 283.383 436.864 276.533C438.951 273.93 442.212 279.364 445.315 286.986Z" fill="#263238"/>
<path d="M480.793 598.369L482.223 602.573C480.056 606.151 477.628 609.563 474.959 612.784C474.959 612.784 473.529 612.326 471.184 614.399C469.739 615.84 468.848 617.744 468.667 619.776C468.667 619.776 457.742 632.875 443.885 633.061C430.028 633.247 434.204 626.268 434.204 626.268L480.793 598.369Z" fill="#205683" stroke="#263238" stroke-width="1.43" stroke-linecap="round" stroke-linejoin="round"/>
<path d="M467.766 565.036C467.766 565.036 449.176 558.186 445.543 571.885C445.543 571.885 448.861 586.972 446.873 595.223C444.886 603.474 434.876 619.233 434.261 622.221C433.045 628.084 433.96 628.485 433.96 628.485C433.96 628.485 441.239 632.689 451.02 628.184C460.801 623.68 477.733 604.289 480.378 600.299C483.024 596.31 472.084 580.58 472.084 580.58L467.766 565.036Z" fill="white"/>
<mask id="mask0_90_2019" style="mask-type:luminance" maskUnits="userSpaceOnUse" x="433" y="563" width="48" height="68">
<path d="M467.766 565.036C467.766 565.036 449.176 558.186 445.543 571.885C445.543 571.885 448.861 586.972 446.873 595.223C444.886 603.474 434.876 619.233 434.261 622.221C433.045 628.084 433.96 628.485 433.96 628.485C433.96 628.485 441.239 632.689 451.02 628.184C460.801 623.68 477.733 604.289 480.378 600.299C483.024 596.31 472.084 580.58 472.084 580.58L467.766 565.036Z" fill="white"/>
</mask>
<g mask="url(#mask0_90_2019)">
<path opacity="0.4" d="M467.766 565.036C467.766 565.036 449.176 558.186 445.543 571.885C445.543 571.885 448.861 586.972 446.873 595.223C444.886 603.474 434.876 619.233 434.261 622.221C433.045 628.084 433.96 628.485 433.96 628.485C433.96 628.485 441.239 632.689 451.02 628.184C460.801 623.68 477.733 604.289 480.378 600.299C483.024 596.31 472.084 580.58 472.084 580.58L467.766 565.036Z" fill="#205683"/>
</g>
<path d="M467.766 565.036C467.766 565.036 449.176 558.186 445.543 571.885C445.543 571.885 448.861 586.972 446.873 595.223C444.886 603.474 434.876 619.233 434.261 622.221C433.045 628.084 433.96 628.485 433.96 628.485C433.96 628.485 441.239 632.689 451.02 628.184C460.801 623.68 477.733 604.289 480.378 600.299C483.024 596.31 472.084 580.58 472.084 580.58L467.766 565.036Z" stroke="#263238" stroke-width="1.43" stroke-linecap="round" stroke-linejoin="round"/>
<path d="M458.256 584.412C459.874 593.641 458.231 603.146 453.608 611.296" stroke="#263238" stroke-width="1.43" stroke-linecap="round" stroke-linejoin="round"/>
<path d="M453.609 614.9C452.917 616.641 451.843 618.205 450.467 619.477C449.091 620.749 447.448 621.697 445.658 622.25C441.91 623.253 437.965 623.253 434.218 622.25L438.679 613.212C443.415 615.099 448.571 615.682 453.609 614.9Z" fill="#205683" stroke="#263238" stroke-width="1.43" stroke-linecap="round" stroke-linejoin="round"/>
<path d="M456.24 609.423C456.24 609.423 446.516 610.009 441.439 607.993" stroke="#263238" stroke-width="1.43" stroke-linecap="round" stroke-linejoin="round"/>
<path d="M458.041 604.06C458.041 604.06 448.947 605.49 443.87 602.63" stroke="#263238" stroke-width="1.43" stroke-linecap="round" stroke-linejoin="round"/>
<path d="M459.586 598.097C459.586 598.097 451.621 599.255 446.416 596.796" stroke="#263238" stroke-width="1.43" stroke-linecap="round" stroke-linejoin="round"/>
<path d="M460.473 591.348C460.473 591.348 451.607 594.122 447.417 591.348" stroke="#263238" stroke-width="1.43" stroke-linecap="round" stroke-linejoin="round"/>
<path d="M461.802 574.674L463.347 584.412C463.347 584.412 451.621 592.134 443.87 582.482V572.314C443.87 572.314 446.787 579.15 461.802 574.674Z" fill="#205683" stroke="#263238" stroke-width="1.43" stroke-linecap="round" stroke-linejoin="round"/>
<path d="M451.621 356.07C439.738 393.722 402.858 454.111 406.59 469.569C408.635 478.006 420.804 525.811 430.328 546.789C433.946 554.811 441.768 560.174 441.768 560.174L447.417 572.286C461.188 578.278 466.121 566.094 466.121 566.094L463.347 552.366C470.726 538.952 467.637 538.952 458.042 469.426C456.912 461.232 475.917 435.907 475.917 435.907L485.669 499.628L487.256 551.823L492.319 567.953C492.319 567.953 493.577 583.097 493.463 584.012H516.1L518.559 567.367C518.559 567.367 529.07 557.457 529.07 546.017C529.07 534.577 526.81 476.304 529.07 459.33C531.329 442.356 523.779 363.22 523.779 363.22L451.621 356.07Z" fill="#263238"/>
<path d="M297.733 322.521L329.193 325.352C329.906 325.416 330.565 325.761 331.023 326.311C331.482 326.86 331.704 327.569 331.64 328.283L329.619 350.734L292.782 347.418L294.803 324.967C294.867 324.254 295.212 323.596 295.761 323.137C296.311 322.678 297.02 322.457 297.733 322.521Z" fill="#F3D977"/>
<mask id="mask1_90_2019" style="mask-type:luminance" maskUnits="userSpaceOnUse" x="292" y="322" width="40" height="29">
<path d="M297.733 322.521L329.193 325.352C329.906 325.416 330.565 325.761 331.023 326.311C331.482 326.86 331.704 327.569 331.64 328.283L329.619 350.734L292.782 347.418L294.803 324.967C294.867 324.254 295.212 323.596 295.761 323.137C296.311 322.678 297.02 322.457 297.733 322.521Z" fill="white"/>
</mask>
<g mask="url(#mask1_90_2019)">
<path opacity="0.3" d="M297.733 322.521L329.193 325.352C329.906 325.416 330.565 325.761 331.023 326.311C331.482 326.86 331.704 327.569 331.64 328.283L329.619 350.734L292.782 347.418L294.803 324.967C294.867 324.254 295.212 323.596 295.761 323.137C296.311 322.678 297.02 322.457 297.733 322.521Z" fill="black" fill-opacity="0.7"/>
<path opacity="0.3" d="M329.688 324.962L320.669 324.188L319.119 342.225L328.138 343L329.688 324.962Z" fill="white" fill-opacity="0.7"/>
</g>
<path d="M297.733 322.521L329.193 325.352C329.906 325.416 330.565 325.761 331.023 326.311C331.482 326.86 331.704 327.569 331.64 328.283L329.619 350.734L292.782 347.418L294.803 324.967C294.867 324.254 295.212 323.596 295.761 323.137C296.311 322.678 297.02 322.457 297.733 322.521Z" stroke="#263238" stroke-width="1.43578" stroke-linecap="round" stroke-linejoin="round"/>
<path d="M352.035 324.508L383.38 327.201C384.09 327.262 384.747 327.603 385.206 328.148C385.665 328.694 385.889 329.399 385.828 330.11L383.906 352.478L347.205 349.325L349.126 326.957C349.187 326.246 349.528 325.589 350.074 325.13C350.619 324.671 351.325 324.447 352.035 324.508Z" fill="#F3D977"/>
<mask id="mask2_90_2019" style="mask-type:luminance" maskUnits="userSpaceOnUse" x="347" y="324" width="39" height="29">
<path d="M352.035 324.508L383.38 327.201C384.09 327.262 384.747 327.603 385.206 328.148C385.665 328.694 385.889 329.399 385.828 330.11L383.906 352.478L347.205 349.325L349.126 326.957C349.187 326.246 349.528 325.589 350.074 325.13C350.619 324.671 351.325 324.447 352.035 324.508Z" fill="white"/>
</mask>
<g mask="url(#mask2_90_2019)">
<path opacity="0.3" d="M352.035 324.508L383.38 327.201C384.09 327.262 384.747 327.603 385.206 328.148C385.665 328.694 385.889 329.399 385.828 330.11L383.906 352.478L347.205 349.325L349.126 326.957C349.187 326.246 349.528 325.589 350.074 325.13C350.619 324.671 351.325 324.447 352.035 324.508Z" fill="black" fill-opacity="0.7"/>
<path opacity="0.3" d="M383.209 329.57L377.767 329.102L376.217 347.139L381.66 347.607L383.209 329.57Z" fill="white" fill-opacity="0.7"/>
</g>
<path d="M352.035 324.508L383.38 327.201C384.09 327.262 384.747 327.603 385.206 328.148C385.665 328.694 385.889 329.399 385.828 330.11L383.906 352.478L347.205 349.325L349.126 326.957C349.187 326.246 349.528 325.589 350.074 325.13C350.619 324.671 351.325 324.447 352.035 324.508Z" stroke="#263238" stroke-width="1.43" stroke-linecap="round" stroke-linejoin="round"/>
<path d="M340.649 323.522L371.994 326.215C372.704 326.276 373.361 326.617 373.82 327.162C374.28 327.707 374.503 328.413 374.442 329.123L372.521 351.492L335.819 348.339L337.741 325.971C337.802 325.26 338.142 324.603 338.688 324.144C339.233 323.685 339.939 323.461 340.649 323.522Z" fill="#F3D977" stroke="#263238" stroke-width="1.43" stroke-linecap="round" stroke-linejoin="round"/>
<path d="M394.778 328.182L426.123 330.874C426.833 330.935 427.49 331.276 427.949 331.822C428.408 332.367 428.632 333.073 428.571 333.783L426.651 356.137L389.949 352.985L391.871 330.616C391.935 329.908 392.277 329.255 392.822 328.799C393.367 328.343 394.07 328.121 394.778 328.182Z" fill="#F3D977" stroke="#263238" stroke-width="1.43" stroke-linecap="round" stroke-linejoin="round"/>
<path opacity="0.3" d="M372.431 328.637L363.412 327.862L361.863 345.899L370.881 346.674L372.431 328.637Z" fill="white" fill-opacity="0.7"/>
<path opacity="0.3" d="M425.966 333.231L416.947 332.456L415.398 350.493L424.416 351.268L425.966 333.231Z" fill="white" fill-opacity="0.7"/>
<path d="M443.041 352.338L434.189 455.198L268.467 440.898L277.318 338.052C277.391 337.201 277.63 336.372 278.023 335.614C278.415 334.855 278.954 334.182 279.608 333.632C280.261 333.082 281.017 332.666 281.831 332.409C282.646 332.151 283.503 332.057 284.354 332.132L437.107 345.259C437.963 345.329 438.797 345.568 439.56 345.963C440.323 346.358 441.001 346.9 441.553 347.559C442.105 348.217 442.52 348.979 442.776 349.799C443.031 350.619 443.122 351.482 443.041 352.338Z" fill="#F3D977"/>
<mask id="mask3_90_2019" style="mask-type:luminance" maskUnits="userSpaceOnUse" x="268" y="332" width="176" height="124">
<path d="M443.041 352.338L434.189 455.198L268.467 440.898L277.318 338.052C277.391 337.201 277.63 336.372 278.023 335.614C278.415 334.855 278.954 334.182 279.608 333.632C280.261 333.082 281.017 332.666 281.831 332.409C282.646 332.151 283.503 332.057 284.354 332.132L437.107 345.259C437.963 345.329 438.797 345.568 439.56 345.963C440.323 346.358 441.001 346.9 441.553 347.559C442.105 348.217 442.52 348.979 442.776 349.799C443.031 350.619 443.122 351.482 443.041 352.338Z" fill="white"/>
</mask>
<g mask="url(#mask3_90_2019)">
<path opacity="0.3" d="M443.041 352.338L434.189 455.198L268.467 440.898L277.318 338.052C277.391 337.201 277.63 336.372 278.023 335.614C278.415 334.855 278.954 334.182 279.608 333.632C280.261 333.082 281.017 332.666 281.831 332.409C282.646 332.151 283.503 332.057 284.354 332.132L437.107 345.259C437.963 345.329 438.797 345.568 439.56 345.963C440.323 346.358 441.001 346.9 441.553 347.559C442.105 348.217 442.52 348.979 442.776 349.799C443.031 350.619 443.122 351.482 443.041 352.338Z" fill="black" fill-opacity="0.7"/>
</g>
<path d="M443.041 352.338L434.189 455.198L268.467 440.898L277.319 338.052C277.391 337.201 277.63 336.372 278.023 335.614C278.415 334.855 278.954 334.182 279.608 333.632C280.261 333.082 281.017 332.666 281.831 332.409C282.646 332.151 283.503 332.057 284.354 332.132L437.107 345.259C437.963 345.329 438.797 345.568 439.56 345.963C440.323 346.358 441.001 346.9 441.553 347.559C442.105 348.217 442.52 348.979 442.776 349.799C443.031 350.619 443.122 351.482 443.041 352.338Z" stroke="#263238" stroke-width="1.43" stroke-linecap="round" stroke-linejoin="round"/>
<path d="M443.042 352.337L434.19 455.197L311.21 444.615L320.076 341.77C320.148 340.919 320.387 340.09 320.78 339.331C321.173 338.573 321.711 337.899 322.365 337.349C323.019 336.799 323.774 336.384 324.589 336.126C325.403 335.869 326.261 335.775 327.112 335.849L437.121 345.302C437.973 345.374 438.801 345.613 439.56 346.006C440.318 346.399 440.992 346.937 441.542 347.591C442.092 348.244 442.507 349 442.765 349.815C443.022 350.629 443.116 351.486 443.042 352.337Z" fill="#F3D977" stroke="#263238" stroke-width="1.43" stroke-linecap="round" stroke-linejoin="round"/>
<path opacity="0.3" d="M434.404 355.283L329.285 346.246C328.584 346.184 327.935 345.849 327.478 345.315C327.021 344.78 326.792 344.087 326.839 343.386C326.901 342.685 327.235 342.036 327.77 341.579C328.305 341.122 328.997 340.893 329.699 340.94L434.818 349.978C435.519 350.04 436.168 350.374 436.625 350.909C437.082 351.443 437.311 352.136 437.264 352.838C437.202 353.539 436.868 354.187 436.333 354.644C435.798 355.101 435.106 355.331 434.404 355.283Z" fill="white" fill-opacity="0.7"/>
<path d="M516.843 584.598C516.843 584.598 508.921 578.949 492.533 580.079C492.533 580.079 491.332 599.742 489.101 605.462C486.871 611.182 475.116 621.091 472.928 622.793C470.74 624.495 470.74 630.429 470.74 630.429H520.533C519.894 621.919 518.569 613.473 516.572 605.176L516.843 584.598Z" fill="white"/>
<mask id="mask4_90_2019" style="mask-type:luminance" maskUnits="userSpaceOnUse" x="470" y="579" width="51" height="52">
<path d="M516.843 584.598C516.843 584.598 508.921 578.949 492.533 580.079C492.533 580.079 491.332 599.742 489.101 605.462C486.871 611.182 475.116 621.091 472.928 622.793C470.74 624.495 470.74 630.429 470.74 630.429H520.533C519.894 621.919 518.569 613.473 516.572 605.176L516.843 584.598Z" fill="white"/>
</mask>
<g mask="url(#mask4_90_2019)">
<path opacity="0.4" d="M516.843 584.598C516.843 584.598 508.921 578.949 492.533 580.079C492.533 580.079 491.332 599.742 489.101 605.462C486.871 611.182 475.116 621.091 472.928 622.793C470.74 624.495 470.74 630.429 470.74 630.429H520.533C519.894 621.919 518.569 613.473 516.572 605.176L516.843 584.598Z" fill="#205683"/>
</g>
<path d="M516.843 584.598C516.843 584.598 508.921 578.949 492.533 580.079C492.533 580.079 491.332 599.742 489.101 605.462C486.871 611.182 475.116 621.091 472.928 622.793C470.74 624.495 470.74 630.429 470.74 630.429H520.533C519.894 621.919 518.569 613.473 516.572 605.176L516.843 584.598Z" stroke="#263238" stroke-width="1.43" stroke-linecap="round" stroke-linejoin="round"/>
<path d="M506.562 587.144C506.562 587.144 505.39 605.247 502.573 610.024C501.068 612.648 499.211 615.054 497.053 617.174" stroke="#263238" stroke-width="1.43" stroke-linecap="round" stroke-linejoin="round"/>
<path d="M495.679 619.676C495.679 619.676 493.177 622.793 490.402 623.208C487.628 623.623 472.971 622.793 472.971 622.793L478.948 617.617C478.948 617.617 491.103 615.572 495.679 619.676Z" fill="#205683" stroke="#263238" stroke-width="1.43" stroke-linecap="round" stroke-linejoin="round"/>
<path d="M500.856 615.429C500.856 615.429 490.245 609.337 482.681 613.999" stroke="#263238" stroke-width="1.43" stroke-linecap="round" stroke-linejoin="round"/>
<path d="M503.416 611.296C503.416 611.296 496.009 605.505 487.271 608.679" stroke="#263238" stroke-width="1.43" stroke-linecap="round" stroke-linejoin="round"/>
<path d="M506.562 604.99C506.562 604.99 498.582 598.784 490.174 602.731" stroke="#263238" stroke-width="1.43" stroke-linecap="round" stroke-linejoin="round"/>
<path d="M507.648 597.11C507.648 597.11 497.967 591.905 490.932 595.852" stroke="#263238" stroke-width="1.43" stroke-linecap="round" stroke-linejoin="round"/>
<path d="M520.518 630.43V634.105H514.798C514.798 634.105 509.893 631.245 505.232 634.105H478.376C475.538 634.095 472.737 633.466 470.168 632.26L470.726 630.43H520.518Z" fill="#205683" stroke="#263238" stroke-width="1.43" stroke-linecap="round" stroke-linejoin="round"/>
<path d="M513.383 583.44L512.111 591.462C512.111 591.462 497.167 586.615 488.916 589.761V579.894C488.916 579.894 504.26 574.517 513.383 583.44Z" fill="#205683" stroke="#263238" stroke-width="1.43" stroke-linecap="round" stroke-linejoin="round"/>
<path d="M529.542 383.569C529.542 383.569 497.782 389.789 466.622 379.693C459.527 377.433 452.74 374.301 446.416 370.37C446.416 370.37 446.502 368.368 446.559 365.093C446.816 352.309 446.745 320.148 440.01 312.183C435.72 307.164 432.359 276.133 440.639 260.446L465.964 240.083C501.028 246.932 508.435 256.213 514.227 276.233C515.299 279.894 516.3 283.912 517.416 288.345C518.631 293.178 519.775 299.084 520.862 305.505C526.124 337.48 529.542 383.569 529.542 383.569Z" fill="#999999"/>
<mask id="mask5_90_2019" style="mask-type:luminance" maskUnits="userSpaceOnUse" x="435" y="240" width="95" height="146">
<path d="M529.542 383.569C529.542 383.569 497.782 389.789 466.622 379.693C459.527 377.433 452.74 374.301 446.416 370.37C446.416 370.37 446.502 368.368 446.559 365.093C446.816 352.309 446.745 320.148 440.01 312.183C435.72 307.164 432.359 276.133 440.639 260.446L465.964 240.083C501.028 246.932 508.435 256.213 514.227 276.233C515.299 279.894 516.3 283.912 517.416 288.345C518.631 293.178 519.775 299.084 520.862 305.505C526.124 337.48 529.542 383.569 529.542 383.569Z" fill="white"/>
</mask>
<g mask="url(#mask5_90_2019)">
<path opacity="0.2" d="M520.862 305.505L506.562 369.383C506.562 369.383 485.898 375.103 466.636 379.693C459.537 377.434 452.745 374.302 446.416 370.37C446.416 370.37 446.502 368.368 446.559 365.093C463.862 356.241 489.116 343.228 488.916 342.613C488.587 341.655 488.916 308.293 488.916 308.293C488.916 308.293 511.796 302.988 514.227 276.19C515.299 279.851 516.3 283.869 517.416 288.302C518.631 293.15 519.775 299.013 520.862 305.505Z" fill="black"/>
</g>
<path d="M529.542 383.569C529.542 383.569 497.782 389.789 466.622 379.693C459.527 377.433 452.74 374.301 446.416 370.37C446.416 370.37 446.502 368.368 446.559 365.093C446.816 352.309 446.745 320.148 440.01 312.183C435.72 307.164 432.359 276.133 440.639 260.446L465.964 240.083C501.028 246.932 508.435 256.213 514.227 276.233C515.299 279.894 516.3 283.912 517.416 288.345C518.631 293.178 519.775 299.084 520.862 305.505C526.124 337.48 529.542 383.569 529.542 383.569Z" stroke="#263238" stroke-width="1.43" stroke-linecap="round" stroke-linejoin="round"/>
<path d="M467.08 213.356C467.08 213.356 455.897 229.372 470.769 241.87C470.769 241.87 452.722 262.119 446.788 259.33C444.285 258.158 446.788 250.851 446.788 250.851L436.32 231.488L467.08 213.356Z" fill="white" stroke="#263238" stroke-width="1.43" stroke-linecap="round" stroke-linejoin="round"/>
<path d="M463.433 221.65C466.922 206.392 465.249 183.669 443.87 185.686C428.884 187.116 418.202 195.41 422.42 215.515C424.179 223.995 425.624 236.007 433.403 246.847C435.562 249.85 458.156 239.225 456.783 230.63" fill="white"/>
<path d="M463.433 221.65C466.922 206.392 465.249 183.669 443.87 185.686C428.884 187.116 418.202 195.41 422.42 215.515C424.179 223.995 425.624 236.007 433.403 246.847C435.562 249.85 458.156 239.225 456.783 230.63" stroke="#263238" stroke-width="1.43" stroke-linecap="round" stroke-linejoin="round"/>
<path d="M432.846 212.112C434.353 211.528 435.977 211.306 437.586 211.462C439.195 211.619 440.745 212.15 442.112 213.013" stroke="#263238" stroke-width="1.43" stroke-linecap="round" stroke-linejoin="round"/>
<path d="M422.092 213.985C422.366 213.4 422.843 212.933 423.434 212.67C424.025 212.408 424.691 212.367 425.309 212.555" stroke="#263238" stroke-width="1.43" stroke-linecap="round" stroke-linejoin="round"/>
<path d="M427.44 217.16C427.44 217.16 423.036 225.182 423.022 226.326C423.007 227.47 428.441 227.856 428.441 227.856" fill="white"/>
<path d="M427.44 217.16C427.44 217.16 423.036 225.182 423.022 226.326C423.007 227.47 428.441 227.856 428.441 227.856" stroke="#263238" stroke-width="1.43" stroke-linecap="round" stroke-linejoin="round"/>
<path d="M436.907 218.79C436.907 219.662 436.521 220.377 435.977 220.406C435.434 220.434 434.976 219.719 434.948 218.847C434.919 217.975 435.334 217.26 435.877 217.245C436.421 217.231 436.878 217.946 436.907 218.79Z" fill="#263238"/>
<path d="M430.686 233.691C430.686 233.691 439.137 232.103 440.696 229.129" stroke="#263238" stroke-width="1.43" stroke-linecap="round" stroke-linejoin="round"/>
<path d="M422.034 201.63L428.612 199.714C428.612 199.714 437.836 195.424 439.795 196.025C441.754 196.625 445.73 202.731 445.601 206.22C445.601 206.22 451.807 211.683 452.594 219.605L454.481 218.747C454.481 218.747 454.381 211.597 458.442 211.783C462.503 211.969 464.334 216.831 464.062 218.361C463.79 219.891 459.343 226.24 459.343 226.24C459.343 226.24 469.525 224.725 469.854 204.79C470.183 184.856 448.332 181.61 437.707 182.425C432.328 182.941 426.923 183.141 421.52 183.026L422.12 188.746L417.83 189.876L421.062 193.837L417.516 195.453L422.034 201.63Z" fill="#263238"/>
<path d="M458.871 418.99C458.871 418.99 484.754 425.839 491.761 445.116" stroke="white" stroke-width="1.43" stroke-linecap="round" stroke-linejoin="round"/>
<path d="M470.726 429.357C470.726 429.357 456.741 452.652 435.334 464.75" stroke="white" stroke-width="1.43" stroke-linecap="round" stroke-linejoin="round"/>
<path d="M451.063 560.36C451.063 560.36 459.014 558.572 461.188 555.483" stroke="white" stroke-width="1.43" stroke-linecap="round" stroke-linejoin="round"/>
<path d="M495.336 563.32C495.336 563.32 503.115 559.287 510.866 563.32" stroke="white" stroke-width="1.43" stroke-linecap="round" stroke-linejoin="round"/>
<path d="M520.519 454.869C520.519 454.869 507.463 488.688 500.856 491.82" stroke="white" stroke-width="1.43" stroke-linecap="round" stroke-linejoin="round"/>
<path d="M463.348 401.901C463.705 405.576 479.078 422.608 491.762 429.357" stroke="white" stroke-width="1.43" stroke-linecap="round" stroke-linejoin="round"/>
<path d="M476.46 387.53C478.31 392.09 478.695 397.113 477.561 401.902C476.327 406.035 476.327 410.438 477.561 414.572" stroke="white" stroke-width="1.43" stroke-linecap="round" stroke-linejoin="round"/>
<path d="M448.489 317.202C448.489 317.202 472.556 348.348 498.425 358.572" stroke="#263238" stroke-width="1.43" stroke-linecap="round" stroke-linejoin="round"/>
<path d="M473.4 266.852C473.4 266.852 473.315 288.03 488.587 297.583" stroke="#263238" stroke-width="1.43" stroke-linecap="round" stroke-linejoin="round"/>
<path d="M481.995 297.754C478.763 300.929 482.281 340.769 482.281 340.769C482.281 340.769 463.505 348.119 457.628 352.852C451.75 357.585 423.908 368.453 423.908 368.453C423.908 368.453 419.618 383.068 424.966 383.568C430.315 384.069 485.699 365.193 498.368 358.572C498.368 358.572 506.619 309.952 506.562 297.583" fill="white"/>
<path d="M481.995 297.754C478.763 300.929 482.281 340.769 482.281 340.769C482.281 340.769 463.505 348.119 457.628 352.852C451.75 357.585 423.908 368.453 423.908 368.453C423.908 368.453 419.618 383.068 424.966 383.568C430.315 384.069 485.699 365.193 498.368 358.572C498.368 358.572 506.619 309.952 506.562 297.583" stroke="#263238" stroke-width="1.43" stroke-linecap="round" stroke-linejoin="round"/>
<path d="M426.11 367.581C423.536 367.095 418.96 365.408 416.558 365.965C414.156 366.523 409.765 369.168 405.247 370.255C400.728 371.342 402.601 373.115 405.247 373.644C407.183 373.967 409.159 373.967 411.095 373.644L407.42 377.234C405.316 378.373 403.143 379.38 400.914 380.251C399.584 380.251 394.879 381.524 395.194 383.526C395.508 385.528 398.211 385.299 401.228 385.413C401.228 385.413 396.424 386.371 396.938 389.103C397.253 390.976 402.658 389.289 405.418 389.289C405.418 389.289 403.159 391.748 404.846 392.506C406.534 393.264 410.28 391.376 410.28 391.376C410.28 391.376 410.137 393.407 411.825 393.607C413.512 393.807 417.759 392.177 420.648 390.433C423.492 388.599 426.215 386.584 428.799 384.398C429.892 383.398 431.144 382.586 432.502 381.996" fill="white"/>
<path d="M426.11 367.581C423.536 367.095 418.96 365.408 416.558 365.965C414.156 366.523 409.765 369.168 405.247 370.255C400.728 371.342 402.601 373.115 405.247 373.644C407.183 373.967 409.159 373.967 411.095 373.644L407.42 377.234C405.316 378.373 403.143 379.38 400.914 380.251C399.584 380.251 394.879 381.524 395.194 383.526C395.508 385.528 398.211 385.299 401.228 385.413C401.228 385.413 396.424 386.371 396.938 389.103C397.253 390.976 402.658 389.289 405.418 389.289C405.418 389.289 403.159 391.748 404.846 392.506C406.534 393.264 410.28 391.376 410.28 391.376C410.28 391.376 410.137 393.407 411.825 393.607C413.512 393.807 417.759 392.177 420.648 390.433C423.492 388.599 426.215 386.584 428.799 384.398C429.892 383.398 431.144 382.586 432.502 381.996" stroke="#263238" stroke-width="1.43" stroke-linecap="round" stroke-linejoin="round"/>
<path d="M401.3 385.471C402.628 385.399 403.951 385.246 405.261 385.013C406.391 384.727 407.52 384.355 407.52 384.355" stroke="#263238" stroke-width="1.43" stroke-linecap="round" stroke-linejoin="round"/>
<path d="M405.433 389.346C407.161 389.103 408.826 388.53 410.338 387.659" stroke="#263238" stroke-width="1.43" stroke-linecap="round" stroke-linejoin="round"/>
<path d="M410.294 391.433C411.572 391.272 412.796 390.817 413.869 390.104" stroke="#263238" stroke-width="1.43" stroke-linecap="round" stroke-linejoin="round"/>
<path d="M407.878 378.321C407.878 378.321 406.848 380.68 407.878 381.996C408.907 383.312 410.151 383.426 410.337 384.856C410.523 386.286 412.983 386.286 413.869 387.215C414.756 388.145 415.428 389.932 418.259 390.075" stroke="#263238" stroke-width="1.43" stroke-linecap="round" stroke-linejoin="round"/>
<path d="M480.793 256.441C471.055 278.478 480.793 309.051 480.793 309.051C480.793 309.051 504.359 317.059 506.533 313.613C508.707 310.167 512.682 293.264 513.354 285.456" fill="#999999"/>
<path d="M480.793 256.441C471.055 278.478 480.793 309.051 480.793 309.051C480.793 309.051 504.359 317.059 506.533 313.613C508.707 310.167 512.682 293.264 513.354 285.456" stroke="#263238" stroke-width="1.43" stroke-linecap="round" stroke-linejoin="round"/>
<path d="M506.562 287.902C506.562 287.902 496.552 301.673 488.587 301.859" stroke="#263238" stroke-width="1.43" stroke-linecap="round" stroke-linejoin="round"/>
<path d="M148.776 634.105C148.776 634.105 146.331 624.767 149.191 621.307C154.31 615.1 148.562 609.867 153.71 607.736L155.869 610.238C156.284 607.707 155.083 599.971 164.635 598.97C176.189 597.754 176.404 606.12 177.033 608.98L176.833 605.105C181.766 605.105 179.207 610.024 186.671 618.06C188.628 620.23 190.118 622.779 191.048 625.549C191.978 628.319 192.328 631.251 192.077 634.162L148.776 634.105Z" fill="#263238"/>
<path d="M236.85 634.105C232.203 632.032 236.464 614.5 236.464 614.5C236.464 614.5 230.215 610.31 236.464 605.92C238.881 607.968 241.811 609.317 244.939 609.821C248.066 610.325 251.272 609.965 254.21 608.78C254.21 608.78 255.426 597.054 262.79 598.556C262.79 598.556 264.678 605.992 268.982 610.239C280.637 621.679 295.695 623.109 298.211 628.6C298.969 630.259 298.054 634.048 298.054 634.048L236.85 634.105Z" fill="#263238"/>
<path d="M216.988 354.512L222.708 366.638C222.708 366.638 246.36 415.515 260.846 471.486C261.189 472.816 268.682 499.328 262.676 565.351L266.108 576.934L262.362 596.067C262.362 596.067 267.996 604.204 267.796 606.864C267.796 606.864 253.896 609.452 249.206 611.94C245.602 613.885 234.777 624.567 234.777 624.567C231.703 623.938 231.431 611.526 231.431 611.526C231.431 611.526 225.01 501.315 223.166 496.568C221.321 491.82 210.052 471.343 192.463 424.482C192.463 424.482 192.063 489.933 187.373 506.492C183.183 521.221 188.145 562.448 188.145 562.448L185.285 608.337C185.285 608.337 195.18 618.618 187.158 621.378C187.158 621.378 181.796 611.068 166.523 608.723C158.758 607.522 149.092 621.307 149.092 621.307C145.688 620.22 150.522 602.903 150.522 602.903C139.696 521.221 147.662 536.007 145.517 496.082C144.087 470.456 136.865 360.832 145.388 351.923L216.988 354.512Z" fill="#BFBFBF"/>
<mask id="mask6_90_2019" style="mask-type:luminance" maskUnits="userSpaceOnUse" x="141" y="351" width="127" height="274">
<path d="M216.988 354.512L222.708 366.638C222.708 366.638 246.36 415.515 260.846 471.486C261.189 472.816 268.682 499.328 262.676 565.351L266.108 576.934L262.362 596.067C262.362 596.067 267.996 604.204 267.796 606.864C267.796 606.864 253.896 609.452 249.206 611.94C245.602 613.885 234.777 624.567 234.777 624.567C231.703 623.938 231.431 611.526 231.431 611.526C231.431 611.526 225.01 501.315 223.166 496.568C221.321 491.82 210.052 471.343 192.463 424.482C192.463 424.482 192.063 489.933 187.373 506.492C183.183 521.221 188.145 562.448 188.145 562.448L185.285 608.337C185.285 608.337 195.18 618.618 187.158 621.378C187.158 621.378 181.796 611.068 166.523 608.723C158.758 607.522 149.092 621.307 149.092 621.307C145.688 620.22 150.522 602.903 150.522 602.903C139.696 521.221 147.662 536.007 145.517 496.082C144.087 470.456 136.865 360.832 145.388 351.923L216.988 354.512Z" fill="white"/>
</mask>
<g mask="url(#mask6_90_2019)">
<path opacity="0.2" d="M141.412 392.264C179.65 395.267 212.755 382.754 227.126 376.219C224.395 370.099 222.722 366.638 222.722 366.638L217.002 354.526L145.502 351.923C142.47 355.141 141.398 371.486 141.412 392.264Z" fill="black"/>
<path opacity="0.2" d="M192.85 425.325C210.253 471.586 221.45 491.834 223.251 496.553C224.295 499.299 226.855 536.722 228.857 568.125C231.145 539.525 233.505 509.395 233.705 503.489C234.134 491.706 225.625 475.561 224.353 471.386C223.08 467.21 225.954 462.691 225.954 462.691L210.653 443.386C211.168 436.837 203.06 408.251 203.06 408.251C198.241 412.813 193.951 422.522 192.85 425.325Z" fill="black"/>
</g>
<path d="M216.988 354.512L222.708 366.638C222.708 366.638 246.36 415.515 260.846 471.486C261.189 472.816 268.682 499.328 262.676 565.351L266.108 576.934L262.362 596.067C262.362 596.067 267.996 604.204 267.796 606.864C267.796 606.864 253.896 609.452 249.206 611.94C245.602 613.885 234.777 624.567 234.777 624.567C231.703 623.938 231.431 611.526 231.431 611.526C231.431 611.526 225.01 501.315 223.166 496.568C221.321 491.82 210.052 471.343 192.463 424.482C192.463 424.482 192.063 489.933 187.373 506.492C183.183 521.221 188.145 562.448 188.145 562.448L185.285 608.337C185.285 608.337 195.18 618.618 187.158 621.378C187.158 621.378 181.796 611.068 166.523 608.723C158.758 607.522 149.092 621.307 149.092 621.307C145.688 620.22 150.522 602.903 150.522 602.903C139.696 521.221 147.662 536.007 145.517 496.082C144.087 470.456 136.865 360.832 145.388 351.923L216.988 354.512Z" stroke="#263238" stroke-width="1.43" stroke-linecap="round" stroke-linejoin="round"/>
<path d="M192.521 424.481C192.521 424.481 201.258 407.622 208.708 402.917" stroke="#263238" stroke-width="1.43" stroke-linecap="round" stroke-linejoin="round"/>
<path d="M211.997 397.454C211.997 397.454 185.456 405.534 176.247 407.092" stroke="#263238" stroke-width="1.43" stroke-linecap="round" stroke-linejoin="round"/>
<path d="M198.412 370.37C199.556 392.464 207.349 396.225 199.842 401.044C199.842 401.044 200.056 411.383 196.31 417.932" stroke="#263238" stroke-width="1.43" stroke-linecap="round" stroke-linejoin="round"/>
<path d="M151.909 361.919C151.909 361.919 155.04 395.881 144.587 402.274" stroke="#263238" stroke-width="1.43" stroke-linecap="round" stroke-linejoin="round"/>
<path d="M144.587 372.873C144.587 372.873 143.8 395.481 144.587 413.699C144.587 413.699 147.204 490.705 149.821 500.371C152.438 510.038 145.788 524.681 146.36 566.466" stroke="#263238" stroke-width="1.43" stroke-linecap="round" stroke-linejoin="round"/>
<path d="M169.64 599.17C167.166 598.632 164.581 598.976 162.333 600.143" stroke="#263238" stroke-width="1.43" stroke-linecap="round" stroke-linejoin="round"/>
<path d="M185.371 608.337C182.091 605.145 178.29 602.538 174.131 600.629" stroke="#263238" stroke-width="1.43" stroke-linecap="round" stroke-linejoin="round"/>
<path d="M181.08 429.815C175.217 436.393 165.922 448.792 156.398 449.835" stroke="#263238" stroke-width="1.43" stroke-linecap="round" stroke-linejoin="round"/>
<path d="M190.046 419.119C188.245 421.393 186.386 423.624 184.498 425.84" stroke="#263238" stroke-width="1.43" stroke-linecap="round" stroke-linejoin="round"/>
<path d="M181.695 496.082C181.695 496.082 168.368 514.228 161.061 515.272" stroke="#263238" stroke-width="1.43" stroke-linecap="round" stroke-linejoin="round"/>
<path d="M197.368 421.207C197.368 421.207 221.106 487.316 229.357 493.837C229.357 493.837 230.287 542.457 230.558 559.431C230.83 576.405 234.734 598.97 234.734 598.97" stroke="#263238" stroke-width="1.43" stroke-linecap="round" stroke-linejoin="round"/>
<path d="M260.073 598.484C260.073 598.484 250.936 601.644 246.488 603.661C243.758 604.993 241.618 607.291 240.482 610.11" stroke="#263238" stroke-width="1.43" stroke-linecap="round" stroke-linejoin="round"/>
<path d="M236.951 469.998C224.21 462.005 207.407 452.009 200.629 437.923" stroke="#263238" stroke-width="1.43" stroke-linecap="round" stroke-linejoin="round"/>
<path d="M248.061 476.591C245.644 475.261 243.271 473.874 240.911 472.444" stroke="#263238" stroke-width="1.43" stroke-linecap="round" stroke-linejoin="round"/>
<path d="M207.907 379.308C201.057 379.208 193.607 378.307 187.701 374.432" stroke="#263238" stroke-width="1.43" stroke-linecap="round" stroke-linejoin="round"/>
<path d="M218.79 378.665C216.831 378.936 214.857 379.108 212.884 379.208" stroke="#263238" stroke-width="1.43" stroke-linecap="round" stroke-linejoin="round"/>
<path d="M231.502 226.855C226.268 218.933 199.599 216.917 182.482 216.917C165.365 216.917 144.587 214.057 135.206 233.362C128.056 248.105 144.53 326.068 144.53 326.068L140.497 359.731C171.499 369.455 224.61 367.31 224.61 367.31L217.46 336.879C217.46 336.879 236.736 234.763 231.502 226.855Z" fill="#263238"/>
<path d="M172.315 197.34C172.315 197.34 174.617 215.687 167.639 219.648C167.639 219.648 171.128 233.105 183.369 233.948C195.609 234.792 201.015 221.65 201.015 221.65L172.315 197.34Z" fill="white" stroke="#263238" stroke-width="1.43" stroke-linecap="round" stroke-linejoin="round"/>
<path d="M237.185 150.233L268.512 147.344C269.222 147.278 269.928 147.498 270.477 147.953C271.025 148.409 271.37 149.064 271.436 149.774L273.498 172.13L236.873 175.508L234.811 153.152C234.747 152.452 234.959 151.754 235.402 151.209C235.846 150.663 236.486 150.313 237.185 150.233Z" fill="#7BBB41"/>
<mask id="mask7_90_2019" style="mask-type:luminance" maskUnits="userSpaceOnUse" x="234" y="147" width="40" height="29">
<path d="M237.185 150.233L268.512 147.343C269.222 147.278 269.928 147.497 270.477 147.953C271.025 148.409 271.37 149.063 271.436 149.773L273.498 172.13L236.873 175.508L234.811 153.152C234.747 152.451 234.959 151.754 235.402 151.208C235.846 150.662 236.486 150.312 237.185 150.233Z" fill="white"/>
</mask>
<g mask="url(#mask7_90_2019)">
<path opacity="0.3" d="M237.185 150.233L268.512 147.343C269.222 147.278 269.928 147.497 270.477 147.953C271.025 148.409 271.37 149.063 271.436 149.773L273.498 172.13L236.873 175.508L234.811 153.152C234.747 152.451 234.959 151.754 235.402 151.208C235.846 150.662 236.486 150.312 237.185 150.233Z" fill="black" fill-opacity="0.7"/>
<path opacity="0.3" d="M269.425 149.605L260.411 150.436L262.074 168.463L271.088 167.632L269.425 149.605Z" fill="white" fill-opacity="0.7"/>
</g>
<path d="M237.185 150.233L268.512 147.344C269.222 147.278 269.928 147.498 270.477 147.953C271.025 148.409 271.37 149.064 271.436 149.774L273.498 172.13L236.873 175.508L234.811 153.152C234.747 152.452 234.959 151.754 235.402 151.209C235.846 150.663 236.486 150.313 237.185 150.233Z" stroke="#263238" stroke-width="1.43" stroke-linecap="round" stroke-linejoin="round"/>
<path d="M291.35 145.208L322.677 142.318C323.387 142.253 324.094 142.472 324.642 142.928C325.191 143.383 325.535 144.038 325.601 144.748L327.663 167.104L290.982 170.488L288.92 148.132C288.854 147.422 289.074 146.715 289.529 146.166C289.985 145.618 290.64 145.273 291.35 145.208Z" fill="#7BBB41"/>
<mask id="mask8_90_2019" style="mask-type:luminance" maskUnits="userSpaceOnUse" x="288" y="142" width="40" height="29">
<path d="M291.35 145.207L322.677 142.318C323.387 142.252 324.094 142.471 324.642 142.927C325.191 143.383 325.535 144.038 325.601 144.748L327.663 167.104L290.982 170.487L288.92 148.131C288.854 147.421 289.074 146.714 289.529 146.166C289.985 145.618 290.64 145.273 291.35 145.207Z" fill="white"/>
</mask>
<g mask="url(#mask8_90_2019)">
<path opacity="0.3" d="M291.35 145.207L322.677 142.318C323.387 142.252 324.094 142.471 324.642 142.927C325.191 143.383 325.535 144.038 325.601 144.748L327.663 167.104L290.982 170.487L288.92 148.131C288.854 147.421 289.074 146.714 289.529 146.166C289.985 145.618 290.64 145.273 291.35 145.207Z" fill="black" fill-opacity="0.7"/>
<path opacity="0.3" d="M322.942 144.683L317.503 145.185L319.166 163.212L324.605 162.71L322.942 144.683Z" fill="white" fill-opacity="0.7"/>
</g>
<path d="M291.35 145.208L322.677 142.318C323.387 142.253 324.094 142.472 324.642 142.928C325.191 143.383 325.535 144.038 325.601 144.748L327.663 167.104L290.982 170.488L288.92 148.132C288.854 147.422 289.074 146.715 289.529 146.166C289.985 145.618 290.64 145.273 291.35 145.208Z" stroke="#263238" stroke-width="1.43" stroke-linecap="round" stroke-linejoin="round"/>
<path d="M279.967 146.248L311.294 143.359C312.004 143.293 312.711 143.513 313.26 143.968C313.808 144.424 314.153 145.079 314.218 145.789L316.281 168.145L279.542 171.534L277.48 149.178C277.447 148.821 277.486 148.462 277.594 148.121C277.702 147.779 277.876 147.463 278.108 147.19C278.34 146.917 278.623 146.693 278.943 146.532C279.262 146.37 279.61 146.274 279.967 146.248Z" fill="#7BBB41" stroke="#263238" stroke-width="1.43" stroke-linecap="round" stroke-linejoin="round"/>
<path d="M334.078 141.256L365.405 138.367C366.115 138.301 366.822 138.521 367.371 138.976C367.919 139.432 368.264 140.087 368.329 140.797L370.392 163.153L333.71 166.537L331.648 144.18C331.583 143.47 331.802 142.764 332.258 142.215C332.713 141.667 333.368 141.322 334.078 141.256Z" fill="#7BBB41" stroke="#263238" stroke-width="1.43" stroke-linecap="round" stroke-linejoin="round"/>
<path opacity="0.3" d="M312.154 145.669L303.141 146.5L304.803 164.527L313.817 163.696L312.154 145.669Z" fill="white" fill-opacity="0.7"/>
<path opacity="0.3" d="M365.671 140.717L356.657 141.548L358.32 159.576L367.334 158.744L365.671 140.717Z" fill="white" fill-opacity="0.7"/>
<path d="M385.87 156.471L395.366 259.259L229.7 274.56L220.262 171.743C220.103 170.025 220.633 168.314 221.735 166.987C222.837 165.66 224.421 164.824 226.139 164.665L378.806 150.579C379.657 150.501 380.515 150.591 381.331 150.845C382.148 151.098 382.905 151.511 383.562 152.058C384.218 152.606 384.76 153.277 385.156 154.034C385.552 154.792 385.795 155.62 385.87 156.471Z" fill="#7BBB41"/>
<mask id="mask9_90_2019" style="mask-type:luminance" maskUnits="userSpaceOnUse" x="220" y="150" width="176" height="125">
<path d="M385.87 156.471L395.366 259.259L229.7 274.56L220.262 171.743C220.103 170.025 220.633 168.314 221.735 166.987C222.837 165.66 224.421 164.824 226.139 164.665L378.806 150.579C379.657 150.501 380.515 150.591 381.331 150.845C382.148 151.098 382.905 151.511 383.562 152.058C384.218 152.606 384.76 153.277 385.156 154.034C385.552 154.792 385.795 155.62 385.87 156.471Z" fill="white"/>
</mask>
<g mask="url(#mask9_90_2019)">
<path opacity="0.3" d="M385.87 156.471L395.366 259.259L229.7 274.56L220.262 171.743C220.103 170.025 220.633 168.314 221.735 166.987C222.837 165.66 224.421 164.824 226.139 164.665L378.806 150.579C379.657 150.501 380.515 150.591 381.331 150.845C382.148 151.098 382.905 151.511 383.562 152.058C384.218 152.606 384.76 153.277 385.156 154.034C385.552 154.792 385.795 155.62 385.87 156.471Z" fill="black" fill-opacity="0.7"/>
</g>
<path d="M385.87 156.471L395.366 259.259L229.7 274.56L220.262 171.743C220.103 170.025 220.633 168.314 221.735 166.987C222.837 165.66 224.421 164.824 226.139 164.665L378.806 150.579C379.657 150.501 380.515 150.591 381.331 150.845C382.148 151.098 382.905 151.511 383.562 152.058C384.218 152.606 384.76 153.277 385.156 154.034C385.552 154.792 385.795 155.62 385.87 156.471Z" stroke="#263238" stroke-width="1.43" stroke-linecap="round" stroke-linejoin="round"/>
<path d="M385.87 156.471L395.366 259.259L272.386 270.599L262.905 167.81C262.746 166.092 263.275 164.382 264.378 163.054C265.48 161.727 267.064 160.891 268.782 160.732L378.735 150.579C379.591 150.49 380.457 150.573 381.281 150.822C382.106 151.071 382.872 151.482 383.536 152.03C384.2 152.579 384.749 153.254 385.15 154.016C385.55 154.778 385.795 155.613 385.87 156.471Z" fill="#7BBB41" stroke="#263238" stroke-width="1.43" stroke-linecap="round" stroke-linejoin="round"/>
<path opacity="0.3" d="M377.906 160.89L272.844 170.585C272.144 170.633 271.454 170.405 270.919 169.951C270.385 169.497 270.049 168.852 269.984 168.154C269.932 167.456 270.156 166.765 270.608 166.23C271.06 165.696 271.704 165.359 272.401 165.294L377.463 155.599C378.162 155.551 378.853 155.778 379.387 156.232C379.921 156.686 380.257 157.331 380.323 158.03C380.367 158.726 380.14 159.413 379.69 159.946C379.239 160.479 378.6 160.817 377.906 160.89Z" fill="white" fill-opacity="0.7"/>
<path d="M193.293 160.961C193.293 160.961 169.054 156.099 166.337 171.701C163.62 187.302 172.5 193.937 172.5 193.937L193.293 160.961Z" fill="#263238"/>
<path d="M172.501 202.503C169.731 194.747 169.298 186.349 171.256 178.35C173.63 168.34 185.556 154.569 203.646 167.081C212.955 173.531 213.527 187.53 210.624 200.343C209.938 203.403 210.453 206.392 209.437 209.209C205.862 219.076 199.327 226.67 195.752 226.841C189.789 227.141 177.863 219.92 178.349 213.628" fill="white"/>
<path d="M172.501 202.503C169.731 194.747 169.298 186.349 171.256 178.35C173.63 168.34 185.556 154.569 203.646 167.081C212.955 173.531 213.527 187.53 210.624 200.343C209.938 203.403 210.453 206.392 209.437 209.209C205.862 219.076 199.327 226.67 195.752 226.841C189.789 227.141 177.863 219.92 178.349 213.628" stroke="#263238" stroke-width="1.43" stroke-linecap="round" stroke-linejoin="round"/>
<path d="M196.653 197.969C196.653 197.969 191.834 194.48 187.201 197.34" stroke="#263238" stroke-width="1.43" stroke-linecap="round" stroke-linejoin="round"/>
<path d="M205.748 197.34C205.748 197.34 209.395 193.994 211.768 194.48" stroke="#263238" stroke-width="1.43" stroke-linecap="round" stroke-linejoin="round"/>
<path d="M189.847 203.318C189.847 204.205 190.29 204.934 190.848 204.934C191.405 204.934 191.863 204.205 191.863 203.318C191.863 202.431 191.405 201.716 190.848 201.716C190.29 201.716 189.847 202.431 189.847 203.318Z" fill="#263238"/>
<path d="M205.748 204.033C206.308 204.033 206.763 203.316 206.763 202.431C206.763 201.547 206.308 200.83 205.748 200.83C205.187 200.83 204.732 201.547 204.732 202.431C204.732 203.316 205.187 204.033 205.748 204.033Z" fill="#263238"/>
<path d="M203.703 200.715C201.93 203.032 204.418 211.855 203.703 212.484C202.988 213.113 198.441 211.326 198.441 211.326C198.441 211.326 197.383 209.982 199.599 209.267" stroke="#263238" stroke-width="1.43" stroke-linecap="round" stroke-linejoin="round"/>
<path d="M199.671 216.917C199.671 216.917 193.565 216.917 191.935 214.686" stroke="#263238" stroke-width="1.43" stroke-linecap="round" stroke-linejoin="round"/>
<path d="M185.056 183.87L184.584 191.249C184.584 191.249 179.35 193.951 178.035 196.697C177.252 198.495 176.966 200.47 177.205 202.417C177.205 202.417 174.031 196.869 172.315 197.326C171.7 197.483 171.7 199.814 171.7 199.814C171.7 199.814 164.55 183.855 171.014 175.418C177.477 166.981 185.056 183.87 185.056 183.87Z" fill="#757575" stroke="#263238" stroke-width="1.43" stroke-linecap="round" stroke-linejoin="round"/>
<path d="M174.974 200.83C174.974 200.83 173.544 195.467 168.725 194.052C163.906 192.636 167.209 205.492 171.313 207.165C175.417 208.838 176.447 210.025 176.69 208.495" fill="white"/>
<path d="M174.974 200.83C174.974 200.83 173.544 195.467 168.725 194.052C163.906 192.636 167.209 205.492 171.313 207.165C175.417 208.838 176.447 210.025 176.69 208.495" stroke="#263238" stroke-width="1.43" stroke-linecap="round" stroke-linejoin="round"/>
<path d="M168.411 182.94C168.01 182.397 166.237 168.64 175.317 162.463C184.398 156.285 199.742 156.943 209.509 165.494C219.276 174.046 216.501 188.875 209.509 193.937V187.745C209.509 187.745 206.291 193.951 196.639 194.466L199.585 189.919C199.585 189.919 194.837 192.779 186.471 192.536C186.471 192.536 190.404 189.404 189.832 186.615C189.846 186.615 176.562 194.094 168.411 182.94Z" fill="#263238"/>
<path d="M170.113 232.533C163.42 233.334 153.897 242.071 160.103 257.586C164.064 267.425 196.611 261.576 196.611 261.576C208.68 256.6 226.312 238.696 239.253 230.388C239.253 230.388 236.522 213.228 233.376 215.659C218.747 226.856 206.721 227.628 186.315 237.438C186.358 237.38 174.317 232.032 170.113 232.533Z" fill="white" stroke="#263238" stroke-width="1.43" stroke-linecap="round" stroke-linejoin="round"/>
<path d="M185.056 251.58C184.855 257.986 187.487 259.116 191.92 260.632L185.056 251.58Z" fill="white"/>
<path d="M185.056 251.58C184.855 257.986 187.487 259.116 191.92 260.632" stroke="#263238" stroke-width="1.43" stroke-linecap="round" stroke-linejoin="round"/>
<path d="M232.403 216.917C232.704 215.987 238.123 206.464 239.653 204.047C241.184 201.63 248.019 199.442 250.664 197.984C253.31 196.525 253.524 194.309 254.954 195.896C256.384 197.483 254.954 201.101 247.032 204.948C249.847 205.103 252.669 205.103 255.484 204.948C257.6 204.633 259.488 202.717 260.431 204.047C261.375 205.377 261.561 207.765 256.842 209.224C254.598 210.037 252.247 210.519 249.864 210.654C252.172 211.147 254.442 211.806 256.656 212.627C257.414 213.185 258.544 214.486 259.673 214.686C260.803 214.886 262.033 216.116 259.959 217.546C259.224 217.953 258.401 218.173 257.561 218.188C256.721 218.203 255.89 218.012 255.14 217.632C255.14 217.632 260.617 220.277 258.916 221.922C257.214 223.566 251.766 223.238 251.766 223.238C251.766 223.238 243.686 233.09 236.851 231.031" fill="white"/>
<path d="M232.403 216.917C232.704 215.987 238.123 206.464 239.653 204.047C241.184 201.63 248.019 199.442 250.664 197.984C253.31 196.525 253.524 194.309 254.954 195.896C256.384 197.483 254.954 201.101 247.032 204.948C249.847 205.103 252.669 205.103 255.484 204.948C257.6 204.633 259.488 202.717 260.431 204.047C261.375 205.377 261.561 207.765 256.842 209.224C254.598 210.037 252.247 210.519 249.864 210.654C252.172 211.147 254.442 211.806 256.656 212.627C257.414 213.185 258.544 214.486 259.673 214.686C260.803 214.886 262.033 216.116 259.959 217.546C259.224 217.953 258.401 218.173 257.561 218.188C256.721 218.203 255.89 218.012 255.14 217.632C255.14 217.632 260.617 220.277 258.916 221.922C257.214 223.566 251.766 223.238 251.766 223.238C251.766 223.238 243.686 233.09 236.851 231.031" stroke="#263238" stroke-width="1.43" stroke-linecap="round" stroke-linejoin="round"/>
<path d="M242.084 204.033C242.546 204.14 242.97 204.373 243.308 204.706C243.646 205.039 243.886 205.46 244 205.92C244.472 207.608 245.859 207.708 246.703 209.595C247.547 211.483 247.303 214.4 248.133 215.401C248.962 216.402 248.133 220.621 248.133 220.621" stroke="#263238" stroke-width="1.43" stroke-linecap="round" stroke-linejoin="round"/>
<path d="M171.514 231.317C168.011 226.855 160.146 228.871 160.146 228.871" stroke="white" stroke-width="1.43" stroke-linecap="round" stroke-linejoin="round"/>
<path d="M155.855 220.649C155.855 220.649 163.949 221.836 166.337 228.572" stroke="white" stroke-width="1.43" stroke-linecap="round" stroke-linejoin="round"/>
<path d="M170.113 263.292C170.113 263.292 162.219 269.398 150.207 260.632" stroke="white" stroke-width="1.43" stroke-linecap="round" stroke-linejoin="round"/>
<path d="M160.145 265.136C160.145 265.136 156.141 270.67 146.389 270.599" stroke="white" stroke-width="1.43" stroke-linecap="round" stroke-linejoin="round"/>
<path d="M210.31 334.763C210.31 334.763 189.661 351.222 168.683 349.063" stroke="white" stroke-width="1.43" stroke-linecap="round" stroke-linejoin="round"/>
<path d="M154.497 298.599C154.497 298.599 186.543 322.108 210.267 323.609" stroke="white" stroke-width="1.43" stroke-linecap="round" stroke-linejoin="round"/>
<path d="M155.34 472.629C160.853 469.571 167.334 468.761 173.429 470.37C183.883 473.001 211.038 511.84 214.814 515.629C218.589 519.419 225.653 521.349 232.159 528.199C242.455 538.938 257.428 548.433 258.943 548.433C260.459 548.433 261.675 547.49 263.562 547.118C265.45 546.746 280.064 545.416 280.064 545.416C280.064 545.416 284.969 546.503 280.064 548.605C275.16 550.707 275.531 552.58 275.531 552.58C275.531 552.58 274.545 554.168 276.518 555.683C278.491 557.199 279.65 556.37 282.467 560.36C285.284 564.349 278.491 562.09 278.491 562.09C278.491 562.09 279.993 566.38 276.976 565.951C273.958 565.522 276.604 570.141 271.699 569.512C266.794 568.882 256.298 562.261 253.667 555.326C253.667 555.326 210.852 534.863 204.446 529.586C198.04 524.309 171.07 496.01 169.225 495.638" fill="#263238"/>
<path d="M267.351 510.954H298.811C299.525 510.954 300.208 511.237 300.712 511.741C301.217 512.245 301.5 512.929 301.5 513.642V536.093H264.663V513.642C264.663 512.929 264.946 512.245 265.451 511.741C265.955 511.237 266.638 510.954 267.351 510.954Z" fill="#205683"/>
<mask id="mask10_90_2019" style="mask-type:luminance" maskUnits="userSpaceOnUse" x="264" y="510" width="38" height="27">
<path d="M267.351 510.954H298.811C299.525 510.954 300.208 511.237 300.712 511.741C301.217 512.245 301.5 512.929 301.5 513.642V536.093H264.663V513.642C264.663 512.929 264.946 512.245 265.451 511.741C265.955 511.237 266.638 510.954 267.351 510.954Z" fill="white"/>
</mask>
<g mask="url(#mask10_90_2019)">
<path opacity="0.3" d="M267.351 510.954H298.811C299.525 510.954 300.208 511.237 300.712 511.741C301.217 512.245 301.5 512.929 301.5 513.642V536.093H264.663V513.642C264.663 512.929 264.946 512.245 265.451 511.741C265.955 511.237 266.638 510.954 267.351 510.954Z" fill="black" fill-opacity="0.7"/>
<path opacity="0.3" d="M299.455 513.327H290.403V531.431H299.455V513.327Z" fill="white" fill-opacity="0.7"/>
</g>
<path d="M267.351 510.954H298.811C299.525 510.954 300.208 511.237 300.712 511.741C301.217 512.245 301.5 512.929 301.5 513.642V536.093H264.663V513.642C264.663 512.929 264.946 512.245 265.451 511.741C265.955 511.237 266.638 510.954 267.351 510.954Z" stroke="#263238" stroke-width="1.43" stroke-linecap="round" stroke-linejoin="round"/>
<path d="M321.691 510.954H353.151C353.864 510.954 354.548 511.237 355.052 511.741C355.556 512.245 355.84 512.929 355.84 513.642V536.093H319.003V513.642C319.003 513.289 319.072 512.939 319.208 512.613C319.343 512.287 319.541 511.991 319.79 511.741C320.04 511.491 320.336 511.293 320.663 511.158C320.989 511.023 321.338 510.954 321.691 510.954Z" fill="#205683"/>
<mask id="mask11_90_2019" style="mask-type:luminance" maskUnits="userSpaceOnUse" x="319" y="510" width="37" height="27">
<path d="M321.691 510.954H353.151C353.864 510.954 354.548 511.237 355.052 511.741C355.556 512.245 355.84 512.929 355.84 513.642V536.093H319.003V513.642C319.003 513.289 319.072 512.939 319.208 512.613C319.343 512.287 319.541 511.991 319.79 511.741C320.04 511.491 320.336 511.293 320.663 511.158C320.989 511.023 321.338 510.954 321.691 510.954Z" fill="white"/>
</mask>
<g mask="url(#mask11_90_2019)">
<path opacity="0.3" d="M321.691 510.954H353.151C353.864 510.954 354.548 511.237 355.052 511.741C355.556 512.245 355.84 512.929 355.84 513.642V536.093H319.003V513.642C319.003 513.289 319.072 512.939 319.208 512.613C319.343 512.287 319.541 511.991 319.79 511.741C320.04 511.491 320.336 511.293 320.663 511.158C320.989 511.023 321.338 510.954 321.691 510.954Z" fill="black" fill-opacity="0.7"/>
<path opacity="0.3" d="M353.194 513.327H347.731V531.431H353.194V513.327Z" fill="white" fill-opacity="0.7"/>
</g>
<path d="M321.691 510.954H353.151C353.864 510.954 354.548 511.237 355.052 511.741C355.556 512.245 355.84 512.929 355.84 513.642V536.093H319.003V513.642C319.003 513.289 319.072 512.939 319.208 512.613C319.343 512.287 319.541 511.991 319.79 511.741C320.04 511.491 320.336 511.293 320.663 511.158C320.989 511.023 321.338 510.954 321.691 510.954Z" stroke="#263238" stroke-width="1.43" stroke-linecap="round" stroke-linejoin="round"/>
<path d="M310.252 510.954H341.712C342.425 510.954 343.109 511.237 343.613 511.741C344.117 512.245 344.4 512.929 344.4 513.642V536.093H307.563V513.642C307.563 513.289 307.633 512.939 307.768 512.613C307.903 512.287 308.101 511.991 308.351 511.741C308.601 511.491 308.897 511.293 309.223 511.158C309.549 511.023 309.899 510.954 310.252 510.954Z" fill="#205683" stroke="#263238" stroke-width="1.43" stroke-linecap="round" stroke-linejoin="round"/>
<path d="M364.592 510.954H396.052C396.765 510.954 397.449 511.237 397.953 511.741C398.457 512.245 398.74 512.929 398.74 513.642V536.093H361.903V513.642C361.903 512.929 362.187 512.245 362.691 511.741C363.195 511.237 363.879 510.954 364.592 510.954Z" fill="#205683" stroke="#263238" stroke-width="1.43" stroke-linecap="round" stroke-linejoin="round"/>
<path opacity="0.3" d="M342.355 513.327H333.303V531.431H342.355V513.327Z" fill="white" fill-opacity="0.7"/>
<path opacity="0.3" d="M396.095 513.327H387.043V531.431H396.095V513.327Z" fill="white" fill-opacity="0.7"/>
<path d="M414.771 530.859V634.091H248.447V530.859C248.447 529.133 249.133 527.478 250.353 526.258C251.573 525.038 253.228 524.353 254.954 524.353H408.264C409.99 524.353 411.645 525.038 412.865 526.258C414.085 527.478 414.771 529.133 414.771 530.859Z" fill="#205683"/>
<mask id="mask12_90_2019" style="mask-type:luminance" maskUnits="userSpaceOnUse" x="248" y="524" width="167" height="111">
<path d="M414.771 530.859V634.091H248.447V530.859C248.447 529.133 249.133 527.478 250.353 526.258C251.573 525.038 253.228 524.353 254.954 524.353H408.264C409.99 524.353 411.645 525.038 412.865 526.258C414.085 527.478 414.771 529.133 414.771 530.859Z" fill="white"/>
</mask>
<g mask="url(#mask12_90_2019)">
<path opacity="0.3" d="M414.771 530.859V634.091H248.447V530.859C248.447 529.133 249.133 527.478 250.353 526.258C251.573 525.038 253.228 524.353 254.954 524.353H408.264C409.99 524.353 411.645 525.038 412.865 526.258C414.085 527.478 414.771 529.133 414.771 530.859Z" fill="black" fill-opacity="0.7"/>
</g>
<path d="M414.771 530.859V634.091H248.447V530.859C248.447 529.133 249.133 527.478 250.353 526.258C251.573 525.038 253.228 524.353 254.954 524.353H408.264C409.99 524.353 411.645 525.038 412.865 526.258C414.085 527.478 414.771 529.133 414.771 530.859Z" stroke="#263238" stroke-width="1.43" stroke-linecap="round" stroke-linejoin="round"/>
<path d="M414.77 530.859V634.091H291.347V530.859C291.347 529.133 292.032 527.478 293.252 526.258C294.473 525.038 296.128 524.353 297.853 524.353H408.263C409.989 524.353 411.644 525.038 412.864 526.258C414.084 527.478 414.77 529.133 414.77 530.859Z" fill="#205683" stroke="#263238" stroke-width="1.43" stroke-linecap="round" stroke-linejoin="round"/>
<path opacity="0.3" d="M406.419 534.534H300.914C300.201 534.534 299.517 534.251 299.013 533.747C298.508 533.243 298.225 532.559 298.225 531.846C298.218 531.488 298.282 531.132 298.413 530.799C298.545 530.467 298.742 530.163 298.992 529.908C299.243 529.652 299.541 529.449 299.871 529.31C300.201 529.171 300.556 529.1 300.914 529.1H406.419C407.132 529.1 407.816 529.383 408.32 529.887C408.824 530.392 409.107 531.075 409.107 531.789C409.115 532.146 409.051 532.502 408.919 532.835C408.788 533.168 408.591 533.471 408.341 533.727C408.09 533.982 407.791 534.185 407.461 534.324C407.131 534.463 406.777 534.534 406.419 534.534Z" fill="white" fill-opacity="0.7"/>
<path d="M211.11 634.09C202.53 634.09 190.475 628.571 176.589 622.736C162.189 616.673 145.787 610.267 129.142 609.309C122.936 608.951 126.697 634.09 126.697 634.09H113.112C113.112 634.09 99.6983 616.187 98.1396 600.157C98.1396 600.157 109.093 593.393 111.725 593.007C112.632 592.912 113.544 592.869 114.456 592.878C117.402 592.878 121.334 593.007 121.334 593.007C120.705 592.635 110.681 586.6 105.147 580.465C100.585 575.403 98.4971 567.41 98.3398 562.633C98.5166 559.471 98.8651 556.32 99.3838 553.195L170.769 554.382C170.769 554.382 171.542 554.926 172.914 555.941C181.194 561.975 211.453 584.455 226.582 601.401C231.473 606.878 234.776 611.768 235.262 615.343C237.536 631.831 224.051 634.09 211.11 634.09Z" fill="#757575" stroke="#263238" stroke-width="1.43" stroke-linecap="round" stroke-linejoin="round"/>
<path d="M226.597 601.373L191.876 609.309C185.923 612.714 180.715 617.281 176.561 622.737C162.161 616.674 145.759 610.267 129.113 609.309C122.907 608.952 126.668 634.091 126.668 634.091H113.083C113.083 634.091 99.6983 616.187 98.1396 600.157C98.1396 600.157 110.781 618.175 113.87 627.327C113.87 627.327 118.775 610.396 126.74 603.603C123.142 599.552 119.054 595.963 114.57 592.921C117.516 592.921 121.449 593.05 121.449 593.05C120.819 592.678 110.795 586.644 105.261 580.509C100.699 575.447 98.8547 567.439 98.4543 562.677C98.2541 560.332 98.54 553.239 98.54 553.239C98.54 553.239 151.779 560.832 173.029 555.984C181.208 561.99 211.467 584.427 226.597 601.373Z" fill="#263238"/>
<path d="M170.783 600.157C170.783 600.157 199.069 614.328 206.619 619.876C214.169 625.425 216.415 623.923 216.415 623.923" stroke="#263238" stroke-width="1.43" stroke-linecap="round" stroke-linejoin="round"/>
<path d="M105.161 598.655C105.161 598.655 111.954 609.023 112.311 612.126" stroke="#263238" stroke-width="1.43" stroke-linecap="round" stroke-linejoin="round"/>
<path d="M218.932 399.656C218.932 399.656 233.99 393.107 232.56 420.963C231.13 448.82 236.235 450.25 236.235 450.25C236.235 450.25 198.34 465.808 188.716 452.509C179.092 439.21 188.23 402.817 218.932 399.656Z" fill="#263238"/>
<path d="M216.83 450.25C216.83 450.25 201.243 457.6 199.827 464.393C198.411 471.185 178.892 460.961 178.892 460.961L193.034 440.626L216.83 450.25Z" fill="white" stroke="#263238" stroke-width="1.43" stroke-linecap="round" stroke-linejoin="round"/>
<path d="M114.627 524.81C78.8773 570.341 107.892 592.306 148.418 588.674L140.296 601.544L160.688 605.076C160.688 605.076 176.317 594.866 197.624 583.955C233.889 565.365 248.547 566.48 244.814 547.876C241.082 529.272 196.638 517.203 152.079 536.808C152.036 536.794 127.84 508.051 114.627 524.81Z" fill="#757575" stroke="#263238" stroke-width="1.43" stroke-linecap="round" stroke-linejoin="round"/>
<path d="M127.097 623.923C127.097 623.923 136.406 598.183 140.296 596.753C144.185 595.323 158.886 600.9 160.688 605.047C160.688 605.047 165.65 597.44 167.68 600.671C169.711 603.903 166.779 609.251 167.68 613.341C168.581 617.431 178.634 623.151 182.652 623.909C186.671 624.667 188.959 626.926 188.959 629.186V634.091H127.097C126.411 632.484 126.057 630.754 126.057 629.007C126.057 627.259 126.411 625.53 127.097 623.923Z" fill="white" stroke="#263238" stroke-width="1.43" stroke-linecap="round" stroke-linejoin="round"/>
<path d="M167.681 609.309C167.681 609.309 159.487 613.355 156.498 612.169C153.51 610.982 158.028 618.961 159.158 619.719C160.288 620.477 167.738 617.073 167.738 617.073" stroke="#263238" stroke-width="1.43" stroke-linecap="round" stroke-linejoin="round"/>
<path d="M134.833 605.062C134.833 605.062 145.958 605.277 149.347 609.352" stroke="#263238" stroke-width="1.43" stroke-linecap="round" stroke-linejoin="round"/>
<path d="M127.097 623.923C127.097 623.923 144.829 628.07 146.33 628.07C148.769 627.586 151.161 626.893 153.48 625.997C153.48 625.997 158.342 628.442 161.574 629.958C164.806 631.474 185.884 629.958 185.884 629.958" stroke="#263238" stroke-width="1.43" stroke-linecap="round" stroke-linejoin="round"/>
<path d="M148.418 588.702C165.349 586.872 198.239 566.008 209.679 558.758C221.119 551.508 223.979 553.41 223.979 553.41" stroke="#263238" stroke-width="1.43" stroke-linecap="round" stroke-linejoin="round"/>
<path d="M98.4395 553.167L101.142 532.646L107.663 527.727C118.231 502.087 166.107 454.197 179.163 454.354C198.768 454.583 202.229 475.16 204.646 497.683C207.062 520.205 176.517 516.816 176.517 516.816V522.465L159.143 531.459L169.668 531.131C169.668 531.131 139.395 560.56 98.4395 553.167Z" fill="#205683" stroke="#263238" stroke-width="1.43" stroke-linecap="round" stroke-linejoin="round"/>
<path d="M183.296 414.7C187.4 401.83 206.176 398.398 212.925 400.5C218.466 402.663 223.006 406.806 225.667 412.126C227.383 415.829 223.793 422.379 226.353 426.197C230.014 431.674 229.699 443.228 228.384 450.507C227.669 454.368 211.61 456.656 198.482 447.647C184.383 437.894 179.32 427.083 183.296 414.7Z" fill="white" stroke="#263238" stroke-width="1.43" stroke-linecap="round" stroke-linejoin="round"/>
<path d="M202.272 396.654C202.272 396.654 218.803 393.965 218.917 398.212C219.647 426.426 202.73 432.346 202.73 432.346C202.73 432.346 195.823 426.841 194.279 430.616C192.734 434.391 196.71 444.83 201.6 445.045C200.473 446.795 199.857 448.826 199.822 450.908C199.787 452.99 200.333 455.04 201.4 456.828C201.4 456.828 173.401 461.504 171.084 448.534C172.166 444.025 172.94 439.448 173.401 434.835C175.217 416.659 170.97 404.433 202.272 396.654Z" fill="#263238"/>
<path d="M224.352 425.411C227.798 428.514 230.272 428.514 230.229 429.629C230.1 433.104 225.939 434.834 225.939 434.834" fill="white"/>
<path d="M224.352 425.411C227.798 428.514 230.272 428.514 230.229 429.629C230.1 433.104 225.939 434.834 225.939 434.834" stroke="#263238" stroke-width="1.43" stroke-linecap="round" stroke-linejoin="round"/>
<path d="M225.853 440.626C223.417 441.45 220.789 441.515 218.316 440.812" stroke="#263238" stroke-width="1.43" stroke-linecap="round" stroke-linejoin="round"/>
<path d="M216.686 408.093C216.686 408.093 227.683 404.905 225.667 422.751C225.667 422.751 230.243 416.531 230.228 409.538C230.228 397.426 214.026 399.857 214.026 399.857L216.143 408.437" fill="#263238"/>
<path d="M226.682 416.831C226.266 416.555 225.798 416.365 225.306 416.274C224.815 416.183 224.31 416.193 223.822 416.302" stroke="#263238" stroke-width="1.43" stroke-linecap="round" stroke-linejoin="round"/>
<path d="M219.275 416.631C219.275 416.631 213.369 416.974 210.81 420.921" stroke="#263238" stroke-width="1.43" stroke-linecap="round" stroke-linejoin="round"/>
<path d="M217.86 426.026C217.945 426.97 217.545 427.785 216.959 427.842C216.372 427.899 215.829 427.17 215.729 426.226C215.629 425.282 216.043 424.467 216.63 424.41C217.216 424.353 217.774 425.082 217.86 426.026Z" fill="#263238"/>
<path d="M149.348 592.992C149.348 592.992 162.504 594.422 165.364 600.142" stroke="#263238" stroke-width="1.43" stroke-linecap="round" stroke-linejoin="round"/>
<path d="M182.652 464.007C188.165 460.948 194.646 460.139 200.742 461.747C211.209 464.393 238.351 503.217 242.126 507.007C245.901 510.796 252.965 512.727 259.472 519.576C269.768 530.316 284.74 539.811 286.256 539.811C287.772 539.811 288.987 538.867 290.875 538.495C292.762 538.123 307.377 536.794 307.377 536.794C307.377 536.794 312.282 537.895 307.377 539.982C302.472 542.07 302.844 543.972 302.844 543.972C302.844 543.972 301.871 545.545 303.831 547.061C305.79 548.577 306.962 547.747 309.779 551.737C312.596 555.727 305.804 553.467 305.804 553.467C305.804 553.467 307.305 557.757 304.288 557.328C301.271 556.899 303.916 561.518 299.011 560.889C294.107 560.26 283.61 553.639 280.979 546.703C280.979 546.703 238.165 526.24 231.759 520.963C225.352 515.687 198.411 487.387 196.509 487.015" fill="white"/>
<path d="M182.652 464.007C188.165 460.948 194.646 460.139 200.742 461.747C211.209 464.393 238.351 503.217 242.126 507.007C245.901 510.796 252.965 512.727 259.472 519.576C269.768 530.316 284.74 539.811 286.256 539.811C287.772 539.811 288.987 538.867 290.875 538.495C292.762 538.123 307.377 536.794 307.377 536.794C307.377 536.794 312.282 537.895 307.377 539.982C302.472 542.07 302.844 543.972 302.844 543.972C302.844 543.972 301.871 545.545 303.831 547.061C305.79 548.577 306.962 547.747 309.779 551.737C312.596 555.727 305.804 553.467 305.804 553.467C305.804 553.467 307.305 557.757 304.288 557.328C301.271 556.899 303.916 561.518 299.011 560.889C294.107 560.26 283.61 553.639 280.979 546.703C280.979 546.703 238.165 526.24 231.759 520.963C225.352 515.687 198.411 487.387 196.509 487.015" stroke="#263238" stroke-width="1.43" stroke-linecap="round" stroke-linejoin="round"/>
<path d="M176.504 459.859C176.504 459.859 197.611 454.211 204.975 458.358C212.34 462.505 226.296 481.738 226.296 481.738C226.296 481.738 209.279 496.968 204.017 495.581C198.755 494.194 182.653 491.92 182.653 491.92" fill="#205683"/>
<path d="M176.504 459.859C176.504 459.859 197.611 454.211 204.975 458.358C212.34 462.505 226.296 481.738 226.296 481.738C226.296 481.738 209.279 496.968 204.017 495.581C198.755 494.194 182.653 491.92 182.653 491.92" stroke="#263238" stroke-width="1.43" stroke-linecap="round" stroke-linejoin="round"/>
<path d="M194.807 493.779C194.807 493.779 187.157 497.984 184.34 497.984" stroke="#263238" stroke-width="1.43" stroke-linecap="round" stroke-linejoin="round"/>
<path d="M182.652 472.687C183.296 473.816 183.081 486.186 196.509 490.032" stroke="#263238" stroke-width="1.43" stroke-linecap="round" stroke-linejoin="round"/>
<path d="M110.881 528.128C110.881 528.128 139.481 533.033 149.348 524.353" stroke="#263238" stroke-width="1.43" stroke-linecap="round" stroke-linejoin="round"/>
<path d="M159.129 531.459C159.129 531.459 151.979 530.201 149.347 533.876C146.716 537.551 132.388 541.026 132.388 541.026" stroke="#263238" stroke-width="1.43" stroke-linecap="round" stroke-linejoin="round"/>
<path d="M101.643 558.758C101.643 558.758 97.51 576.576 115.142 584.498" stroke="#263238" stroke-width="1.43" stroke-linecap="round" stroke-linejoin="round"/>
<path d="M110.881 559.988C110.881 559.988 110.981 568.768 113.741 573.573L122.507 576.433L132.317 570.97C132.317 570.97 130.229 559.745 130.043 557.471" stroke="#263238" stroke-width="1.43" stroke-linecap="round" stroke-linejoin="round"/>
</svg>
